<svg width="42" height="31" viewBox="0 0 42 31" fill="none" xmlns="http://www.w3.org/2000/svg">
<path d="M20.8011 0C20.8114 0.021352 20.8236 0.0425954 20.8359 0.0638958C20.8639 0.112406 20.892 0.16122 20.8976 0.212279C20.9084 0.314089 20.9062 0.417074 20.9041 0.519983C20.9032 0.561956 20.9023 0.604305 20.9023 0.646166V11.7966C20.8055 11.8076 20.7111 11.8187 20.6185 11.8296C20.3874 11.8568 20.167 11.8828 19.9461 11.9028C19.832 11.9133 19.7634 11.9413 19.7553 12.0731C19.75 12.1553 19.7321 12.2365 19.7141 12.3181C19.7043 12.3626 19.6944 12.4072 19.6866 12.4521C19.6541 12.6457 19.5063 12.7204 19.3353 12.6271C19.2752 12.5941 19.2143 12.5624 19.1535 12.5308C19.012 12.4571 18.8707 12.3836 18.7397 12.2947C18.5524 12.1675 18.3744 12.1734 18.1836 12.262C18.0645 12.3177 17.9451 12.3728 17.8257 12.4279C17.5103 12.5735 17.1951 12.719 16.8854 12.8755C16.7074 12.9653 16.5631 12.9875 16.377 12.8872C16.1824 12.7832 15.9785 12.6963 15.759 12.6026C15.6583 12.5597 15.5543 12.5153 15.4463 12.4673C15.5109 12.4246 15.5712 12.3871 15.6278 12.3518C15.7384 12.283 15.8348 12.223 15.921 12.1512C16.384 11.7675 16.8447 11.3814 17.2937 10.9825C17.4798 10.8169 17.6415 10.7387 17.8753 10.8939C18.0338 10.9987 18.1984 11.0938 18.3633 11.1891C18.501 11.2687 18.6389 11.3484 18.7734 11.4339C19.0771 11.6275 19.1038 11.6217 19.2539 11.3033C19.4377 10.9125 19.5505 10.5136 19.561 10.0739C19.5726 9.5817 19.3679 9.20263 19.048 8.87138C18.8495 8.66692 18.6411 8.47194 18.4269 8.27158C18.3222 8.17364 18.2161 8.07436 18.1092 7.97211C18.129 7.95595 18.1482 7.93898 18.1673 7.92204C18.209 7.88518 18.2506 7.84845 18.2976 7.82048C19.0352 7.37726 19.4924 6.72177 19.782 5.92047C20.0868 5.07603 20.245 4.20475 20.3358 3.31598C20.3806 2.87774 20.4358 2.4404 20.4911 2.00313C20.5246 1.73747 20.5581 1.47183 20.5894 1.20602C20.61 1.03274 20.626 0.859458 20.6421 0.686175C20.6541 0.556323 20.6662 0.426109 20.6801 0.296257C20.6876 0.22871 20.7022 0.161164 20.7167 0.0940433L20.7168 0.0935622C20.7226 0.0669642 20.7283 0.0404335 20.7336 0.0139963C20.7515 0.0118857 20.7723 0.00691074 20.7941 0.00166297L20.8011 0Z" fill="#DBB56D"/>
<path d="M21.3714 0.660228C21.3481 0.450283 21.3237 0.240337 21.2969 0.0105627C21.0919 0.0512764 21.1003 0.171931 21.1081 0.283387C21.1092 0.299651 21.1103 0.315718 21.1108 0.331313C21.109 3.13878 21.1093 5.9469 21.1095 8.75518V8.75568C21.1096 9.69234 21.1096 10.6291 21.1096 11.5657C21.1096 11.6224 21.1131 11.6791 21.1164 11.7325C21.1177 11.7548 21.1191 11.7769 21.1201 11.7979C21.1739 11.8046 21.2259 11.8113 21.2766 11.8178C21.4201 11.8363 21.5534 11.8534 21.6866 11.8655L21.694 11.8662C22.2334 11.9156 22.235 11.9158 22.3253 12.4604C22.3567 12.6493 22.5091 12.7204 22.6801 12.626C22.7465 12.5896 22.8135 12.5543 22.8806 12.5189C23.0286 12.4409 23.1767 12.3628 23.3176 12.2737C23.4619 12.1816 23.5991 12.1699 23.7469 12.2376C23.9646 12.3374 24.1819 12.4379 24.3991 12.5385C24.6717 12.6646 24.9441 12.7906 25.2173 12.9152L25.2387 12.9251C25.302 12.9547 25.3799 12.9911 25.4279 12.9712C25.7044 12.8575 25.9764 12.7352 26.2674 12.6045C26.3644 12.5609 26.4635 12.5163 26.5656 12.4708C26.4978 12.4258 26.4345 12.3861 26.3751 12.3488C26.2594 12.2762 26.1584 12.2128 26.0677 12.1373C25.6047 11.7524 25.1452 11.3651 24.6961 10.9662C24.5205 10.8099 24.3646 10.7481 24.1505 10.8904C24.0373 10.9659 23.9174 11.0294 23.7974 11.0929C23.7227 11.1325 23.6479 11.1722 23.5747 11.2147C23.4757 11.2717 23.3786 11.3317 23.2816 11.3915L23.281 11.3919L23.2804 11.3923C23.2034 11.4398 23.1264 11.4873 23.0489 11.5331C22.9395 11.5972 22.8662 11.5646 22.8197 11.4456C22.7865 11.3602 22.7495 11.2759 22.7124 11.1916C22.6418 11.0308 22.5712 10.8703 22.5277 10.7026C22.3707 10.0926 22.3951 9.49895 22.8465 9.00558C23.032 8.80291 23.2341 8.61444 23.4363 8.42585C23.5181 8.34961 23.5998 8.27334 23.6806 8.19612C23.7341 8.14494 23.7896 8.09501 23.8488 8.04176C23.8704 8.02227 23.8928 8.00211 23.9155 7.98151C23.8874 7.95907 23.8629 7.9387 23.8405 7.92009C23.8001 7.88652 23.7665 7.85854 23.7306 7.83454C23.1675 7.45664 22.6615 7.02625 22.423 6.35909C22.3761 6.22859 22.3257 6.0988 22.2754 5.96897C22.1547 5.65786 22.0339 5.34654 21.96 5.02477C21.833 4.47123 21.7598 3.90372 21.6869 3.33886L21.6692 3.20174C21.5899 2.59527 21.5214 1.98701 21.453 1.3791C21.426 1.13948 21.399 0.899601 21.3714 0.660228Z" fill="#DBB56D"/>
<path d="M1.07501 4.06962C1.14612 4.07469 1.21712 4.07975 1.28641 4.09282L1.28733 4.09299C2.94707 4.39736 4.60682 4.70172 6.2654 5.00842C7.64044 5.26269 9.01547 5.51696 10.3905 5.77356L10.9424 5.87645C11.9837 6.07044 13.0254 6.26452 14.0654 6.46871C14.4575 6.5459 14.846 6.6476 15.2333 6.74898L15.3881 6.78946C15.5033 6.81979 15.6138 6.8816 15.715 6.94459C15.7569 6.97025 15.7964 7.04606 15.7883 7.09038C15.7813 7.13004 15.7092 7.17903 15.6615 7.18603C15.0713 7.26944 14.5076 7.44606 13.9435 7.62283C13.7503 7.68335 13.5571 7.74388 13.3628 7.8007C13.1498 7.86295 12.903 7.82454 12.6651 7.7875C12.6132 7.77944 12.5618 7.77143 12.5112 7.76454C11.6184 7.6457 10.7262 7.52328 9.83396 7.40084L9.83338 7.40076C9.1146 7.30213 8.39578 7.20349 7.6765 7.10671C7.10903 7.03048 6.5413 6.95687 5.97368 6.88327C5.34283 6.80147 4.71193 6.71967 4.08186 6.63433C3.97599 6.62034 3.86315 6.56435 3.77939 6.49554C3.11281 5.95318 2.45089 5.40382 1.78896 4.85446C1.55048 4.65618 1.31317 4.45556 1.07701 4.25495C1.0476 4.22945 1.02145 4.20013 0.995218 4.17073C0.983058 4.1571 0.970881 4.14345 0.958354 4.13015C0.966497 4.10799 0.97464 4.08583 0.983947 4.0625C1.01418 4.06529 1.0447 4.06746 1.07501 4.06962Z" fill="#DBB56D"/>
<path d="M41.0183 4.16467C41.0279 4.1517 41.0374 4.13877 41.0473 4.12658C41.045 4.11998 41.0426 4.11325 41.0401 4.10652C41.0352 4.09303 41.0303 4.07954 41.0264 4.06709C41.0072 4.06802 40.9881 4.06862 40.969 4.06922C40.9161 4.07088 40.8636 4.07252 40.8124 4.08109C40.7473 4.09165 40.6823 4.10212 40.6173 4.11259C40.3519 4.15531 40.0868 4.198 39.8224 4.24671C38.6442 4.46383 37.4671 4.68293 36.2891 4.90218L35.9881 4.9582C35.4639 5.056 34.9398 5.15345 34.4159 5.25089L34.4152 5.25102L34.4143 5.25117C33.6016 5.4023 32.7889 5.55342 31.9758 5.70584C30.6904 5.94611 29.4049 6.18755 28.1206 6.43132C28.0339 6.44779 27.947 6.46349 27.86 6.47919C27.3437 6.57244 26.8268 6.6658 26.3558 6.92236C26.3136 6.94555 26.2833 6.99013 26.2531 7.03467C26.2393 7.05508 26.2254 7.07548 26.2104 7.09381C26.2312 7.10424 26.2517 7.11612 26.2722 7.12799C26.3181 7.15463 26.3641 7.1813 26.414 7.19179C26.5336 7.21808 26.6544 7.24018 26.775 7.26227C26.9594 7.29603 27.1437 7.32976 27.3237 7.37841C27.527 7.43308 27.7269 7.49835 27.9269 7.56362C28.1023 7.62089 28.2779 7.67818 28.4556 7.72832L28.4832 7.73604C28.6673 7.78768 28.8637 7.84278 29.0454 7.82279C29.6218 7.75821 30.1965 7.67874 30.7715 7.59923L30.7733 7.59897C31.0182 7.56512 31.2631 7.53125 31.5082 7.49854C32.0045 7.43191 32.5009 7.36555 32.9973 7.29918L33.0006 7.29874C34.5974 7.08526 36.1944 6.87175 37.7901 6.64943C37.9739 6.62377 38.1728 6.54096 38.317 6.42432C39.0324 5.8447 39.7394 5.25441 40.4466 4.66393C40.6145 4.52373 40.7827 4.3833 40.9508 4.24321C40.977 4.22093 40.9978 4.1926 41.0183 4.16467Z" fill="#DBB56D"/>
<path d="M23.2661 10.9035C23.2822 10.8234 23.2961 10.7425 23.3099 10.6616C23.339 10.4918 23.3681 10.3218 23.4185 10.1582C23.7466 9.10151 24.213 8.1136 24.8913 7.23416C25.0681 7.00556 25.2554 6.78511 25.4508 6.57283C25.4875 6.53281 25.5462 6.51311 25.6049 6.49338C25.6318 6.48436 25.6587 6.47533 25.6835 6.46436C25.6867 6.48969 25.6925 6.51581 25.6984 6.54195C25.7113 6.60006 25.7243 6.65826 25.7091 6.70813C25.6253 6.99273 25.6823 7.23766 25.8952 7.43594C25.979 7.51409 26.0941 7.58757 26.2046 7.6039C26.9294 7.71704 27.6285 7.90832 28.3091 8.18358C28.4782 8.25217 28.6532 8.30735 28.8281 8.36247C29.0755 8.44045 29.3225 8.51831 29.5515 8.6338C30.1192 8.91956 30.6706 9.24731 31.1976 9.60305C31.8941 10.0723 32.5688 10.5738 33.2433 11.0751L33.3625 11.1636C33.5044 11.2688 33.6325 11.3924 33.7691 11.5242C33.8386 11.5913 33.9103 11.6605 33.9872 11.7305C33.4416 11.8646 33.3195 12.2554 33.2334 12.6613C33.184 12.8961 33.3141 13.0802 33.4415 13.2603L33.4418 13.2608C33.4523 13.2756 33.4627 13.2903 33.473 13.3051C33.9035 13.9209 34.5282 14.2907 35.175 14.6149C36.0568 15.057 36.9781 15.3929 37.9785 15.4372C38.7324 15.471 39.4629 15.3369 40.1737 15.092C40.4702 14.9899 40.7648 14.8839 41.0595 14.778L41.06 14.7778C41.3005 14.6913 41.5412 14.6048 41.7826 14.5204C41.8197 14.5075 41.8617 14.5075 41.9118 14.5074C41.9387 14.5074 41.968 14.5073 42.0001 14.5053C41.7607 15.0285 41.3945 15.4167 41.0319 15.8013C40.9523 15.8857 40.8728 15.9699 40.7949 16.0554C40.4983 16.3808 40.1272 16.5628 39.7096 16.6934C38.5904 17.0456 37.4364 17.1681 36.2766 17.2824C35.3076 17.3769 34.3839 17.1926 33.4428 16.9908C32.4499 16.778 31.5779 16.3196 30.6998 15.8581L30.5624 15.786C30.4915 15.7486 30.4356 15.6833 30.4368 15.6192C30.4426 15.5848 30.4514 15.55 30.4602 15.5151C30.4795 15.4389 30.4988 15.3627 30.4868 15.2914C30.3519 14.482 30.004 13.8043 29.2665 13.3774C29.2337 13.3582 29.2054 13.3313 29.1772 13.3046C29.1644 13.2924 29.1516 13.2803 29.1385 13.2689C29.1404 13.2591 29.1424 13.2494 29.1445 13.2398L29.1461 13.2328C29.1487 13.2208 29.1513 13.2089 29.1536 13.1966C29.1909 13.1966 29.2288 13.1945 29.2667 13.1923C29.3505 13.1876 29.4346 13.1828 29.5131 13.2013C29.89 13.2888 30.2681 13.3809 30.6369 13.4999C30.752 13.5372 30.8579 13.648 30.937 13.7495C31.0545 13.9006 31.1668 14.0558 31.2791 14.211C31.6072 14.6645 31.935 15.1176 32.39 15.4652C32.9972 15.9294 33.6708 16.2525 34.4037 16.4554C34.5277 16.4896 34.6525 16.5212 34.7774 16.5527C35.0063 16.6106 35.2352 16.6684 35.4588 16.7424C36.2766 17.0118 37.0944 16.9267 37.9169 16.7832C38.0065 16.768 38.0972 16.7529 38.1868 16.7365C38.2007 16.7342 38.2112 16.7202 38.2077 16.7237C38.0174 16.709 37.8248 16.6984 37.6312 16.6877C37.1953 16.6636 36.7542 16.6393 36.3208 16.5674C35.1494 16.3726 33.9907 16.1044 32.9658 15.4594C32.5017 15.1666 32.1259 14.8004 31.8328 14.3047C31.5338 13.7985 31.5245 13.3179 31.6524 12.7977C31.699 12.6088 31.6443 12.4991 31.5187 12.3592C31.1437 11.9382 30.6657 11.6776 30.1878 11.4171C29.9599 11.2929 29.7321 11.1687 29.5154 11.0272C29.3171 10.8977 29.1107 10.7811 28.9047 10.6647L28.9042 10.6644C28.8059 10.6089 28.7076 10.5533 28.6104 10.4965C27.7507 9.99262 26.8119 9.82816 25.8301 9.84099C25.6858 9.84332 25.5415 9.83516 25.3973 9.82583C24.797 9.78617 24.3329 10.0591 23.9164 10.458C23.7942 10.575 23.6633 10.6833 23.5326 10.7914C23.4718 10.8417 23.4109 10.8921 23.351 10.9432C23.3297 10.9325 23.3078 10.9225 23.2862 10.9127L23.2661 10.9035Z" fill="#DBB56D"/>
<path d="M21.0974 30.8542C21.0954 30.9024 21.0933 30.9506 21.0918 30.9988C21.1219 30.9988 21.1523 30.9988 21.1837 31C21.2236 30.8376 21.2639 30.6753 21.3042 30.513C21.3941 30.1509 21.4839 29.789 21.5699 29.4266L21.6181 29.2239C21.7605 28.6255 21.9029 28.0267 22.0294 27.4251C22.1143 27.0204 22.1818 26.6098 22.2237 26.1981C22.2539 25.8983 22.2795 25.6126 21.984 25.3583C21.6664 25.0854 21.6327 24.6655 21.6909 24.2584C21.727 24.363 21.7545 24.4714 21.7819 24.5791C21.8587 24.8812 21.9341 25.1779 22.1923 25.3688C22.5172 24.9709 22.8343 24.5816 23.1449 24.2005C23.3314 23.9716 23.5156 23.7456 23.6976 23.5224C23.593 23.418 23.4865 23.3154 23.3801 23.2129C23.1455 22.987 22.9112 22.7614 22.6983 22.5159C22.3563 22.1205 22.0678 21.6854 22.1085 21.1186C22.1155 21.0194 22.1143 20.9179 22.0945 20.8223C22.0873 20.7874 22.058 20.7576 22.0288 20.7278C22.0159 20.7147 22.0031 20.7017 21.9922 20.6882C21.9783 20.701 21.9632 20.7131 21.9481 20.7252C21.9136 20.753 21.879 20.7808 21.8595 20.8165C21.8411 20.8495 21.8374 20.8907 21.8336 20.932C21.8317 20.9533 21.8298 20.9747 21.8258 20.9949C21.7397 21.4311 21.6048 21.5431 21.1732 21.5373C21.1651 21.5365 21.1571 21.5418 21.1421 21.5516C21.1332 21.5574 21.122 21.5648 21.1069 21.5734V22.51C21.1069 25.195 21.1069 27.88 21.1057 30.5649C21.1057 30.6614 21.1016 30.7578 21.0974 30.8542Z" fill="#DBB56D"/>
<path d="M20.6683 30.4121C20.7184 30.6075 20.7684 30.8029 20.8173 30.9987C20.8476 30.9987 20.8778 30.9987 20.9127 30.9976C20.912 30.9674 20.9109 30.9371 20.9099 30.9068C20.9078 30.8457 20.9058 30.7842 20.9058 30.7235C20.9046 27.7574 20.9046 24.7925 20.9046 21.8264V21.5232L20.8326 21.5233L20.7714 21.5235C20.6982 21.5237 20.6346 21.5239 20.5719 21.5232C20.2892 21.5197 20.1787 21.4357 20.1089 21.1558C20.0986 21.1154 20.0935 21.0736 20.0883 21.0319C20.0813 20.9748 20.0744 20.9179 20.0542 20.8653C20.0371 20.8197 19.9991 20.782 19.961 20.7444C19.9446 20.7282 19.9282 20.7119 19.9135 20.6951C19.8996 20.7151 19.8824 20.7351 19.8651 20.7551C19.8272 20.7989 19.7894 20.8426 19.7878 20.8875C19.7852 20.9786 19.7964 21.0697 19.8076 21.1609C19.8164 21.2332 19.8253 21.3059 19.8274 21.3785C19.8278 21.3953 19.8285 21.4124 19.8291 21.4297C19.8334 21.5421 19.838 21.6621 19.7936 21.7541C19.5726 22.216 19.2969 22.6406 18.8862 22.966C18.7381 23.0833 18.602 23.2163 18.4691 23.3462C18.4131 23.4009 18.3577 23.455 18.3023 23.5072C18.8071 24.1277 19.3074 24.7423 19.8204 25.3722C20.0679 25.1899 20.1388 24.9072 20.2135 24.6092C20.2459 24.4799 20.279 24.3478 20.3276 24.2198C20.3916 24.6887 20.2752 25.2007 19.8599 25.5576C19.8029 25.6054 19.7378 25.6929 19.7436 25.7547L19.744 25.7589C19.7846 26.1588 19.8253 26.5597 19.8995 26.9538C20.0379 27.6851 20.1903 28.4152 20.3555 29.1419C20.4516 29.5665 20.5597 29.9883 20.6679 30.4105L20.6681 30.4115L20.6683 30.4121Z" fill="#DBB56D"/>
<path d="M3.97484 16.7581C3.9077 16.7507 3.84057 16.7433 3.77392 16.734L3.77691 16.7165C3.78082 16.6939 3.78487 16.6705 3.78671 16.6465C3.92302 16.6465 4.05955 16.6488 4.19614 16.651H4.19792C4.50008 16.6561 4.80283 16.6611 5.10359 16.6418C5.93536 16.5893 6.73339 16.3619 7.53026 16.1286C8.20964 15.9303 8.84946 15.6504 9.39971 15.2037C10.0395 14.6835 10.52 14.0665 10.4258 13.1684C10.4171 13.0844 10.3994 13.0013 10.3816 12.9184C10.3659 12.8448 10.3501 12.7712 10.3408 12.6972C10.3327 12.6284 10.3304 12.5257 10.3711 12.4896C10.4436 12.4244 10.5154 12.3579 10.5873 12.2913C10.8292 12.0674 11.0719 11.8427 11.3436 11.6638C11.8485 11.3302 12.3859 11.0409 12.9222 10.7575C12.9811 10.7263 13.0399 10.6948 13.0989 10.6633C13.5024 10.4474 13.91 10.2293 14.3403 10.0868C14.9825 9.87457 15.6607 9.84774 16.3412 9.82092C17.0729 9.79176 17.6639 9.99237 18.1606 10.5231C18.2597 10.6286 18.3759 10.7174 18.5098 10.8196C18.5757 10.8699 18.6458 10.9234 18.7202 10.9838C18.7165 10.9252 18.7158 10.8739 18.7153 10.828C18.7142 10.7442 18.7134 10.6782 18.6946 10.6187C18.6587 10.5063 18.6234 10.3935 18.588 10.2807C18.4573 9.8634 18.3265 9.4455 18.1653 9.04062C17.8093 8.14718 17.2777 7.35755 16.6367 6.6449C16.5839 6.58636 16.5047 6.55097 16.4256 6.51562C16.3896 6.49956 16.3537 6.4835 16.3203 6.46528C16.3185 6.51781 16.3165 6.57033 16.3145 6.62286C16.3124 6.67531 16.3104 6.72775 16.3086 6.7802C16.3086 6.79536 16.311 6.81052 16.3133 6.82569C16.3784 7.25841 16.1248 7.57683 15.6863 7.61298C15.6188 7.61882 15.5502 7.62931 15.485 7.64914C15.0008 7.79697 14.5166 7.94677 14.0324 8.09657L13.5481 8.24632C12.7466 8.49359 11.9648 8.77119 11.2773 9.28322C10.7495 9.67703 10.2116 10.0571 9.67354 10.4372C9.29857 10.7021 8.92333 10.9672 8.55165 11.2369C8.42864 11.3267 8.32125 11.4373 8.20648 11.5556C8.14977 11.6141 8.09126 11.6744 8.02816 11.7349C8.08114 11.7517 8.12826 11.7641 8.17049 11.7752C8.25159 11.7965 8.31467 11.8131 8.36668 11.8469C8.73429 12.0825 8.91693 12.7683 8.65053 13.1136C8.36087 13.488 8.04096 13.8764 7.65125 14.1283C7.08122 14.4957 6.4507 14.7838 5.81902 15.0392C5.0303 15.3577 4.20434 15.5198 3.34116 15.4195C2.29534 15.297 1.31467 14.9588 0.344463 14.5727C0.281809 14.5482 0.21514 14.5322 0.135886 14.5132C0.0944769 14.5033 0.0496252 14.4926 0.00012207 14.4794C0.215638 14.9806 0.544371 15.3358 0.867307 15.6847C0.926098 15.7482 0.984765 15.8116 1.04245 15.8755C1.34491 16.2114 1.67879 16.4914 2.12783 16.6407C3.47145 17.0874 4.86162 17.2308 6.25876 17.3172C7.25433 17.3781 8.21284 17.1068 9.15644 16.8397L9.24964 16.8133C9.71619 16.6822 10.1599 16.4636 10.6017 16.2459C10.7416 16.177 10.8812 16.1082 11.0214 16.0423C11.1734 15.9709 11.3138 15.8747 11.4495 15.7818C11.5111 15.7396 11.5718 15.698 11.6321 15.6597C11.6109 15.6205 11.5876 15.5862 11.5668 15.5557C11.5295 15.5008 11.5005 15.4581 11.5065 15.4206C11.6112 14.7476 11.7938 14.1085 12.3662 13.6641C12.536 13.5323 12.7047 13.4005 12.8734 13.2687L12.8682 13.2491L12.8629 13.229C12.8594 13.2159 12.8559 13.2028 12.8524 13.1894C12.8187 13.1894 12.7843 13.1873 12.7499 13.1852C12.6754 13.1807 12.6006 13.1761 12.5314 13.1929C12.1254 13.2909 11.7228 13.4005 11.3203 13.5148C11.2529 13.5335 11.1831 13.5836 11.14 13.6384C11.0839 13.711 11.0273 13.7832 10.9707 13.8555C10.7505 14.1367 10.53 14.4183 10.3339 14.7162C9.9581 15.2842 9.41716 15.6388 8.84481 15.9618C8.28266 16.2793 7.6674 16.4476 7.05386 16.6155C6.964 16.64 6.87419 16.6646 6.78458 16.6896C6.00283 16.9078 5.20945 17.0267 4.39862 16.8238C4.26025 16.7897 4.11743 16.7739 3.97484 16.7581Z" fill="#DBB56D"/>
<path fill-rule="evenodd" clip-rule="evenodd" d="M19.469 16.8273C19.4795 17.7277 20.1193 18.2981 20.9895 18.368C21.8398 18.2899 22.4762 17.744 22.4959 16.8366C22.5134 16.0621 21.8329 15.2737 20.8964 15.3227C20.1135 15.3623 19.4597 16.04 19.469 16.8273ZM20.466 16.8109C20.4753 16.552 20.7044 16.3491 20.9883 16.3502C21.2675 16.3514 21.4967 16.5602 21.5025 16.8191C21.506 17.0955 21.2791 17.3195 20.9918 17.3218C20.6951 17.3253 20.4555 17.092 20.466 16.8109Z" fill="#DBB56D"/>
<path fill-rule="evenodd" clip-rule="evenodd" d="M24.3582 15.1902C24.4773 15.1611 24.5816 15.1355 24.6809 15.0963C24.8426 15.0333 24.9787 15.087 25.0253 15.22C25.1241 15.4975 25.1916 15.788 25.2486 16.0772C25.2824 16.2487 25.1718 16.3618 25.0148 16.4201L24.9923 16.4283C24.9066 16.4596 24.8197 16.4914 24.7309 16.5053C24.489 16.5426 24.3924 16.6686 24.3878 16.9193L24.3877 16.924C24.3808 17.3081 24.38 17.3503 24.7647 17.4769C24.9915 17.5515 25.0218 17.6577 24.9462 17.8618C24.9005 17.9848 24.8679 18.1131 24.8352 18.2414C24.8171 18.3126 24.799 18.384 24.7786 18.4543C24.7391 18.5919 24.6507 18.6211 24.5146 18.5814C24.0943 18.4585 24.0874 18.4673 23.8379 18.7853L23.8038 18.8287C23.6677 19.0013 23.6665 19.1238 23.7968 19.2824C23.8447 19.3408 23.885 19.4056 23.9253 19.4706C23.9576 19.5224 23.9898 19.5743 24.026 19.623C24.1528 19.7933 24.1109 19.9344 23.962 20.0604L23.8356 20.1673C23.7093 20.2742 23.583 20.3811 23.4548 20.4861C23.3082 20.6062 23.164 20.6039 23.0313 20.4616C23.023 20.4525 23.0148 20.4433 23.0065 20.4341L23.0058 20.4334C22.9887 20.4144 22.9716 20.3955 22.9546 20.3776C22.9082 20.3284 22.8679 20.2849 22.8324 20.2466C22.6787 20.0805 22.6153 20.0121 22.5443 20.0029C22.4946 19.9965 22.4411 20.0191 22.3501 20.0577C22.2705 20.0914 22.1623 20.1372 22.003 20.1863C21.6912 20.282 21.5865 20.4709 21.5946 20.7917C21.6039 21.1579 21.4934 21.2431 21.1282 21.2477C20.9606 21.2501 20.7943 21.2477 20.6268 21.2419C20.4523 21.2349 20.3406 21.1451 20.3196 20.9655L20.3161 20.9367L20.3125 20.9091L20.3083 20.8773C20.2939 20.77 20.2795 20.6623 20.2859 20.5561C20.2987 20.3636 20.2068 20.2948 20.0358 20.247C19.9515 20.2235 19.8723 20.1816 19.7931 20.1397C19.727 20.1047 19.6608 20.0696 19.5914 20.0452C19.5216 20.0207 19.4076 20.0277 19.3553 20.0709C19.2531 20.1555 19.1639 20.2557 19.0745 20.356C19.0469 20.387 19.0192 20.4182 18.9911 20.4488C18.8539 20.5981 18.7073 20.6144 18.5502 20.4861C18.3792 20.3461 18.2106 20.2038 18.043 20.0604C17.8953 19.9332 17.8523 19.7898 17.9825 19.623C17.9944 19.6076 18.0036 19.5899 18.0126 19.5723C18.0249 19.5486 18.0371 19.525 18.0558 19.5075C18.3827 19.2031 18.3292 18.908 18.057 18.5977L18.0427 18.5813C17.9775 18.5057 17.9317 18.4526 17.822 18.4951C17.7934 18.5065 17.7624 18.5108 17.7312 18.5151C17.7016 18.5192 17.6718 18.5234 17.644 18.5336C17.2962 18.6666 17.2811 18.6397 17.1636 18.2595C17.1622 18.2555 17.161 18.2513 17.1598 18.2471L17.1564 18.2351L17.1545 18.2281C17.1533 18.2238 17.1521 18.2195 17.1508 18.2152C17.1371 18.1597 17.1168 18.102 17.0965 18.0442C17.0494 17.9098 17.0022 17.7753 17.0379 17.6693C17.0742 17.5639 17.2295 17.4929 17.3723 17.4275C17.4081 17.4111 17.4432 17.395 17.4753 17.3789C17.6308 17.302 17.626 17.1776 17.621 17.0486C17.6205 17.0347 17.6199 17.0208 17.6196 17.0068C17.6068 16.6056 17.6068 16.6056 17.2276 16.4948C16.7238 16.3478 16.6738 16.2534 16.8181 15.739C16.8343 15.682 16.849 15.6247 16.8636 15.5674C16.8868 15.477 16.9099 15.3867 16.9391 15.2981C17.0019 15.1091 17.1403 15.0438 17.3288 15.1022C17.3384 15.1052 17.348 15.108 17.3576 15.1108C17.3699 15.1145 17.3821 15.118 17.3939 15.122C17.9162 15.2899 18.1373 15.185 18.3164 14.6729C18.3315 14.6286 18.3048 14.5563 18.2769 14.5108C18.178 14.3487 18.0733 14.1889 17.9651 14.0326C17.8732 13.8985 17.8767 13.7737 17.9988 13.6664C18.1988 13.4903 18.3991 13.314 18.6096 13.1532C18.7271 13.0633 18.8527 13.0913 18.9562 13.2021C18.9874 13.2357 19.018 13.2699 19.0486 13.304C19.1404 13.4066 19.2322 13.5092 19.3378 13.594C19.403 13.6454 19.5239 13.657 19.6124 13.6407C19.6873 13.6273 19.7589 13.5962 19.8309 13.5649C19.8785 13.5443 19.9263 13.5235 19.9753 13.5077C20.3255 13.3961 20.3255 13.3957 20.349 13.029L20.3499 13.0144C20.358 12.8802 20.3673 12.7321 20.429 12.619C20.5465 12.4043 21.476 12.4032 21.5737 12.6225C21.6482 12.7881 21.6621 12.991 21.6621 13.1776C21.661 13.3608 21.7377 13.4296 21.8994 13.4716C21.9779 13.4923 22.0544 13.5226 22.1308 13.5528C22.2175 13.5871 22.3042 13.6214 22.3938 13.6419C22.4788 13.6617 22.6021 13.643 22.6672 13.5905C22.77 13.5086 22.8588 13.4101 22.9476 13.3115C22.9815 13.274 23.0153 13.2365 23.0499 13.1998C23.1628 13.0797 23.2919 13.0668 23.4164 13.166C23.613 13.3211 23.8038 13.4856 23.9922 13.6512C24.119 13.762 24.1423 13.8915 24.0376 14.0349C24.0244 14.053 24.0137 14.0732 24.003 14.0932C23.9883 14.121 23.9736 14.1486 23.9527 14.1702C23.6537 14.4641 23.6351 14.7592 23.9434 15.0555C23.9946 15.1029 24.0506 15.1449 24.1024 15.1838C24.127 15.2023 24.1508 15.2201 24.1725 15.2374C24.2382 15.2197 24.2993 15.2047 24.3568 15.1906L24.3576 15.1904L24.3582 15.1902ZM21.0281 14.6858C19.7752 14.6298 18.8678 15.6737 18.8388 16.7817C18.8085 17.9679 19.7415 18.9745 20.935 19.0188C22.1379 19.0631 23.1197 18.116 23.1651 16.875C23.2047 15.809 22.3438 14.6566 21.0281 14.6858Z" fill="#DBB56D"/>
<path d="M33.3292 7.63667C32.0034 7.77968 30.6775 7.92269 29.3517 8.06541C29.3482 8.08407 29.3435 8.10273 29.3389 8.1214C29.4732 8.18465 29.6073 8.24846 29.7415 8.31227L29.7424 8.31273C30.0878 8.47702 30.4334 8.64142 30.7826 8.79672C30.9082 8.85271 31.0606 8.8842 31.1967 8.8737C32.4473 8.77689 33.6967 8.67192 34.9461 8.55995C35.0926 8.54712 35.2497 8.50863 35.3765 8.43748C35.8896 8.15038 36.3961 7.8534 36.9029 7.55622L36.906 7.55445C37.0014 7.49848 37.0969 7.4425 37.1924 7.38659C37.2309 7.3641 37.2649 7.33388 37.2991 7.30353C37.3145 7.28979 37.33 7.27603 37.346 7.26295C37.3407 7.25362 37.3358 7.24429 37.3309 7.23496L37.3237 7.2215L37.3189 7.21261L37.3157 7.20696C35.9907 7.3496 34.6656 7.49252 33.3406 7.63545L33.3292 7.63667Z" fill="#DBB56D"/>
<path d="M4.68683 7.20605C6.9112 7.44517 9.13558 7.68511 11.3865 7.92792L12.7067 8.07032C12.6728 8.09082 12.6426 8.11016 12.6145 8.12815C12.5628 8.16129 12.518 8.18996 12.4706 8.21262C12.4014 8.24589 12.3322 8.27925 12.2629 8.31262C11.9074 8.484 11.5512 8.65571 11.1909 8.8168C11.0851 8.86462 10.9559 8.88678 10.8396 8.87745L10.3673 8.84041L10.3668 8.84037C9.23527 8.7518 8.10335 8.66319 6.97507 8.54853C6.79457 8.52997 6.61996 8.42723 6.45008 8.32726C6.4065 8.30162 6.3631 8.27608 6.32012 8.25228C5.94042 8.04139 5.56428 7.82335 5.18835 7.60544C5.084 7.54495 4.97967 7.48447 4.87528 7.42416C4.82487 7.39539 4.77757 7.36143 4.73026 7.32748C4.70669 7.31056 4.68287 7.29347 4.65891 7.27719C4.66821 7.2527 4.67752 7.22937 4.68683 7.20605Z" fill="#DBB56D"/>
<path d="M25.0812 18.2104C25.0627 18.286 25.0431 18.3659 25.0217 18.4521C25.0659 18.4316 25.1049 18.4141 25.14 18.3982C25.2268 18.3591 25.2898 18.3307 25.3486 18.2958C25.6266 18.1372 25.6662 18.0299 25.572 17.7231C25.56 17.6846 25.5474 17.6462 25.5349 17.6079C25.4999 17.5012 25.4651 17.3947 25.4428 17.2858C25.43 17.2239 25.4428 17.1295 25.4836 17.0886C25.9102 16.654 25.9139 16.6559 26.4509 16.9251L26.4654 16.9324C26.5759 16.9883 26.712 17.0268 26.833 17.0187C27.0005 17.007 27.5042 16.1614 27.4344 16.0121C27.3833 15.9013 27.2902 15.7893 27.1866 15.7298C26.9482 15.5922 26.8726 15.4254 27.0063 15.1758C27.0238 15.142 27.0319 15.1035 27.0389 15.0662C27.0645 14.9215 27.1518 14.8527 27.2948 14.8714C27.5764 14.9075 27.7136 14.7594 27.766 14.5063L27.777 14.4534C27.8519 14.0964 27.9275 13.7355 27.8067 13.3131C27.6498 13.4198 27.4956 13.5244 27.3433 13.6277C26.9515 13.8934 26.5728 14.1503 26.1967 14.4107C26.1525 14.441 26.1176 14.5051 26.1059 14.5588C25.9954 15.0498 25.75 15.4767 25.4836 15.8954C25.437 15.9678 25.3998 16.0634 25.4033 16.1474L25.4039 16.1615C25.422 16.5696 25.422 16.571 25.0252 16.6944C24.9998 16.7026 24.9733 16.7087 24.9469 16.7147C24.8986 16.7258 24.8506 16.7367 24.81 16.7609C24.7483 16.7971 24.6623 16.8624 24.6623 16.916C24.6611 17.0187 24.6913 17.1376 24.7507 17.2181C24.7984 17.2834 24.9042 17.3172 24.9915 17.3371C25.2381 17.3931 25.2497 17.5517 25.1962 17.7535C25.1578 17.8979 25.1221 18.0435 25.0812 18.2104Z" fill="#DBB56D"/>
<path d="M14.1888 13.3048C14.3032 13.3825 14.4159 13.4588 14.5272 13.5343L14.5281 13.5349C14.9766 13.8389 15.403 14.1278 15.8268 14.4211C15.8698 14.4502 15.8966 14.5202 15.9082 14.5762C16.0003 15.0073 16.2156 15.3781 16.4323 15.7513C16.4566 15.7929 16.4809 15.8349 16.505 15.8767C16.569 15.9887 16.5852 16.1461 16.5771 16.2791C16.5608 16.5462 16.5841 16.5963 16.8458 16.6582L16.891 16.6685C16.9715 16.6869 17.0522 16.7053 17.1297 16.7328C17.1478 16.7394 17.167 16.7447 17.1862 16.75C17.2727 16.7741 17.3596 16.7983 17.3577 16.9357C17.3554 17.0897 17.3367 17.2052 17.1692 17.281C16.7482 17.4699 16.7504 17.4793 16.8562 17.928C16.8797 18.0274 16.9057 18.1267 16.9354 18.2399C16.9513 18.3007 16.9683 18.3656 16.9866 18.4369C16.7318 18.3517 16.5364 18.2666 16.4131 18.073C16.3817 18.0228 16.3828 17.9447 16.3875 17.8805C16.3906 17.8408 16.4051 17.8022 16.4195 17.7636C16.4268 17.7443 16.434 17.725 16.4398 17.7055L16.4413 17.7008C16.6143 17.1212 16.6153 17.1179 16.1327 16.7515C16.0897 16.7188 15.9943 16.72 15.9384 16.7433C15.8265 16.7884 15.7172 16.84 15.608 16.8916C15.5254 16.9306 15.4428 16.9696 15.3591 17.0057C15.1881 17.0792 15.0648 17.0069 14.9752 16.8599C14.9299 16.7856 14.886 16.7104 14.8421 16.6352C14.7709 16.5135 14.6996 16.3914 14.6227 16.2733C14.5157 16.1088 14.5483 15.9712 14.6739 15.8417C14.7038 15.8108 14.74 15.7847 14.7761 15.7587L14.7984 15.7426C15.0953 15.523 15.0942 15.5187 15.011 15.1935L15.0031 15.1629C14.9508 14.9553 14.8577 14.8386 14.6309 14.8654C14.4331 14.8888 14.3366 14.7931 14.2784 14.6007C14.1551 14.1948 14.0946 13.7924 14.1888 13.3048Z" fill="#DBB56D"/>
<path d="M11.3959 12.3544C11.1202 12.5725 10.8457 12.8069 10.7166 13.235C10.8433 13.2102 10.965 13.1855 11.0835 13.1614C11.2891 13.1196 11.4855 13.0796 11.6833 13.0449C11.9206 13.0052 12.1056 12.8967 12.2498 12.702C12.4266 12.4628 12.6791 12.4197 12.9455 12.492C13.1118 12.5375 13.2759 12.6133 13.4224 12.7043C13.6185 12.8271 13.8104 12.9561 14.0023 13.0851C14.1623 13.1927 14.3222 13.3002 14.4845 13.4041C14.7858 13.5965 15.0902 13.7847 15.4 13.9761L15.4004 13.9764L15.4033 13.9782C15.5506 14.0692 15.6992 14.161 15.8491 14.2544C15.8449 14.1769 15.8336 14.0982 15.8225 14.0197C15.7814 13.7319 15.7409 13.4478 16.048 13.2443C15.7831 13.1024 15.5198 12.9607 15.2575 12.8195L15.2567 12.8191C14.6635 12.4998 14.0752 12.1831 13.4841 11.8727C13.3247 11.7899 13.2026 11.7024 13.1746 11.5134C13.1409 11.279 12.9746 11.1973 12.7733 11.3385C12.3068 11.6674 11.8427 12.001 11.3959 12.3544Z" fill="#DBB56D"/>
<path d="M31.2499 13.2382C31.1434 13.2144 31.0366 13.1915 30.9298 13.1686C30.6389 13.1063 30.3481 13.044 30.0621 12.9629C29.955 12.9324 29.8621 12.8185 29.7844 12.7234L29.7771 12.7145C29.577 12.4695 29.3095 12.3891 29.0419 12.5069C28.7892 12.6177 28.5522 12.7639 28.3152 12.9102C28.2304 12.9625 28.1456 13.0148 28.0601 13.0656C27.95 13.1309 27.8429 13.201 27.7357 13.2711C27.665 13.3173 27.5942 13.3635 27.5226 13.4085L27.5221 13.4088C27.0733 13.6886 26.6243 13.9685 26.1767 14.2459C26.1642 13.6582 26.1606 13.4906 26.0823 13.3729C26.0511 13.3259 26.0079 13.2869 25.9475 13.2324C26.002 13.2052 26.056 13.1785 26.1096 13.152C26.2678 13.0737 26.4225 12.9973 26.5745 12.9163C26.6937 12.8528 26.813 12.7895 26.9323 12.7262C27.4975 12.4262 28.0629 12.1261 28.622 11.814C28.7185 11.7604 28.7953 11.6251 28.8279 11.512C28.8919 11.2915 29.0326 11.1947 29.2164 11.3265C29.7178 11.6834 30.2076 12.0566 30.6962 12.4334C30.8392 12.5442 30.973 12.6725 31.0882 12.8125C31.1467 12.8833 31.1876 12.969 31.2284 13.0544C31.246 13.0912 31.2635 13.128 31.2825 13.1635C31.2735 13.1824 31.2652 13.2019 31.2571 13.2211L31.2499 13.2382Z" fill="#DBB56D"/>
<path d="M10.0695 9.51339C10.1411 9.46074 10.2127 9.40808 10.2846 9.35576C10.2799 9.33243 10.2753 9.3091 10.2706 9.28694L7.92887 9.12248C7.92654 9.13299 7.9245 9.14349 7.92247 9.15399C7.92043 9.16448 7.9184 9.17497 7.91607 9.18547C8.01683 9.24379 8.11747 9.30229 8.2181 9.36078C8.56825 9.56429 8.91829 9.76775 9.2725 9.96343C9.32252 9.99143 9.42722 9.97276 9.47957 9.9366C9.67947 9.80014 9.87452 9.65673 10.0695 9.51339Z" fill="#DBB56D"/>
<path d="M32.0278 9.26874L32.0295 9.2686C32.3122 9.24454 32.5948 9.22049 32.8774 9.20038C33.2753 9.17238 33.6743 9.15139 34.0943 9.17355C34.0599 9.19447 34.0256 9.21564 33.9914 9.23682C33.9226 9.27932 33.8534 9.32207 33.7837 9.3625C33.7092 9.40577 33.6348 9.44936 33.5604 9.49297C33.3138 9.63743 33.0669 9.78214 32.8158 9.91653C32.7413 9.95618 32.611 9.98184 32.5505 9.94335C32.3389 9.80768 32.1363 9.65839 31.9336 9.50901C31.8645 9.45813 31.7952 9.40704 31.7258 9.35667C31.7292 9.34615 31.7327 9.33535 31.7362 9.32454C31.738 9.31926 31.7397 9.31388 31.7414 9.30863C31.7432 9.30321 31.7449 9.29783 31.7467 9.29252C31.8404 9.28469 31.9341 9.27672 32.0278 9.26874Z" fill="#DBB56D"/>
</svg>
