<svg width="36" height="34" viewBox="0 0 36 34" fill="none" xmlns="http://www.w3.org/2000/svg">
<path d="M19.3639 0.00101978C19.6437 0.314087 19.9265 0.625114 20.2023 0.94124C20.2529 0.998347 20.2787 1.07891 20.3155 1.14825C20.2341 1.18904 20.1527 1.26552 20.0714 1.26552C18.6188 1.27266 17.1652 1.27266 15.7126 1.26552C15.6293 1.26552 15.5459 1.19414 15.4636 1.15641C15.5013 1.08095 15.5261 0.991208 15.5807 0.931042C15.8069 0.682221 16.044 0.443596 16.2712 0.195794C16.3189 0.143786 16.3407 0.0662845 16.3744 0C17.3706 0.00101976 18.3678 0.00101978 19.3639 0.00101978ZM17.5502 0.819888C17.6196 0.455834 17.5919 0.421162 17.2575 0.437478C17.1404 0.442577 17.0174 0.47011 16.9063 0.444616C16.5848 0.368134 16.429 0.570047 16.2583 0.820908C16.7068 0.819888 17.1295 0.819888 17.5502 0.819888ZM18.2259 0.818869C18.6456 0.818869 19.0673 0.818869 19.5128 0.818869C19.3441 0.565968 19.1853 0.369154 18.8649 0.443596C18.7547 0.46909 18.6317 0.442577 18.5146 0.436458C18.1822 0.421162 18.1544 0.456853 18.2259 0.818869Z" fill="#DBB56D"/>
<path d="M12.4175 25.0169C12.4324 24.7344 12.4552 24.4744 12.4522 24.2143C12.4512 24.1593 12.3649 24.0767 12.3024 24.0573C11.9799 23.9543 11.6535 23.8676 11.3281 23.7738C11.1832 23.732 11.0979 23.7677 11.1009 23.939C11.1028 24.1022 11.1009 24.2643 11.1009 24.4672C11.0016 24.4254 10.9233 24.405 10.8588 24.3612C10.0243 23.8054 9.26826 23.1558 8.66699 22.3359C8.36139 21.9188 8.3733 21.9086 8.75529 21.564C8.85352 21.4752 8.95473 21.3886 9.05692 21.3039C9.17896 21.202 9.19087 21.103 9.07181 20.9847C8.87734 20.793 8.68783 20.5962 8.49931 20.3974C8.36635 20.2577 8.23042 20.2403 8.07862 20.3647C7.90101 20.5106 7.72539 20.6615 7.53687 20.793C7.49024 20.8257 7.36324 20.8206 7.33546 20.7828C7.15686 20.5411 6.99017 20.2882 6.83241 20.0302C6.81158 19.9966 6.8463 19.8946 6.885 19.862C7.06459 19.708 7.24914 19.5581 7.44361 19.4245C7.57061 19.3368 7.58549 19.241 7.51604 19.1186C7.38804 18.8922 7.26005 18.6648 7.12511 18.4425C7.0497 18.3181 6.95048 18.2742 6.81058 18.364C6.62306 18.4843 6.42164 18.5801 6.23709 18.7046C6.11108 18.7892 6.0327 18.7708 5.97515 18.6383C5.867 18.3935 5.75687 18.1488 5.66261 17.8979C5.64772 17.8592 5.69833 17.7613 5.74298 17.7368C5.9305 17.6328 6.12497 17.5379 6.32242 17.4553C6.56055 17.3564 6.60222 17.2871 6.53872 17.0362C6.48316 16.816 6.42859 16.5957 6.37501 16.3754C6.32738 16.1776 6.24999 16.1358 6.06048 16.2112C5.91264 16.2704 5.76183 16.3234 5.61895 16.3948C5.47508 16.4662 5.38876 16.4478 5.33915 16.2796C5.30938 16.1786 5.27069 16.0695 5.20322 15.994C5.05042 15.8227 5.10102 15.7044 5.23695 15.5484C5.69932 15.0212 6.14581 14.4797 6.61214 13.928C6.76693 14.1319 6.92568 14.341 7.08443 14.5511C7.267 14.7927 7.45155 15.0324 7.62816 15.2771C7.66685 15.3312 7.69066 15.4026 7.70257 15.4699C7.95062 16.8771 8.53503 18.1284 9.3913 19.244C9.93403 19.9517 10.5899 20.536 11.3449 21.0051C12.2697 21.5793 13.2708 21.9097 14.3344 22.0535C14.4763 22.0728 14.5279 22.1248 14.52 22.2666C14.4813 22.8978 14.4475 23.529 14.4108 24.1603C14.389 24.5478 14.3652 24.9353 14.3424 25.3391C16.7108 25.3391 19.0523 25.3391 21.4257 25.3391C21.4058 24.9577 21.389 24.5855 21.3681 24.2123C21.3314 23.5739 21.2957 22.9355 21.2521 22.2982C21.2401 22.1248 21.3007 22.0698 21.4684 22.0484C22.1063 21.9688 22.7195 21.7904 23.3238 21.5568C24.5481 21.0837 25.5443 20.2974 26.3599 19.2675C27.1011 18.3323 27.6259 17.2728 27.9325 16.1042C27.9544 16.0226 27.9683 15.9379 27.9802 15.8533C28.0268 15.5168 28.1548 15.2272 28.378 14.9651C28.6549 14.6398 28.893 14.2808 29.1658 13.9127C29.2502 14.0106 29.3315 14.1024 29.4089 14.1962C29.8038 14.6714 30.1948 15.1497 30.5956 15.6208C30.6889 15.7299 30.7067 15.8074 30.6135 15.9298C30.5301 16.0399 30.4706 16.1735 30.423 16.3061C30.3743 16.4417 30.3049 16.4601 30.1858 16.406C30.034 16.3377 29.8782 16.2796 29.7244 16.2163C29.524 16.1337 29.4496 16.1745 29.398 16.3856C29.3425 16.613 29.2869 16.8404 29.2244 17.0658C29.1738 17.2494 29.2283 17.3626 29.402 17.435C29.6064 17.5196 29.8038 17.6226 30.0033 17.7174C30.1184 17.7715 30.1511 17.8357 30.0826 17.9673C29.9834 18.161 29.913 18.3691 29.8316 18.573C29.7651 18.7392 29.6838 18.8177 29.5062 18.6903C29.3365 18.5689 29.144 18.4843 28.9704 18.368C28.8215 18.2681 28.7203 18.3191 28.641 18.4506C28.506 18.6729 28.379 18.9003 28.252 19.1278C28.1875 19.243 28.2024 19.3348 28.3195 19.4174C28.512 19.554 28.7005 19.6988 28.8771 19.8559C28.9208 19.8946 28.9525 20.0149 28.9267 20.0588C28.7838 20.3005 28.6251 20.533 28.4653 20.7635C28.3919 20.8695 28.3125 20.8766 28.2074 20.7808C28.0367 20.6258 27.8512 20.4891 27.6696 20.3474C27.5297 20.2383 27.3987 20.2668 27.2807 20.3882C27.0852 20.5891 26.8907 20.791 26.6943 20.9909C26.5752 21.1122 26.605 21.2121 26.724 21.3111C26.9066 21.463 27.0822 21.6231 27.2697 21.77C27.3848 21.8597 27.368 21.9219 27.2995 22.0473C27.0088 22.5786 26.5881 22.9927 26.1555 23.3873C25.7695 23.7391 25.3389 24.0389 24.9252 24.3571C24.8627 24.405 24.7783 24.4244 24.6751 24.4703C24.6751 24.2735 24.6732 24.1124 24.6761 23.9502C24.6781 23.7901 24.6107 23.7289 24.4569 23.7728C24.1255 23.8676 23.7911 23.9553 23.4627 24.0614C23.4022 24.0807 23.3218 24.1695 23.3208 24.2266C23.3188 24.4805 23.3426 24.7344 23.3585 25.0189C23.4498 25.0189 23.544 25.0189 23.6373 25.0189C24.1284 25.0169 24.6206 24.9985 25.1107 25.0199C25.3558 25.0312 25.5294 24.9384 25.6624 24.7568C25.8281 24.5305 25.9729 24.2867 26.1257 24.0501C26.1555 24.0043 26.1843 23.9573 26.222 23.8972C26.6536 24.0675 27.0773 24.2368 27.5029 24.3999C27.6428 24.454 27.6795 24.5335 27.619 24.6773C27.5615 24.8139 27.5238 24.9588 27.4761 25.1005C27.4394 25.2106 27.4622 25.2861 27.5744 25.3412C28.5507 25.8286 29.53 26.3099 30.4974 26.8137C31.0758 27.1155 31.6354 27.4541 32.203 27.7774C32.3538 27.863 32.5066 27.9446 32.6534 28.0364C32.6981 28.0649 32.7268 28.12 32.7626 28.1628C32.7139 28.2016 32.6713 28.2638 32.6167 28.275C32.0651 28.3964 31.5124 28.5147 30.9578 28.6228C30.8496 28.6442 30.7206 28.6462 30.6204 28.6075C29.9616 28.3535 29.3107 28.0762 28.6499 27.8273C28.3006 27.6958 27.9325 27.6163 27.5793 27.4949C26.8808 27.2553 26.3073 27.447 25.8638 28.0282C25.5413 28.4504 25.1633 28.8379 24.9926 29.3672C24.9788 29.411 24.9063 29.4355 24.8617 29.4702C24.8488 29.4202 24.824 29.3702 24.826 29.3213C24.8676 28.1649 24.9788 27.0044 24.565 25.8837C24.5343 25.8001 24.5293 25.7052 24.5015 25.5574C24.3219 25.8123 24.1642 26.0336 23.9945 26.2742C24.1483 26.4231 24.2882 26.5679 24.44 26.6995C24.5531 26.7984 24.5829 26.8779 24.4549 26.9901C24.3557 27.0768 24.2713 27.1818 24.182 27.2797C23.9945 27.4847 23.9955 27.4847 23.7772 27.2899C23.5252 27.5102 23.2702 27.7335 23.0092 27.962C23.0717 28.0354 23.1214 28.0925 23.173 28.1526C22.9745 28.4463 22.7582 28.7227 22.5885 29.0276C22.2522 29.6313 21.9387 30.2472 21.6202 30.8622C21.4644 31.163 21.3185 31.4689 21.1717 31.7748C21.126 31.8697 21.0834 31.9676 21.0526 32.0685C20.9603 32.3724 20.9484 32.3826 20.6131 32.3377C20.6567 32.0981 20.7004 31.8585 20.751 31.579C20.4176 31.579 20.1031 31.5739 19.7896 31.5862C19.7528 31.5872 19.7003 31.6841 19.6874 31.7442C19.5713 32.2837 19.4572 32.8242 19.353 33.3667C19.3272 33.5023 19.2796 33.5615 19.1387 33.5553C18.8976 33.5441 18.6565 33.5523 18.3866 33.5523C18.3866 33.3432 18.3866 33.1525 18.3866 32.9629C18.3866 32.557 18.3826 32.1521 18.3876 31.7463C18.3896 31.6188 18.3499 31.5688 18.2219 31.5719C17.954 31.579 17.6851 31.5739 17.3894 31.5739C17.3894 32.2378 17.3894 32.8803 17.3894 33.5502C17.0937 33.5502 16.8259 33.5564 16.5589 33.5441C16.5143 33.5421 16.4478 33.4646 16.4359 33.4126C16.3268 32.9078 16.2206 32.401 16.1273 31.8931C16.0688 31.576 16.0787 31.5739 15.7622 31.5739C15.5281 31.5739 15.2939 31.5739 15.028 31.5739C15.0756 31.8442 15.1183 32.0848 15.1609 32.3245C14.8722 32.403 14.8236 32.3602 14.7224 32.092C14.5924 31.7493 14.4416 31.4128 14.2749 31.0865C13.9048 30.3645 13.5278 29.6456 13.1349 28.9358C12.986 28.6666 12.7856 28.427 12.6011 28.1618C12.6477 28.1027 12.6993 28.0384 12.7618 27.9589C12.5088 27.7376 12.2588 27.5173 12.0097 27.2991C11.7567 27.4725 11.7567 27.4725 11.5513 27.2349C11.4779 27.1502 11.4065 27.0635 11.3221 26.9922C11.1951 26.8841 11.2179 26.8015 11.333 26.7015C11.4838 26.569 11.6247 26.4242 11.7785 26.2763C11.6118 26.0387 11.4561 25.8164 11.2923 25.5839C11.0741 26.2773 10.8885 26.9544 10.9104 27.6713C10.9272 28.2322 10.9411 28.7931 10.952 29.3539C10.953 29.3937 10.9203 29.4345 10.9034 29.4753C10.8627 29.4437 10.7972 29.4202 10.7853 29.3804C10.6544 28.9368 10.3517 28.6075 10.0839 28.2577C9.92708 28.0527 9.7475 27.861 9.55898 27.6856C9.19087 27.345 8.74637 27.3287 8.30781 27.4714C7.36622 27.7774 6.43454 28.1129 5.4989 28.4361C5.47905 28.4433 5.45822 28.4494 5.44234 28.4616C5.09507 28.7523 4.73292 28.6034 4.36382 28.5147C3.97587 28.4208 3.57998 28.3597 3.19005 28.276C3.12754 28.2628 3.07297 28.2098 3.01443 28.1751C3.05312 28.1261 3.0819 28.0619 3.13051 28.0323C3.37956 27.8814 3.63257 27.7356 3.88756 27.5969C4.55928 27.2328 5.23001 26.8667 5.90669 26.5129C6.65778 26.1203 7.41384 25.7368 8.17188 25.3565C8.30682 25.2892 8.34254 25.2096 8.29095 25.0709C8.23737 24.9251 8.17784 24.7783 8.14807 24.6263C8.13616 24.5672 8.17982 24.4509 8.22645 24.4305C8.6402 24.2531 9.0599 24.0869 9.48159 23.9298C9.5173 23.9166 9.59966 23.9747 9.63041 24.0206C9.77131 24.2317 9.89434 24.454 10.0372 24.664C10.1989 24.9016 10.3984 25.0393 10.7139 25.021C11.2031 24.9914 11.6962 25.0169 12.1873 25.0189C12.2617 25.0169 12.3361 25.0169 12.4175 25.0169ZM13.7183 26.5139C13.7093 26.5282 13.7004 26.5424 13.6915 26.5557C13.8304 26.6546 13.9763 26.7444 14.1052 26.8545C14.3354 27.0503 14.5904 27.1094 14.8901 27.1074C16.8963 27.0962 18.9025 27.086 20.9078 27.1125C21.4197 27.1186 21.7134 26.7902 22.0667 26.5139C19.2835 26.5139 16.5004 26.5139 13.7183 26.5139ZM17.4043 28.0782C17.4043 29.101 17.4043 30.1126 17.4043 31.1365C17.6732 31.1365 17.9222 31.1253 18.1693 31.1405C18.3459 31.1507 18.3905 31.0865 18.3886 30.9111C18.3816 30.0219 18.3876 29.1326 18.3876 28.2434C18.3876 28.1894 18.3777 28.1353 18.3727 28.0782C18.0413 28.0782 17.7258 28.0782 17.4043 28.0782ZM20.9405 29.3794C20.6647 29.4059 20.4186 29.4345 20.1725 29.4518C19.9939 29.4651 19.9235 29.5518 19.9185 29.7363C19.9086 30.0902 19.8808 30.443 19.858 30.7959C19.8511 30.8999 19.8402 31.0029 19.8292 31.1354C20.1467 31.1354 20.4414 31.1426 20.7351 31.1283C20.7778 31.1263 20.8453 31.0263 20.8512 30.9672C20.8889 30.595 20.9157 30.2228 20.9395 29.8495C20.9484 29.6966 20.9405 29.5436 20.9405 29.3794ZM14.8345 29.3794C14.8345 29.5456 14.8266 29.7047 14.8365 29.8628C14.8603 30.236 14.8881 30.6082 14.9258 30.9804C14.9317 31.0355 14.9942 31.1263 15.0329 31.1283C15.3316 31.1405 15.6312 31.1354 15.9299 31.1354C15.9011 30.6123 15.8803 30.1249 15.8376 29.6395C15.8317 29.5742 15.7215 29.4794 15.6491 29.4671C15.3852 29.4223 15.1173 29.408 14.8345 29.3794Z" fill="#DBB56D"/>
<path d="M14.9665 2.81772C15.0469 2.81059 15.1004 2.80039 15.154 2.80039C15.7979 2.79937 16.4409 2.80447 17.0848 2.79631C17.2495 2.79427 17.2942 2.84832 17.2932 3.01658C17.2862 4.25355 17.2892 5.49154 17.2892 6.72851C17.2892 6.90391 17.2892 7.07931 17.2892 7.25471C17.3071 7.27306 17.324 7.29142 17.3418 7.30977C17.4281 6.96815 17.6682 7.0375 17.8746 7.0477C18.078 7.05789 18.341 6.92634 18.457 7.25879C18.466 7.08645 18.4828 6.91513 18.4828 6.74279C18.4848 5.51295 18.4888 4.2821 18.4789 3.05227C18.4769 2.83914 18.5434 2.79223 18.7368 2.79529C19.3381 2.80753 19.9414 2.80855 20.5426 2.79529C20.746 2.79121 20.8125 2.83812 20.8115 3.06349C20.8016 5.11117 20.8086 7.15987 20.8016 9.20755C20.8006 9.38601 20.8502 9.4839 21.004 9.57262C22.0438 10.1784 22.9021 10.9921 23.5113 12.0506C23.7901 12.534 23.9915 13.0673 24.1999 13.5895C24.2684 13.7608 24.3467 13.8067 24.5035 13.7791C24.953 13.7027 25.4034 13.6282 25.8529 13.5528C25.9055 13.5436 25.9581 13.5395 26.0285 13.5303C26.0484 13.6578 26.0752 13.7679 26.0811 13.8801C26.1198 14.5848 26.1287 15.2853 25.8658 15.9594C25.7477 16.2633 25.6753 16.3112 25.3677 16.197C25.1008 16.0991 24.8369 15.9951 24.5412 15.8819C24.5194 16.0369 24.5025 16.1878 24.4757 16.3357C24.4063 16.7191 24.3408 17.1046 24.2565 17.485C24.2297 17.6063 24.2525 17.6705 24.3527 17.7256C24.5105 17.8133 24.6642 17.9071 24.8468 18.0152C24.6662 18.3721 24.5065 18.7423 24.2991 19.0809C24.1046 19.397 23.8606 19.6815 23.6373 19.9783C23.547 20.0986 23.4597 20.117 23.3615 19.9773C23.3109 19.9059 23.2325 19.8549 23.1819 19.809C22.8068 20.1832 22.4566 20.5677 22.0696 20.9073C21.7769 21.1643 21.4475 21.3825 21.1161 21.5854C20.9187 21.7068 20.8264 21.8607 20.8195 22.08C20.8115 22.336 20.8056 22.5919 20.8155 22.8469C20.8215 23.0151 20.7242 23.0712 20.6012 23.062C20.5436 23.0579 20.4613 22.9662 20.4454 22.8999C20.3938 22.6868 20.369 22.4665 20.3323 22.2493C20.3194 22.1748 20.3015 22.1014 20.2886 22.0402C20.2599 22.03 20.2519 22.0239 20.247 22.026C19.7648 22.1901 19.7975 22.0831 19.9037 22.6062C20.0059 23.1069 20.113 23.6066 20.2162 24.1063C20.2271 24.1603 20.2281 24.2164 20.2351 24.2898C19.5147 24.2898 18.8073 24.2898 18.076 24.2898C18.076 23.6535 18.076 23.0243 18.076 22.3818C17.9461 22.3818 17.8389 22.3818 17.7069 22.3818C17.7069 23.0141 17.7069 23.6433 17.7069 24.2898C16.9737 24.2898 16.2663 24.2898 15.5261 24.2898C15.5697 24.0532 15.6084 23.8248 15.6551 23.5984C15.7344 23.217 15.8228 22.8367 15.9031 22.4553C15.9636 22.1687 15.9607 22.1677 15.6789 22.0749C15.6263 22.0576 15.5747 22.0382 15.4973 22.0117C15.4765 22.0973 15.4546 22.1759 15.4398 22.2554C15.4001 22.4787 15.3733 22.7061 15.3217 22.9264C15.3078 22.9845 15.2215 23.062 15.1669 23.063C15.0687 23.0651 14.9585 23.0376 14.9615 22.8836C14.9665 22.6633 14.9566 22.443 14.9615 22.2228C14.9685 21.9321 14.8891 21.7159 14.6143 21.5609C13.9227 21.1704 13.3294 20.6493 12.8233 20.0262C12.7578 19.9456 12.6904 19.8681 12.615 19.7784C12.4999 19.8906 12.4007 19.9874 12.2806 20.1057C11.6277 19.551 11.3122 18.775 10.9272 18.0162C11.085 17.9235 11.2368 17.8296 11.3926 17.746C11.5156 17.6797 11.5404 17.6022 11.5087 17.4554C11.4134 17.0046 11.344 16.5478 11.2656 16.094C11.2547 16.0318 11.2477 15.9696 11.2358 15.8819C10.9699 15.9828 10.7219 16.0807 10.4728 16.1725C10.068 16.3214 10.0402 16.3 9.88543 15.888C9.61455 15.1681 9.63638 14.4267 9.71874 13.6802C9.7237 13.6333 9.74354 13.5874 9.7614 13.5222C9.84971 13.5426 9.92809 13.565 10.0075 13.5772C10.4371 13.6466 10.8677 13.7118 11.2973 13.7822C11.4462 13.8067 11.5146 13.7516 11.5632 13.5976C11.9284 12.4514 12.5138 11.4408 13.3869 10.625C13.7074 10.3252 14.0487 10.0468 14.391 9.7725C14.514 9.67358 14.6658 9.60832 14.8097 9.54305C14.9367 9.48595 14.9675 9.39926 14.9675 9.2616C14.9625 7.48415 14.9635 5.70569 14.9625 3.92824C14.9665 3.56623 14.9665 3.20523 14.9665 2.81772ZM23.802 15.7136C23.7643 12.379 21.4644 9.71029 18.1415 9.54815C14.9189 9.39111 12.0941 11.8569 11.9829 15.5494C11.9333 17.1831 12.4989 18.6189 13.5923 19.808C14.8345 21.1602 16.3804 21.7567 18.1872 21.6996C20.9425 21.6109 23.7048 19.2716 23.802 15.7136Z" fill="#DBB56D"/>
<path d="M14.5289 7.40254C14.4237 7.50962 14.3255 7.62689 14.2104 7.72071C13.0227 8.69356 11.9393 9.78063 10.96 10.9697C10.5561 11.4602 10.2446 12.0292 9.88442 12.5585C9.84076 12.6227 9.74948 12.7022 9.68598 12.6971C8.75629 12.6227 7.8266 12.5432 6.89889 12.4463C6.44545 12.3994 5.995 12.3168 5.54553 12.2393C5.47607 12.227 5.38975 12.1689 5.35602 12.1067C5.19231 11.8028 5.0405 11.4918 4.89365 11.1787C4.87083 11.1308 4.87182 11.0237 4.89762 11.0084C4.94822 10.9778 5.0276 10.9788 5.09011 10.9921C5.98507 11.1757 6.87805 11.3694 7.77302 11.5479C8.23439 11.6397 8.69874 11.7172 9.16408 11.7753C9.26429 11.7875 9.39527 11.7131 9.47861 11.6386C9.56692 11.5591 9.61553 11.4316 9.70384 11.2878C9.49052 11.2216 9.30498 11.1583 9.11547 11.1073C7.54977 10.6892 5.98408 10.2752 4.41938 9.85507C4.34497 9.83467 4.25666 9.79083 4.21598 9.72964C3.81414 9.11676 3.42123 8.49777 3.02732 7.87979C3.01343 7.85838 3.01443 7.82778 2.99954 7.75946C3.14738 7.77986 3.27538 7.78495 3.39742 7.81555C4.1624 8.01134 4.92441 8.21427 5.68841 8.41211C6.35913 8.58547 7.03482 8.73741 7.70059 8.92811C8.51915 9.16265 9.32879 9.42983 10.1434 9.67865C10.3617 9.74494 10.5829 9.80306 10.8052 9.85405C10.8558 9.86527 10.9362 9.85099 10.9699 9.8153C11.1177 9.65826 11.2527 9.48898 11.4184 9.29318C11.0999 9.19529 10.8121 9.10453 10.5234 9.01683C9.38931 8.67623 8.25523 8.33665 7.12114 7.99707C5.62094 7.54837 4.12073 7.09967 2.61953 6.65506C2.30203 6.56124 2.07878 6.39706 1.90713 6.07787C1.50033 5.31917 1.03102 4.59718 0.602388 3.85071C0.392041 3.48462 0.214437 3.09813 0.0288959 2.71776C0.00111428 2.66065 0.00905187 2.58519 0.00012207 2.51788C0.0715605 2.51585 0.149944 2.49239 0.212453 2.51483C1.08857 2.82279 1.96369 3.13688 2.83881 3.44995C4.03937 3.87927 5.23695 4.31776 6.44149 4.73383C7.3305 5.04078 8.22943 5.32019 9.12439 5.6098C10.7516 6.13702 12.3798 6.66424 14.008 7.18941C14.1737 7.24244 14.3424 7.28425 14.5101 7.33116C14.518 7.35461 14.523 7.37807 14.5289 7.40254Z" fill="#DBB56D"/>
<path d="M24.3497 9.29218C24.5223 9.49205 24.6622 9.66439 24.815 9.82449C24.8468 9.85814 24.9311 9.86324 24.9827 9.84795C26.0245 9.53794 27.0624 9.21366 28.1082 8.91487C28.76 8.72825 29.4238 8.5814 30.0807 8.41212C30.8318 8.21939 31.5809 8.01951 32.332 7.82678C32.4689 7.79211 32.6108 7.77987 32.7507 7.75642C32.7606 7.77273 32.7705 7.79007 32.7804 7.80638C32.7239 7.89918 32.6693 7.99198 32.6108 8.08274C32.2665 8.62423 31.9252 9.16675 31.5739 9.70314C31.5293 9.77146 31.441 9.82857 31.3616 9.84999C30.1997 10.1692 29.0359 10.4802 27.872 10.7943C27.3243 10.9422 26.7766 11.09 26.2289 11.2389C26.1853 11.2511 26.1446 11.2746 26.0742 11.3052C26.1674 11.448 26.2369 11.5897 26.3401 11.6978C26.3966 11.7569 26.5177 11.7937 26.599 11.7794C27.8294 11.5509 29.0587 11.3133 30.287 11.0757C30.4369 11.0472 30.5837 11.0064 30.7335 10.9799C30.8883 10.9523 30.9518 11.0299 30.8843 11.1716C30.7325 11.4898 30.5768 11.8069 30.4091 12.1169C30.3763 12.1781 30.2851 12.2321 30.2156 12.2413C29.2016 12.379 28.1875 12.5156 27.1715 12.637C26.8153 12.6798 26.4552 12.688 26.097 12.6972C26.0315 12.6992 25.9323 12.6441 25.9025 12.587C25.4699 11.7427 24.8994 10.9993 24.2535 10.3262C23.4389 9.47675 22.5816 8.67114 21.7412 7.84921C21.6013 7.71257 21.4485 7.59121 21.3046 7.45967C21.2858 7.44335 21.2798 7.41174 21.256 7.36177C21.3255 7.32506 21.386 7.28019 21.4535 7.25775C22.0577 7.05686 22.661 6.85087 23.2682 6.66221C24.1681 6.3828 25.072 6.11868 25.9729 5.84232C26.9522 5.54149 27.9385 5.26106 28.9059 4.9225C29.9844 4.54519 31.0401 4.09853 32.1147 3.70694C33.0583 3.36226 34.0147 3.05328 34.9643 2.72695C35.1607 2.65965 35.3532 2.57909 35.5517 2.51586C35.6171 2.49547 35.6945 2.51178 35.766 2.51076C35.757 2.58317 35.767 2.66781 35.7342 2.72797C35.385 3.38062 35.0337 4.03225 34.6726 4.67878C34.366 5.22639 34.0564 5.774 33.723 6.30428C33.6397 6.43684 33.468 6.548 33.3162 6.59491C31.7793 7.06706 30.2384 7.52289 28.6985 7.98382C27.4384 8.36113 26.1783 8.74049 24.9192 9.11882C24.7416 9.17184 24.566 9.22589 24.3497 9.29218Z" fill="#DBB56D"/>
<path d="M6.88403 13.3161C7.65795 13.3161 8.40012 13.3161 9.15816 13.3161C8.8605 16.2061 9.59572 18.6698 11.8639 20.5248C11.852 20.5391 11.8411 20.5533 11.8292 20.5676C11.6238 20.435 11.4095 20.3167 11.216 20.1668C10.4976 19.6111 9.88842 18.9492 9.42208 18.1538C9.02719 17.4818 8.74739 16.7588 8.542 16.0042C8.48445 15.7931 8.45766 15.5718 8.3892 15.3658C8.35447 15.2608 8.27411 15.1343 8.18282 15.0946C7.94966 14.9926 7.78892 14.8213 7.63017 14.6326C7.30671 14.2502 7.04973 13.829 6.88403 13.3161Z" fill="#DBB56D"/>
<path d="M23.9092 20.5248C26.1783 18.6698 26.9126 16.2061 26.6149 13.3161C27.369 13.3161 28.1121 13.3161 28.9148 13.3161C28.7779 13.5986 28.6737 13.8729 28.5209 14.1146C28.3483 14.3868 28.1379 14.6346 27.9325 14.8824C27.878 14.9477 27.7847 14.9824 27.7043 15.0191C27.5148 15.1058 27.4087 15.2373 27.361 15.4586C26.983 17.2238 26.2329 18.7738 24.8389 19.9343C24.5601 20.1658 24.2555 20.3657 23.9628 20.5798C23.9439 20.5625 23.927 20.5442 23.9092 20.5248Z" fill="#DBB56D"/>
<path d="M14.3949 2.32505C14.6023 2.09662 14.7561 1.90491 14.9347 1.74175C15.0012 1.68158 15.1252 1.6673 15.2224 1.6673C16.4319 1.66323 17.6414 1.66628 18.8509 1.66628C19.4314 1.66628 20.0118 1.65813 20.5922 1.67138C20.6994 1.67444 20.8224 1.74481 20.9078 1.82027C21.0635 1.95794 21.1955 2.12212 21.3751 2.31485C21.2511 2.35564 21.1568 2.40867 21.0586 2.41683C20.7351 2.44232 20.4107 2.46476 20.0862 2.46578C18.6207 2.47088 17.1562 2.47088 15.6908 2.46578C15.3663 2.46476 15.0419 2.44232 14.7184 2.41785C14.6212 2.41071 14.5279 2.36482 14.3949 2.32505Z" fill="#DBB56D"/>
<path d="M22.0657 17.6491C21.9367 17.6246 21.7224 17.6001 21.518 17.542C21.3781 17.5022 21.3146 17.5502 21.259 17.6684C21.2173 17.7572 21.1608 17.8398 21.1072 17.9224C20.9197 18.2079 20.9187 18.2079 21.1102 18.4996C21.1985 18.6352 21.2848 18.7728 21.3741 18.9085C21.4713 19.0574 21.4485 19.1991 21.3265 19.3103C21.1102 19.5091 20.8869 19.7008 20.6587 19.8844C20.5129 20.0017 20.362 19.9864 20.2311 19.8456C20.0872 19.6917 19.9424 19.5387 19.8025 19.3816C19.7161 19.2848 19.6288 19.2715 19.5068 19.3215C19.2905 19.4122 19.0672 19.4887 18.842 19.557C18.7249 19.5927 18.6694 19.6458 18.6664 19.7773C18.6614 19.9751 18.6426 20.173 18.6188 20.3698C18.593 20.5839 18.46 20.6982 18.2556 20.7104C18.0423 20.7237 17.827 20.7328 17.6137 20.7206C17.2733 20.7002 17.1513 20.5646 17.1265 20.2158C17.1156 20.0669 17.1047 19.918 17.1066 19.7692C17.1076 19.6468 17.0511 19.5968 16.9439 19.5621C16.7137 19.4897 16.4905 19.3898 16.2573 19.3276C16.176 19.3052 16.0509 19.3276 15.9874 19.3816C15.8346 19.5122 15.7066 19.6753 15.5667 19.8222C15.3991 19.9976 15.2631 20.0078 15.0756 19.8528C14.8811 19.6927 14.6896 19.5295 14.5011 19.3623C14.3116 19.193 14.2967 19.0808 14.4307 18.8636C14.5418 18.6831 14.65 18.5006 14.773 18.3303C14.8494 18.2232 14.8414 18.1498 14.7611 18.0509C14.6728 17.9428 14.5934 17.8224 14.5329 17.696C14.4644 17.5542 14.391 17.4992 14.2273 17.5471C14.0298 17.6042 13.8215 17.6328 13.6161 17.6481C13.374 17.6654 13.2896 17.5838 13.2271 17.335C13.1716 17.1157 13.113 16.8965 13.0505 16.6793C12.9771 16.4223 13.0406 16.2775 13.2877 16.1745C13.4732 16.097 13.6607 16.0236 13.8492 15.9552C13.9554 15.9165 13.9931 15.8594 13.9891 15.735C13.9762 15.3587 13.9842 15.3577 13.6359 15.22C13.5069 15.169 13.374 15.1262 13.249 15.067C13.0396 14.9671 12.9831 14.8264 13.0456 14.6C13.1091 14.3675 13.1706 14.135 13.2321 13.9025C13.3055 13.6282 13.4672 13.5384 13.7252 13.6282C13.8036 13.6557 13.883 13.6802 13.9633 13.6985C14.3771 13.7934 14.3771 13.7923 14.6113 13.4283C14.8553 13.0489 14.8553 13.0489 14.6063 12.6747C14.2342 12.1169 14.2342 12.1169 14.7482 11.6886C14.8663 11.5897 14.9794 11.4856 15.0994 11.3888C15.2582 11.2613 15.401 11.2705 15.5419 11.4163C15.6928 11.5723 15.8307 11.7436 15.9924 11.8874C16.0509 11.9394 16.169 11.969 16.2434 11.9466C16.4746 11.8793 16.6959 11.7732 16.9261 11.6998C17.0501 11.66 17.1076 11.606 17.1096 11.4642C17.1116 11.2664 17.1324 11.0675 17.1602 10.8717C17.186 10.6861 17.2971 10.5842 17.4867 10.5842C17.7565 10.5852 18.0264 10.5842 18.2963 10.5842C18.4759 10.5842 18.588 10.6821 18.6138 10.8564C18.6446 11.0665 18.6416 11.2817 18.6753 11.4907C18.6872 11.5621 18.7537 11.6519 18.8172 11.6794C19.0514 11.7834 19.2915 11.8752 19.5365 11.9476C19.61 11.969 19.728 11.9354 19.7876 11.8823C19.9433 11.7436 20.0773 11.5774 20.2221 11.4255C20.373 11.2674 20.5139 11.2542 20.6796 11.3908C20.8849 11.5591 21.0883 11.7304 21.2838 11.9109C21.4723 12.0853 21.4803 12.1719 21.3463 12.3922C21.2362 12.5727 21.1251 12.7532 21.001 12.9245C20.9246 13.0296 20.9286 13.1071 21.01 13.206C21.0903 13.3029 21.1737 13.4069 21.2183 13.5221C21.3146 13.7679 21.4971 13.7668 21.6956 13.7261C21.8236 13.7006 21.9496 13.6598 22.0746 13.619C22.2909 13.5486 22.4606 13.6241 22.526 13.8464C22.6064 14.1176 22.6739 14.393 22.7433 14.6673C22.7949 14.8733 22.6828 14.9936 22.5181 15.0681C22.3286 15.1537 22.1351 15.2312 21.9387 15.3006C21.8246 15.3403 21.7759 15.3944 21.7809 15.53C21.7948 15.9012 21.7878 15.9022 22.1242 16.0378C22.2591 16.0919 22.4 16.1347 22.532 16.1959C22.7294 16.2877 22.79 16.4366 22.7324 16.6466C22.6689 16.8792 22.6064 17.1106 22.5459 17.3442C22.4844 17.5838 22.398 17.6521 22.0657 17.6491ZM15.407 15.6952C15.4407 17.1698 16.6512 18.2742 18.0572 18.1641C19.3917 18.06 20.3988 17.0066 20.366 15.5565C20.3363 14.2288 19.3242 12.9847 17.6057 13.1224C16.3734 13.2223 15.3703 14.3206 15.407 15.6952Z" fill="#DBB56D"/>
<path d="M17.9014 14.4286C18.5543 14.4307 19.0881 14.9405 19.0891 15.5646C19.0901 16.2795 18.5424 16.8873 17.8935 16.8893C17.2336 16.8913 16.674 16.2744 16.684 15.5565C16.6929 14.9344 17.2654 14.3756 17.9014 14.4286Z" fill="#DBB56D"/>
</svg>
