<svg width="38" height="28" viewBox="0 0 38 28" fill="none" xmlns="http://www.w3.org/2000/svg">
<path d="M20.3321 17.6448C20.4535 17.3694 20.5422 17.0737 20.7044 16.8249C20.9032 16.5189 21.1439 16.2344 21.3998 15.9744C21.6221 15.749 21.9373 15.7123 22.2452 15.7144C22.2819 15.7144 22.3339 15.7684 22.3523 15.8092C22.4961 16.1243 22.6297 16.4435 22.7755 16.7576C22.8132 16.8381 22.8877 16.9014 22.9376 16.9778C22.9611 17.0135 22.9866 17.0706 22.9733 17.1033C22.8448 17.4204 22.7265 17.7427 22.3217 17.8242C22.234 17.8416 22.1585 17.9731 22.1004 18.0659C22.0168 18.2005 21.9525 18.3484 21.8842 18.4912C21.7619 18.7471 21.8108 19.0112 21.874 19.2672C21.9475 19.568 22.1106 19.8189 22.3441 20.0279C22.5042 20.1717 22.492 20.2013 22.3125 20.3206C21.9903 20.5348 21.7812 20.8448 21.6017 21.1742C21.1765 21.9543 20.995 22.7976 20.9685 23.6807C20.9511 24.2487 21.0113 24.8025 21.202 25.3399C21.2214 25.396 21.2571 25.4459 21.2754 25.502C21.2907 25.5499 21.3142 25.6142 21.2948 25.6499C21.2734 25.6876 21.1959 25.7284 21.1612 25.7162C21.0297 25.6693 20.8981 25.6152 20.7829 25.5387C20.6748 25.4673 20.5871 25.3633 20.4637 25.2491C20.4025 25.447 20.3423 25.6203 20.2965 25.7978C20.2852 25.8436 20.3199 25.9007 20.3352 25.9528C20.3842 26.1149 20.3678 26.2658 20.2679 26.4076C20.1098 26.6309 19.9559 26.8583 19.7998 27.0837C19.7754 27.1183 19.7468 27.15 19.7111 27.1958C19.6877 27.1632 19.6652 27.1449 19.6591 27.1234C19.5734 26.7767 19.4908 26.429 19.4052 26.0812C19.3838 25.9956 19.3624 25.9089 19.3256 25.8304C19.3093 25.7957 19.2532 25.7621 19.2155 25.7621C19.1778 25.7621 19.1207 25.7978 19.1064 25.8324C19.0666 25.9283 19.0411 26.0303 19.0167 26.1312C18.932 26.4677 18.8515 26.8043 18.7678 27.1398C18.7648 27.153 18.7485 27.1642 18.7209 27.1979C18.5047 26.8736 18.2906 26.5616 18.0887 26.2403C18.055 26.1873 18.0509 26.0874 18.0785 26.0313C18.2182 25.7498 18.0448 25.5245 17.9632 25.2501C17.8531 25.3531 17.7685 25.4572 17.6614 25.5275C17.5421 25.6071 17.4085 25.6795 17.2708 25.7141C17.1525 25.7447 17.0822 25.6305 17.1352 25.5275C17.3208 25.1645 17.4126 24.7739 17.4442 24.3731C17.5268 23.3503 17.3912 22.3561 16.9588 21.4199C16.7507 20.9702 16.4917 20.5419 16.0481 20.2717C15.9655 20.2217 15.9604 20.1656 16.0216 20.0973C16.0736 20.0402 16.1246 19.9821 16.1807 19.929C16.5356 19.5894 16.6274 19.156 16.61 18.69C16.6059 18.5982 16.5417 18.5075 16.5009 18.4188C16.4489 18.3035 16.3928 18.1903 16.3377 18.0771C16.2725 17.9415 16.2011 17.8263 16.0298 17.7906C15.782 17.7406 15.4536 17.3205 15.4475 17.0686C15.4465 17.038 15.476 17.0033 15.4975 16.9748C15.5423 16.9146 15.6055 16.8636 15.6361 16.7963C15.786 16.472 15.9319 16.1457 16.0695 15.8163C16.1063 15.7296 16.1481 15.7123 16.2398 15.7103C16.9078 15.694 17.2851 16.1284 17.6002 16.6168C17.795 16.9167 17.9143 17.2654 18.0673 17.5928C18.0764 17.6121 18.0846 17.6315 18.1254 17.6499C18.1295 17.5948 18.1346 17.5397 18.1366 17.4847C18.1417 17.2807 18.1662 17.0757 18.1437 16.8748C18.1233 16.6984 18.0754 16.5138 17.9959 16.3558C17.7756 15.9224 17.5186 15.5124 17.1168 15.2136C16.9996 15.127 16.8874 15.1025 16.7477 15.1474C16.6284 15.1851 16.4978 15.23 16.3785 15.2147C16.0257 15.1698 15.734 15.2891 15.4597 15.491C15.3098 15.6012 15.266 15.5787 15.2344 15.4003C15.2129 15.281 15.1915 15.1616 15.1762 15.0413C15.1701 14.9934 15.1691 14.9383 15.1885 14.8965C15.2425 14.7741 15.6576 14.6722 15.7718 14.7466C15.9696 14.8751 16.0247 14.8567 16.1103 14.6395C16.2358 14.3203 16.2143 14.0001 16.1022 13.686C16.0512 13.5423 15.9431 13.4484 15.7891 13.3913C15.6484 13.3393 15.526 13.2394 15.3914 13.168C15.1956 13.065 15.1803 13.0783 15.1314 13.2873C15.1089 13.3811 15.0692 13.476 15.0182 13.5586C14.9407 13.683 14.8785 13.6626 14.7755 13.5606C14.3982 13.1874 14.4634 12.6806 14.3543 12.2268C14.3339 12.1411 14.3288 12.0524 14.3196 11.9647C14.3023 11.8056 14.3064 11.6424 14.4563 11.5496C14.6082 11.4558 14.7846 11.4803 14.9325 11.5609C15.1976 11.7057 15.4771 11.7699 15.7738 11.7556C15.9482 11.7475 16.094 11.8138 16.2082 11.9229C16.5407 12.2421 16.8078 12.6102 16.9659 13.0477C17.0251 13.2119 17.0577 13.3852 17.1097 13.5514C17.1352 13.631 17.177 13.7054 17.2127 13.7829C17.382 13.7248 17.3901 13.6167 17.3861 13.4841C17.3697 12.961 17.1291 12.5123 16.9384 12.0432C16.7875 11.671 16.4662 11.5619 16.1399 11.4497C16.041 11.4161 15.9778 11.3763 15.9808 11.2753C15.9971 10.8134 15.9676 10.3412 16.0563 9.89254C16.1297 9.52134 16.3918 9.20828 16.7283 9.00534C16.8435 8.936 17.0006 8.92274 17.1403 8.91357C17.2892 8.90439 17.2423 9.01962 17.2045 9.08591C17.0689 9.32351 17.0699 9.58253 17.0771 9.84155C17.0862 10.1628 17.3708 10.431 17.6889 10.4024C17.8939 10.3841 17.9775 10.2015 18.0693 10.0465C18.3497 9.57539 18.3936 9.05735 18.3926 8.52096C18.3905 7.46856 18.2987 6.43045 18.0193 5.41171C17.8531 4.80291 17.5859 4.2502 17.2117 3.74542C17.179 3.70157 17.1423 3.65976 17.1026 3.62203C16.9343 3.46192 16.92 3.3732 17.0271 3.15294C17.2249 2.74503 17.5655 2.48499 17.9581 2.29634C18.3487 2.1087 18.7423 1.91495 19.1972 1.92616C19.8722 1.94248 20.4413 2.22801 20.9685 2.61654C21.2244 2.80418 21.407 3.04994 21.4671 3.3681C21.4773 3.42215 21.461 3.50475 21.4243 3.54146C21.0205 3.94631 20.7411 4.42764 20.5585 4.96301C20.1955 6.03274 20.0334 7.1351 20.0476 8.265C20.0507 8.47405 20.0364 8.68412 20.0436 8.89317C20.0619 9.39183 20.1986 9.85379 20.5065 10.2556C20.6024 10.381 20.7166 10.4259 20.8808 10.379C21.2224 10.2831 21.358 10.123 21.3611 9.76813C21.3631 9.5295 21.3519 9.29496 21.2275 9.07979C21.2061 9.04206 21.1949 8.95946 21.2132 8.94518C21.2499 8.91764 21.3152 8.91153 21.3631 8.91968C21.9342 9.02268 22.3961 9.56723 22.4196 10.1567C22.4329 10.4983 22.4512 10.8389 22.4624 11.1805C22.4675 11.3314 22.4165 11.4048 22.2442 11.464C21.9474 11.566 21.6425 11.6792 21.5018 12.032C21.3091 12.5123 21.0572 12.9692 21.0501 13.5055C21.048 13.6687 21.0439 13.6769 21.2112 13.789C21.2499 13.7136 21.3121 13.6432 21.3223 13.5657C21.4039 12.961 21.7241 12.4817 22.1106 12.0361C22.2717 11.8505 22.4655 11.7618 22.7296 11.7505C22.9856 11.7393 23.2364 11.6282 23.4903 11.566C23.6005 11.5384 23.7147 11.5017 23.8258 11.5058C24.0237 11.5119 24.1338 11.6363 24.1144 11.8495C24.0869 12.1564 24.0298 12.4603 23.986 12.7652C23.9768 12.8305 23.9615 12.8957 23.9574 12.961C23.9492 13.118 23.9309 13.2669 23.7881 13.3709C23.7463 13.4015 23.7218 13.4576 23.6923 13.5035C23.5678 13.6952 23.4883 13.6962 23.3823 13.4984C23.3415 13.4219 23.3098 13.3373 23.2935 13.2526C23.268 13.118 23.2252 13.063 23.0855 13.1435C22.907 13.2476 22.7174 13.3312 22.5389 13.4352C22.3288 13.5565 22.2911 13.7778 22.2554 13.9889C22.2156 14.2265 22.2432 14.4611 22.3441 14.6844C22.4145 14.8404 22.4818 14.8618 22.6236 14.7752C22.6827 14.7395 22.7592 14.6783 22.8102 14.6926C22.955 14.7333 23.0947 14.8006 23.2283 14.8741C23.2578 14.8904 23.264 14.975 23.2589 15.026C23.2436 15.1627 23.214 15.2973 23.1936 15.4339C23.1722 15.5757 23.1018 15.5746 22.9978 15.5124C22.8479 15.4227 22.698 15.3309 22.5409 15.2565C22.4706 15.2228 22.3829 15.2238 22.3023 15.2147C22.0861 15.1882 21.8699 15.1555 21.6527 15.1412C21.5548 15.1351 21.4294 15.1372 21.359 15.1902C20.8288 15.592 20.4555 16.1172 20.3046 16.7637C20.2393 17.0421 20.2934 17.349 20.2934 17.6427C20.3056 17.6448 20.3189 17.6448 20.3321 17.6448ZM19.3725 13.0507C19.3725 11.4181 19.3725 9.78648 19.3725 8.15384C19.3725 7.87851 19.3715 7.60215 19.3715 7.32682C19.3715 7.21464 19.3093 7.16774 19.2063 7.16468C19.0962 7.16162 19.0656 7.23096 19.0656 7.3258C19.0656 7.35843 19.0656 7.39208 19.0656 7.42472C19.0656 9.25009 19.0656 11.0755 19.0656 12.9008C19.0656 14.8251 19.0656 16.7494 19.0636 18.6747C19.0636 18.741 19.0503 18.8144 19.0197 18.8705C18.9738 18.9541 18.8841 19.0163 18.8515 19.103C18.7046 19.4915 18.5639 19.8831 18.4384 20.2798C18.417 20.3471 18.467 20.446 18.5037 20.5205C18.5598 20.6347 18.6628 20.7326 18.6913 20.8509C18.7984 21.2833 18.8933 21.7197 18.9738 22.1572C19.0615 22.6396 19.1309 23.125 19.0778 23.6175C19.0687 23.7042 19.0595 23.798 19.0809 23.8796C19.0972 23.9428 19.1635 23.9928 19.2073 24.0489C19.2573 23.9928 19.3093 23.9387 19.3542 23.8786C19.3675 23.8602 19.3583 23.8255 19.3573 23.798C19.3389 23.3248 19.3185 22.8537 19.4276 22.3836C19.5479 21.8645 19.6356 21.3373 19.7448 20.8152C19.7621 20.7316 19.7988 20.6408 19.8539 20.5786C20.0313 20.3798 20.0334 20.3645 19.9385 20.1187C19.8427 19.8689 19.7682 19.6098 19.6754 19.358C19.6224 19.2152 19.5806 19.05 19.4806 18.947C19.3685 18.8328 19.3736 18.7186 19.3736 18.5901C19.3726 16.7453 19.3725 14.8985 19.3725 13.0507Z" fill="#DBB56D"/>
<path d="M37.6926 15.8572C37.5774 15.9755 37.248 16.0112 37.0838 15.9153C36.89 15.8021 36.6912 15.6879 36.5199 15.5441C35.7418 14.8956 35.0871 14.143 34.514 13.3027C34.1275 12.7357 33.8307 12.133 33.5901 11.5059C33.3576 10.8971 33.1557 10.2689 33.1006 9.60913C33.0537 9.04419 32.9986 8.48026 32.9507 7.91531C32.916 7.51557 32.865 7.11582 32.861 6.71505C32.8548 6.1552 32.8242 5.59434 32.9293 5.03449C32.9782 4.77139 32.917 4.49707 32.7243 4.28088C32.3052 3.81179 31.7861 3.64557 31.162 3.73225C30.6369 3.80465 30.3248 4.16463 30.0393 4.53684C29.7701 4.88866 29.5457 5.28025 29.3397 5.6749C29.1429 6.05119 29.1694 6.46521 29.252 6.8721C29.2714 6.96693 29.2938 7.04648 29.2133 7.12908C28.8859 7.46152 28.5729 7.80824 28.2363 8.1315C27.8295 8.52309 27.3267 8.77905 26.8117 8.98402C26.312 9.18288 25.7716 9.23386 25.2331 9.16044C24.7396 9.09314 24.3449 8.82392 23.9911 8.48944C23.2579 7.79498 22.9876 6.94552 23.1426 5.95431C23.1559 5.86763 23.1763 5.77993 23.1773 5.69223C23.1906 4.93455 23.7045 4.5297 24.2511 4.13812C24.4632 3.98617 24.6529 3.79955 24.8395 3.616C25.3025 3.16118 25.8358 2.79509 26.3457 2.3984C26.7903 2.05168 27.2125 1.67437 27.6673 1.34295C28.0344 1.07577 28.4331 0.849385 28.8247 0.6179C29.1174 0.44454 29.4152 0.27628 29.7242 0.137592C29.8843 0.0651891 30.0739 0.0427544 30.2524 0.0284777C30.4941 0.010122 30.7378 0.0305172 30.9795 0.0172603C31.468 -0.00925351 31.9472 0.0539718 32.4235 0.14881C32.812 0.226311 33.1995 0.302794 33.585 0.392532C33.7277 0.426185 33.8726 0.478192 33.998 0.552635C34.5425 0.87284 35.0514 1.22058 35.3247 1.83651C35.5388 2.3209 35.6826 2.81753 35.7346 3.3376C35.7968 3.94946 35.8336 4.5654 35.8662 5.17929C35.8733 5.31594 35.8162 5.45769 35.7826 5.59536C35.7112 5.88803 35.6286 6.17866 35.5623 6.47235C35.4807 6.8364 35.4002 7.20148 35.34 7.56961C35.3043 7.7909 35.3002 8.01933 35.2951 8.24469C35.2829 8.78415 35.2951 9.32462 35.2676 9.86204C35.2329 10.5463 35.2992 11.2122 35.5011 11.8679C35.652 12.3564 35.7836 12.851 35.9325 13.3394C36.166 14.1032 36.5698 14.7701 37.1123 15.3524C37.25 15.5003 37.4162 15.6216 37.5702 15.7542C37.613 15.7869 37.6528 15.8215 37.6926 15.8572Z" fill="#DBB56D"/>
<path d="M0.741516 15.8582C0.842473 15.7674 0.941389 15.6746 1.04439 15.5859C1.69703 15.024 2.16102 14.3346 2.41698 13.5147C2.64847 12.7754 2.88302 12.0351 3.06453 11.2825C3.15835 10.8919 3.16243 10.4738 3.16651 10.0679C3.17263 9.51218 3.1247 8.95641 3.1298 8.40064C3.13592 7.80102 3.0472 7.21873 2.89627 6.64053C2.83101 6.39069 2.79226 6.13371 2.73719 5.88081C2.72087 5.80636 2.68518 5.73702 2.66785 5.66258C2.62808 5.4984 2.56689 5.33421 2.56077 5.16799C2.53426 4.51127 2.62604 3.86168 2.70864 3.21107C2.78206 2.63695 2.94114 2.09137 3.23075 1.59067C3.37658 1.33879 3.5581 1.10832 3.81712 0.9523C4.05676 0.807494 4.27499 0.6117 4.53095 0.513803C4.91948 0.365937 5.33044 0.276198 5.73529 0.179321C5.94842 0.128333 6.17277 0.123234 6.38896 0.0834635C7.06302 -0.0419672 7.74116 -0.00627583 8.41318 0.0620482C8.68954 0.0906015 8.96079 0.249684 9.21675 0.383273C9.56245 0.562751 9.89795 0.763644 10.2243 0.977794C10.5159 1.16951 10.7902 1.38876 11.0697 1.59985C11.6989 2.0771 12.3321 2.54823 12.9491 3.04077C13.256 3.28551 13.5273 3.57615 13.823 3.83517C14.0361 4.02178 14.2697 4.18698 14.4848 4.37156C14.6643 4.52554 14.8397 4.68667 14.9998 4.86003C15.0702 4.93651 15.1161 5.04766 15.1416 5.15066C15.2711 5.67176 15.3496 6.20407 15.3068 6.73945C15.2833 7.02396 15.2068 7.31561 15.0926 7.57769C14.8418 8.15487 14.4114 8.59643 13.8781 8.91765C13.6548 9.05226 13.3774 9.13385 13.1163 9.16036C12.3505 9.23888 11.6234 9.08898 10.9718 8.65762C10.6699 8.45774 10.3762 8.24461 10.0836 8.03148C10.0091 7.97744 9.95506 7.89586 9.89082 7.82855C9.68992 7.61848 9.49311 7.40433 9.2861 7.20038C9.18412 7.10044 9.14231 7.01274 9.17596 6.8557C9.2759 6.38763 9.26876 5.9267 8.99648 5.50146C8.85168 5.27405 8.74562 5.01911 8.58246 4.807C8.35098 4.50821 8.11745 4.1931 7.82172 3.96671C7.36895 3.61796 6.83765 3.63223 6.31451 3.83415C6.21764 3.87188 6.12892 3.93102 6.03816 3.98405C5.62311 4.22675 5.41916 4.69075 5.514 5.16493C5.56703 5.42701 5.57825 5.70133 5.58028 5.97055C5.58334 6.39987 5.58538 6.83122 5.54765 7.2585C5.45587 8.28846 5.42732 9.3276 5.20501 10.3433C5.1683 10.5095 5.11119 10.6716 5.05817 10.8328C4.96333 11.1193 4.88481 11.414 4.76346 11.6894C4.53095 12.2156 4.30354 12.7397 3.9711 13.2231C3.63254 13.7146 3.28276 14.1959 2.88098 14.6314C2.43432 15.1158 1.97339 15.5951 1.37479 15.903C1.16676 16.0101 0.956686 15.9764 0.749674 15.9163C0.746615 15.8949 0.743556 15.8765 0.741516 15.8582Z" fill="#DBB56D"/>
<path d="M31.0244 13.3505C30.2973 13.9002 29.5783 14.458 28.8441 14.9944C28.3159 15.3799 27.7652 15.7347 27.2288 16.1069C26.4507 16.6474 25.6359 17.1267 24.7844 17.5366C24.2256 17.8059 23.6474 18.0333 23.0774 18.276C23.0376 18.2923 22.9866 18.2821 22.9417 18.2841C22.9499 18.2342 22.9468 18.1791 22.9672 18.1342C23.109 17.8191 23.3058 17.5183 23.3884 17.1889C23.5821 16.42 24.0196 15.8061 24.5387 15.2412C25.0353 14.6997 25.5309 14.1551 26.0653 13.6514C26.5731 13.1731 27.1431 12.7682 27.7774 12.4633C28.0721 12.3216 28.3842 12.2726 28.7054 12.2543C28.9175 12.2431 29.0236 12.4154 29.15 12.5347C29.662 13.012 30.2748 13.2506 30.9581 13.3352C30.9825 13.3403 31.0091 13.3475 31.0244 13.3505Z" fill="#DBB56D"/>
<path d="M7.4352 13.3831C7.74317 13.2903 8.08173 13.1996 8.41315 13.0854C8.82616 12.9426 9.15248 12.6662 9.47269 12.3766C9.55121 12.3052 9.68582 12.2655 9.79493 12.2655C10.2773 12.2675 10.7025 12.4551 11.1053 12.707C11.9324 13.223 12.6594 13.8522 13.2958 14.5905C13.564 14.9015 13.876 15.1789 14.1238 15.5042C14.4155 15.8877 14.6663 16.3047 14.9192 16.7157C14.9763 16.8075 14.9519 16.9462 14.9947 17.0502C15.1395 17.4061 15.2976 17.7548 15.4485 18.1087C15.4719 18.1638 15.4781 18.226 15.4923 18.2851C15.4373 18.278 15.3761 18.2831 15.3271 18.2606C14.9264 18.0791 14.5307 17.8874 14.1279 17.7079C13.8475 17.5835 13.5436 17.503 13.2784 17.3531C12.6482 16.9972 12.0282 16.6209 11.4153 16.2334C11.0441 15.9988 10.6995 15.7225 10.3354 15.4757C10.004 15.2503 9.65013 15.0555 9.32788 14.8189C8.87205 14.4834 8.43865 14.1174 7.98995 13.7706C7.80028 13.6258 7.59939 13.4973 7.4352 13.3831Z" fill="#DBB56D"/>
<path d="M22.5981 2.51865C22.7449 3.156 22.9438 3.74644 23.2956 4.27468C23.368 4.38277 23.3782 4.43682 23.2854 4.55205C23.1263 4.74989 22.9988 4.97831 22.8815 5.20674C22.6113 5.73498 22.4798 6.30298 22.4706 6.89241C22.4624 7.40229 22.6042 7.88157 22.8632 8.32415C22.9968 8.55156 23.1039 8.79936 23.266 9.00331C23.4659 9.25417 23.6943 9.48974 23.9401 9.69573C24.2338 9.94251 24.6019 9.91906 24.9649 9.90988C25.2107 9.90376 25.4218 9.81504 25.64 9.72938C25.7094 9.70185 25.7848 9.68859 25.8817 9.69981C25.8052 9.79362 25.742 9.90274 25.6502 9.97922C25.3127 10.2607 24.9751 10.5411 24.6192 10.7981C24.504 10.8817 24.3357 10.9092 24.1879 10.9276C23.9809 10.9531 23.8248 10.8368 23.6861 10.69C23.3904 10.3749 23.0743 10.0781 22.7939 9.74978C22.2687 9.13486 21.7792 8.49445 21.5579 7.69292C21.51 7.51956 21.4253 7.3564 21.3478 7.1657C21.2999 7.19222 21.2561 7.20751 21.2234 7.23606C21.1204 7.32784 21.0286 7.43288 20.9205 7.51548C20.8033 7.6042 20.7992 7.6919 20.8655 7.81325C20.9919 8.04474 21.1082 8.28132 21.2255 8.51688C21.2408 8.54748 21.2397 8.58725 21.252 8.65863C21.1836 8.63212 21.1439 8.60968 21.101 8.60153C21.0327 8.58827 20.9379 8.55462 20.9002 8.58521C20.8471 8.62804 20.7992 8.73205 20.8145 8.79222C20.8532 8.94416 20.945 9.08183 20.9879 9.23276C21.0409 9.42141 21.0725 9.61619 21.098 9.80994C21.1153 9.93537 21.0368 10.0363 20.9205 10.0486C20.8604 10.0547 20.7798 9.9731 20.7248 9.91498C20.3362 9.50503 20.3729 8.9717 20.3801 8.48017C20.3923 7.62969 20.4076 6.77309 20.5799 5.93179C20.7441 5.12924 21.0919 4.41642 21.6415 3.80559C21.6966 3.7444 21.7649 3.69647 21.8251 3.63937C22.1198 3.35893 22.3594 3.03975 22.5134 2.65938C22.5359 2.61247 22.5685 2.56964 22.5981 2.51865Z" fill="#DBB56D"/>
<path d="M12.5728 9.66514C12.686 9.70083 12.8135 9.71511 12.9103 9.77527C13.0898 9.88643 13.2826 9.9058 13.4794 9.90172C13.7088 9.89764 13.9423 9.89459 14.1657 9.85074C14.4899 9.78649 14.7123 9.54379 14.9142 9.30822C15.4241 8.71166 15.7993 8.03964 15.938 7.25442C15.9533 7.16774 15.9645 7.08004 15.9635 6.99234C15.9574 6.18571 15.7208 5.44435 15.3088 4.75601C15.2609 4.67647 15.2048 4.59591 15.1344 4.5388C15.0345 4.45824 15.0478 4.38686 15.113 4.29916C15.4597 3.84128 15.5954 3.29061 15.784 2.76442C15.8085 2.69507 15.7983 2.61247 15.8075 2.48092C15.887 2.62063 15.9574 2.71649 15.9992 2.82254C16.142 3.18252 16.4193 3.43542 16.6712 3.71381C17.122 4.21248 17.5605 4.72134 17.692 5.41681C17.7379 5.6585 17.845 5.88998 17.8776 6.13269C17.9388 6.58444 17.9724 7.04129 18.0061 7.49713C18.0326 7.84792 18.0591 8.20076 18.053 8.55156C18.0479 8.84219 17.9918 9.1318 17.9633 9.42142C17.9388 9.6682 17.7634 9.82932 17.6329 10.0149C17.6104 10.0475 17.5156 10.07 17.4891 10.0496C17.4238 10.0006 17.3351 9.92518 17.3341 9.85889C17.331 9.68044 17.3514 9.49688 17.3963 9.32352C17.4309 9.18891 17.5258 9.07062 17.5757 8.93703C17.6053 8.85851 17.6196 8.76367 17.6053 8.68107C17.5839 8.55564 17.4626 8.51587 17.3514 8.57909C17.3065 8.60459 17.2596 8.62906 17.1678 8.67903C17.1923 8.58215 17.1954 8.53014 17.2168 8.48629C17.3361 8.24563 17.4615 8.00701 17.5819 7.76736C17.6216 7.68782 17.6257 7.6195 17.5411 7.55015C17.3912 7.42778 17.2525 7.29012 17.0801 7.13205C16.9741 7.42166 16.8813 7.67151 16.7926 7.92339C16.6131 8.43225 16.3276 8.87992 15.9941 9.29803C15.7483 9.60701 15.5036 9.91804 15.2374 10.2107C15.0355 10.433 14.8132 10.639 14.5797 10.8277C14.4186 10.9582 14.2014 10.9867 14.0147 10.9001C13.4284 10.6268 12.9787 10.1781 12.5391 9.72021C12.5534 9.70287 12.5636 9.68349 12.5728 9.66514Z" fill="#DBB56D"/>
<path d="M24.0767 14.7692C24.0635 14.66 24.0206 14.5448 24.0421 14.4428C24.2266 13.5485 24.5061 12.6899 24.9976 11.9087C25.4973 11.1153 26.1193 10.428 26.8026 9.79374C26.9372 9.66831 27.1126 9.58774 27.2665 9.48169C27.443 9.36034 27.6112 9.22777 27.7897 9.10948C27.8753 9.05237 27.9753 9.01668 28.0885 8.96161C28.0885 9.15944 28.0977 9.31343 28.0864 9.46537C28.0467 10.0242 28.2476 10.4749 28.6738 10.8349C28.8472 10.9807 28.8502 11.0644 28.7472 11.2653C28.6187 11.5151 28.4342 11.664 28.1466 11.7231C27.6469 11.8261 27.1982 12.0566 26.775 12.3401C26.5374 12.4992 26.2906 12.645 26.052 12.802C25.6339 13.0774 25.3147 13.4557 24.9894 13.8269C24.7477 14.1022 24.506 14.3786 24.2674 14.656C24.2287 14.7008 24.2022 14.7559 24.1695 14.8059C24.1389 14.7946 24.1083 14.7824 24.0767 14.7692Z" fill="#DBB56D"/>
<path d="M14.2849 14.7915C14.1575 14.6446 14.0371 14.4988 13.9087 14.3601C13.4885 13.9073 13.0796 13.4423 12.638 13.011C12.4371 12.8141 12.172 12.6836 11.9344 12.5235C11.8885 12.4929 11.8345 12.4736 11.7937 12.4379C11.4449 12.1258 10.9942 12.0004 10.5893 11.7934C10.4517 11.723 10.2803 11.723 10.1264 11.6802C9.84082 11.6017 9.69908 11.3753 9.62463 11.1183C9.6022 11.0398 9.69704 10.9133 9.76128 10.8266C9.87243 10.6777 10.0121 10.5513 10.1213 10.4014C10.3895 10.0343 10.3436 9.60802 10.3313 9.18992C10.3303 9.14607 10.3252 9.10222 10.3252 9.05837C10.3252 9.04307 10.3323 9.02778 10.3476 8.96863C10.4486 9.01656 10.5496 9.04919 10.6342 9.10528C10.9116 9.29189 11.19 9.47953 11.4551 9.68348C11.6672 9.84664 11.8742 10.022 12.0588 10.2148C12.3749 10.5442 12.7084 10.8664 12.9715 11.2356C13.4334 11.8841 13.8842 12.546 14.08 13.3403C14.1666 13.6922 14.2778 14.0379 14.3788 14.3866C14.4206 14.5284 14.4155 14.6569 14.2849 14.7915Z" fill="#DBB56D"/>
<path d="M11.3582 19.9984C11.3236 19.8067 11.2746 19.6251 11.2603 19.4406C11.2124 18.8175 10.832 18.4279 10.3517 18.1006C10.1223 17.9446 9.87143 17.8966 9.60119 17.9017C9.44721 17.9048 9.43293 17.8558 9.49513 17.7223C9.69807 17.2909 9.8908 16.8544 10.0886 16.42C10.0999 16.3966 10.1121 16.3731 10.1376 16.3242C10.1947 16.3731 10.2498 16.4068 10.2865 16.4547C10.4935 16.7219 10.7433 16.9207 11.0676 17.039C11.2665 17.1114 11.4378 17.2542 11.6275 17.3541C12.3097 17.7121 12.995 18.0659 13.6782 18.4218C13.7241 18.4453 13.7618 18.484 13.8036 18.5156C13.7618 18.5513 13.7241 18.5962 13.6762 18.6227C12.9042 19.0469 12.0884 19.3987 11.4143 19.9851C11.4072 19.9892 11.3939 19.9892 11.3582 19.9984Z" fill="#DBB56D"/>
<path d="M27.0697 20.0025C26.7995 19.8159 26.5578 19.6272 26.2947 19.4722C25.8613 19.2163 25.4146 18.9828 24.9731 18.74C24.9058 18.7033 24.8354 18.6717 24.7712 18.6309C24.7202 18.5983 24.6743 18.5555 24.6274 18.5167C24.6784 18.48 24.7253 18.4362 24.7804 18.4076C25.4299 18.069 26.0806 17.7346 26.7301 17.396C27.032 17.239 27.343 17.0952 27.6286 16.9116C27.8182 16.7892 27.9702 16.6067 28.1405 16.4537C28.1833 16.415 28.2333 16.3844 28.2802 16.3497C28.3077 16.3987 28.3383 16.4466 28.3618 16.4976C28.5525 16.9055 28.738 17.3154 28.9328 17.7203C28.9971 17.8539 28.9838 17.8947 28.8308 17.9038C27.9855 17.9528 27.3624 18.4922 27.1941 19.3244C27.1503 19.5446 27.1126 19.7669 27.0697 20.0025Z" fill="#DBB56D"/>
<path d="M15.7789 11.3947C15.6331 11.3253 15.4944 11.2662 15.3649 11.1928C15.3374 11.1775 15.3149 11.0867 15.3323 11.0663C15.4587 10.9215 15.5954 10.7869 15.7289 10.6482C15.7453 10.6584 15.7626 10.6686 15.7789 10.6798C15.7789 10.9052 15.7789 11.1316 15.7789 11.3947Z" fill="#DBB56D"/>
<path d="M22.645 11.3957C22.645 11.1356 22.645 10.9103 22.645 10.6502C22.8499 10.7675 22.9896 10.9052 23.0998 11.0714C23.1161 11.0959 23.0906 11.1815 23.061 11.1968C22.9305 11.2702 22.7918 11.3273 22.645 11.3957Z" fill="#DBB56D"/>
</svg>
