<svg width="19" height="19" viewBox="0 0 19 19" fill="none" xmlns="http://www.w3.org/2000/svg">
<path fill-rule="evenodd" clip-rule="evenodd" d="M9.5 17C13.6421 17 17 13.6421 17 9.5C17 5.35786 13.6421 2 9.5 2C5.35786 2 2 5.35786 2 9.5C2 13.6421 5.35786 17 9.5 17ZM9.5 19C14.7467 19 19 14.7467 19 9.5C19 4.25329 14.7467 0 9.5 0C4.25329 0 0 4.25329 0 9.5C0 14.7467 4.25329 19 9.5 19Z" fill="white"/>
<path d="M9.65476 10.8438H8.34524L8.22619 9.29863L9.60714 8.56438H10.3333V7.31507H8.66667V8.30137H7V6.73425L8.38095 6H10.619L12 6.73425V9.14521L10.619 9.87945H9.7619L9.65476 10.8438ZM7.86905 11.9178H10.131V14H7.86905V11.9178Z" fill="white"/>
</svg>
