<svg width="30" height="30" viewBox="0 0 30 30" fill="none" xmlns="http://www.w3.org/2000/svg">
<path d="M13.0523 5.42115C13.1056 5.45532 13.1608 5.4907 13.2191 5.52733C13.2224 5.50163 13.2261 5.47797 13.2296 5.45568C13.2365 5.41114 13.2426 5.37208 13.2431 5.33342C13.2464 4.82131 13.2489 4.31003 13.2464 3.79791C13.2464 3.6993 13.2265 3.59986 13.2058 3.50291C13.1868 3.41259 13.1254 3.36287 13.031 3.39021C12.8437 3.4449 12.6564 3.50125 12.4733 3.56672C12.3771 3.60069 12.3539 3.66864 12.4194 3.76311C12.429 3.77668 12.4404 3.79051 12.452 3.80465C12.503 3.86652 12.559 3.93445 12.4882 4.01336C12.42 4.08901 12.344 4.0463 12.2739 4.00683C12.258 3.9979 12.2423 3.98906 12.2272 3.98188C11.9279 3.84076 11.6303 3.69656 11.3329 3.55252L11.3311 3.55162C11.2519 3.51326 11.1727 3.4749 11.0935 3.43662C11.0788 3.42895 11.0653 3.41833 11.0518 3.40777C11.0464 3.4035 11.041 3.39924 11.0355 3.39518C11.217 3.10847 13.0906 2.59055 13.7055 2.6585L13.7055 2.68332L13.7053 2.70586C13.7052 2.73808 13.705 2.7708 13.7055 2.80352C13.7095 3.00188 13.7132 3.20023 13.7169 3.39859C13.7281 3.99402 13.7393 4.58966 13.7561 5.18509C13.7635 5.46352 13.8837 5.71129 14.042 5.93171C14.2061 6.1596 14.4679 6.22506 14.7298 6.25986C14.8528 6.27632 14.9802 6.26992 15.1061 6.2636C15.126 6.2626 15.1459 6.2616 15.1657 6.26069C15.6596 6.23915 15.9388 6.06264 16.1162 5.65328C16.2372 5.37485 16.272 5.08234 16.2778 4.78899C16.2874 4.33371 16.287 3.87805 16.2865 3.42253C16.2863 3.21235 16.2861 3.00198 16.2869 2.79192C16.2869 2.75969 16.2896 2.72746 16.2926 2.69127C16.294 2.67443 16.2955 2.65674 16.2968 2.63779C16.4489 2.66074 16.6005 2.67671 16.751 2.69256C17.0948 2.72878 17.4329 2.7644 17.7586 2.88141C17.9084 2.93498 18.059 2.98563 18.2096 3.03626C18.3897 3.09683 18.5698 3.15737 18.7481 3.22282C18.803 3.24314 18.8517 3.27948 18.907 3.32073C18.9352 3.34172 18.9651 3.36399 18.9983 3.38607C18.9672 3.40126 18.9437 3.41314 18.9243 3.42296C18.9002 3.4351 18.8824 3.44412 18.8641 3.45236C18.8011 3.48076 18.7379 3.50862 18.6747 3.53648C18.5443 3.59398 18.4141 3.65143 18.2857 3.71339C18.1934 3.75803 18.1025 3.80567 18.0116 3.85332C17.8999 3.91182 17.7883 3.97034 17.6741 4.02331C17.6422 4.03813 17.5997 4.0306 17.5574 4.02311C17.5382 4.01971 17.519 4.01632 17.5009 4.01502C17.5025 3.99853 17.5038 3.98198 17.505 3.96545C17.5082 3.92384 17.5113 3.8824 17.5208 3.84266C17.5276 3.81462 17.5497 3.78935 17.5699 3.76622L17.5755 3.75979C17.6525 3.66864 17.6169 3.60484 17.5233 3.56589C17.4048 3.517 17.2838 3.46976 17.1603 3.43579C16.8247 3.34464 16.7534 3.40347 16.7485 3.75979C16.7479 3.77637 16.7481 3.79294 16.7483 3.80951L16.7484 3.82454L16.7485 3.83437C16.7487 3.92292 16.7491 4.01155 16.7495 4.10022C16.7502 4.27792 16.7509 4.45575 16.7509 4.6332C16.7512 4.71899 16.751 4.80468 16.7508 4.8903V4.89783C16.7503 5.05533 16.7499 5.2126 16.7526 5.36988C16.7532 5.40101 16.7666 5.43214 16.78 5.46327C16.7859 5.47689 16.7917 5.49051 16.7965 5.50412C16.8085 5.49786 16.8207 5.492 16.833 5.48611C16.8564 5.47487 16.88 5.46358 16.9018 5.44943C16.9709 5.40529 17.0395 5.35993 17.1081 5.31455L17.1084 5.31434C17.2445 5.22435 17.3807 5.13427 17.5216 5.05333C17.7669 4.91246 18.0151 4.77748 18.2634 4.6425C18.3875 4.57501 18.5116 4.50752 18.6354 4.4393C18.7282 4.38833 18.8198 4.3346 18.9113 4.28086C19.1027 4.16859 19.2941 4.05631 19.4964 3.96945C19.7914 3.84294 20.0945 3.73508 20.3976 3.62725C20.5372 3.57757 20.6769 3.52788 20.8156 3.47639C20.8392 3.46784 20.8616 3.45687 20.89 3.44305C20.9056 3.43544 20.923 3.42697 20.9432 3.41756C20.9091 3.39482 20.8779 3.37287 20.8482 3.35204C20.787 3.30911 20.7325 3.27091 20.6739 3.24022L20.6635 3.23478C20.4871 3.14294 20.3098 3.0506 20.1262 2.97422C20.0555 2.94488 19.9848 2.91527 19.9141 2.88565C19.5756 2.74376 19.2364 2.6016 18.8881 2.4878C18.5726 2.38485 18.2475 2.31012 17.9227 2.23544L17.9219 2.23526C17.8417 2.21683 17.7616 2.19839 17.6815 2.17954C17.0484 2.03038 16.4062 1.94669 15.7549 1.93591C15.4334 1.93094 15.4333 1.93508 15.4308 2.25154C15.4307 2.26504 15.4303 2.27866 15.4299 2.29215C15.4271 2.38381 15.4243 2.47365 15.5203 2.54083C15.5543 2.56487 15.5734 2.62784 15.5759 2.67425C15.585 2.8607 15.5875 3.04715 15.5891 3.2336C15.5949 3.77885 15.5999 4.32328 15.6024 4.86854C15.604 5.1536 15.4366 5.34502 15.1499 5.37568C15.0645 5.38471 14.9767 5.37627 14.89 5.36794C14.8733 5.36633 14.8566 5.36473 14.84 5.36325C14.5607 5.33922 14.3917 5.1594 14.3908 4.88512L14.3901 4.59838C14.3884 4.0245 14.3868 3.45032 14.3925 2.87644C14.3933 2.76457 14.4174 2.63447 14.4795 2.54829C14.5491 2.45134 14.5732 2.36433 14.5649 2.25412C14.5599 2.19197 14.5582 2.12816 14.5665 2.06684C14.5806 1.96657 14.5425 1.92928 14.4439 1.93508C14.3462 1.94041 14.2482 1.94416 14.1503 1.9479C13.9741 1.95463 13.7979 1.96137 13.6227 1.97735C12.6713 2.0627 11.7424 2.25992 10.8482 2.59635C10.401 2.76455 9.96149 2.9546 9.5226 3.1444L9.41212 3.19216C9.3308 3.22725 9.25585 3.27731 9.17241 3.33304C9.13171 3.36022 9.08899 3.38876 9.04252 3.41756C9.06698 3.42792 9.08685 3.43648 9.10374 3.44376C9.13551 3.45745 9.15679 3.46662 9.17843 3.47474C9.32908 3.53209 9.48045 3.58756 9.63174 3.64301C9.97225 3.76781 10.3125 3.8925 10.6435 4.03822C10.8801 4.14265 11.1041 4.27648 11.3278 4.4101C11.4182 4.46416 11.5087 4.51819 11.5998 4.57022C11.9852 4.79065 12.3705 5.01107 12.7542 5.23564C12.8526 5.29306 12.9489 5.35483 13.0523 5.42115Z" fill="#DBB56D"/>
<path d="M23.1543 14.8307C23.1573 14.8589 23.1604 14.8871 23.1641 14.9151C23.1757 14.9167 23.1865 14.9192 23.1989 14.9242C23.2061 14.9044 23.2153 14.8846 23.2245 14.8649C23.2442 14.8226 23.2639 14.7804 23.2628 14.7386C23.2605 14.6406 23.2608 14.542 23.2611 14.4433C23.2618 14.1707 23.2625 13.8976 23.2114 13.6348C23.1277 13.2055 22.9901 12.7813 22.8219 12.3769C22.5683 11.7678 22.2791 11.1728 21.9841 10.582C21.7777 10.1693 21.5275 9.77987 21.1927 9.45337C21.1755 9.43644 21.1579 9.41982 21.1402 9.40319C21.0939 9.35963 21.0473 9.31584 21.0096 9.2661C20.6673 8.81613 20.2248 8.47473 19.7599 8.17144C19.53 8.02105 19.2785 7.90321 19.027 7.78542C18.9197 7.73511 18.8123 7.6848 18.7066 7.63198C18.6567 7.60691 18.6071 7.58098 18.5574 7.55503C18.4314 7.4892 18.3052 7.42325 18.1738 7.37095C17.5796 7.13561 16.9606 6.99888 16.3341 6.87955C15.6239 6.74448 14.9237 6.69476 14.2069 6.85387C13.6931 6.96739 13.2116 7.15716 12.7509 7.39332C12.4973 7.52259 12.2744 7.72479 12.0656 7.92367C11.8783 8.10266 11.6935 8.30402 11.57 8.52942C11.3214 8.9827 11.1706 9.47078 11.13 9.99698C11.0579 10.9416 11.2419 11.8275 11.6844 12.657C11.957 13.1683 12.3954 13.532 12.8835 13.8254C13.0439 13.9215 13.2238 13.9874 13.4031 14.053C13.4665 14.0761 13.5297 14.0993 13.592 14.1237C13.8663 14.2314 14.1439 14.3267 14.4439 14.3251C14.7787 14.3226 15.106 14.3035 15.4317 14.1966C15.4946 14.1758 15.5579 14.1569 15.621 14.1379L15.6213 14.1378C15.8425 14.0715 16.062 14.0056 16.2579 13.8652C16.7476 13.5146 17.1562 13.1136 17.3327 12.5095C17.4214 12.2045 17.4553 11.9029 17.3915 11.5996C17.3136 11.23 17.0998 10.9433 16.7584 10.7709C16.6523 10.7179 16.5297 10.6897 16.4112 10.6732C16.0101 10.616 15.6297 10.6483 15.3306 10.9682C15.2792 11.0229 15.2287 11.0154 15.2021 10.9532C15.0911 10.6964 15.0157 10.4353 15.0464 10.1445C15.0919 9.71109 15.7458 9.17246 16.117 9.11362C16.3573 9.07468 16.5993 9.04484 16.8421 9.01916C17.2051 8.98021 17.5573 9.04319 17.8896 9.18323C18.0876 9.26652 18.2737 9.38035 18.4577 9.49293L18.4879 9.51138C18.8533 9.73429 19.1483 10.0293 19.3464 10.4121C19.4309 10.5762 19.4591 10.5953 19.6381 10.5447C20.0193 10.437 20.3831 10.5124 20.7295 10.6682C21.133 10.8488 21.4686 11.1223 21.7239 11.4877C21.7511 11.5266 21.7797 11.5648 21.8083 11.6029L21.8086 11.6032C21.8694 11.6843 21.9304 11.7656 21.9783 11.854C22.0783 12.0394 22.1719 12.2279 22.2656 12.4166L22.266 12.4174C22.3159 12.5178 22.3658 12.6182 22.4167 12.7183C22.4456 12.7751 22.4751 12.8317 22.5045 12.8883C22.6553 13.1782 22.8059 13.4676 22.8898 13.7873C22.9271 13.9297 22.9671 14.0713 23.007 14.2129L23.0072 14.2135C23.0471 14.3551 23.0871 14.4967 23.1244 14.6391C23.1405 14.7014 23.1474 14.7661 23.1543 14.8307Z" fill="#DBB56D"/>
<path d="M14.0783 23.422C14.1489 23.4191 14.2195 23.4163 14.2897 23.4163V23.4312C14.2999 23.4312 14.3102 23.4313 14.3204 23.4314L14.3436 23.4318H14.344C14.3801 23.4323 14.4163 23.4329 14.4522 23.4312C14.5987 23.4241 14.7452 23.418 14.8916 23.4119L14.8924 23.4118C15.2601 23.3964 15.6277 23.381 15.9943 23.3508L16.0156 23.3491C16.3726 23.3198 16.7362 23.29 17.0774 23.1926C17.5738 23.0508 18.0735 22.9009 18.5102 22.6034C18.6676 22.4959 18.8279 22.3929 18.9882 22.2899L18.9901 22.2887C19.1542 22.1832 19.3183 22.0778 19.4789 21.9678C19.861 21.7059 20.2024 21.3944 20.504 21.043C20.717 20.7944 20.9258 20.5417 21.1297 20.2848C21.1835 20.217 21.2386 20.1501 21.2937 20.0831C21.5315 19.7942 21.7695 19.5052 21.902 19.1445C21.9372 19.0493 21.9754 18.9547 22.0135 18.8601C22.1002 18.6451 22.1869 18.43 22.2393 18.2073C22.3594 17.6952 22.3959 17.1707 22.2948 16.6461L22.2867 16.6039C22.2017 16.1625 22.1175 15.7248 21.9103 15.312C21.6775 14.8465 21.294 14.5416 20.9076 14.2344L20.9073 14.2342L20.907 14.2339C20.8726 14.2066 20.8383 14.1793 20.804 14.1519C20.705 14.0726 20.5949 14.0069 20.4851 13.9414C20.4515 13.9213 20.4179 13.9013 20.3847 13.8809C20.0922 13.7002 19.7806 13.5718 19.4334 13.5436L19.4322 13.5435C19.3745 13.5394 19.3161 13.5353 19.2602 13.5229C18.8152 13.4226 18.3718 13.4558 17.9409 13.5793C17.2838 13.7682 16.6987 14.0889 16.2222 14.5919C16.1685 14.6487 16.108 14.7006 16.0477 14.7523C15.9478 14.8379 15.8485 14.923 15.7814 15.0294C15.4076 15.6178 15.1507 16.2384 15.2087 16.971C15.2502 17.493 15.4134 17.9397 15.7515 18.3283C15.7663 18.3452 15.781 18.3625 15.7957 18.3799C15.8704 18.4677 15.9468 18.5576 16.0416 18.615C16.3034 18.7741 16.6042 18.8114 16.9051 18.8056C17.0269 18.8031 17.157 18.7799 17.268 18.731C17.6268 18.5736 17.7926 18.2902 17.7785 17.8974C17.7735 17.7557 17.815 17.7309 17.9434 17.788C18.2185 17.9098 18.4133 18.1311 18.5923 18.359C18.6834 18.4742 18.7489 18.6275 18.7762 18.7725C18.8922 19.3865 18.7538 19.955 18.4091 20.4712C18.2591 20.6941 18.1025 20.9154 17.8415 21.0306C17.5034 21.1797 17.1586 21.1947 16.804 21.111C16.6349 21.0712 16.5984 21.1093 16.5214 21.2659C16.4004 21.5104 16.2769 21.7581 16.1153 21.9752C15.9493 22.1984 15.7108 22.3359 15.4728 22.4732C15.4173 22.5052 15.3618 22.5372 15.3074 22.5702C14.9543 22.7832 14.5707 22.8304 14.1712 22.8255C14.0376 22.8237 13.904 22.824 13.7705 22.8243H13.77C13.5791 22.8246 13.388 22.825 13.1975 22.8197C12.8901 22.8114 12.5826 22.7948 12.2769 22.7699C12.1138 22.7562 11.9515 22.7325 11.7895 22.7089L11.7892 22.7089C11.7266 22.6997 11.664 22.6906 11.6015 22.6821C11.5518 22.6755 11.502 22.6688 11.4548 22.6539C11.3192 22.6102 11.1838 22.5655 11.0483 22.5207L11.0469 22.5203C10.903 22.4728 10.759 22.4252 10.6145 22.3788C10.596 22.373 10.5738 22.3773 10.552 22.3816C10.5425 22.3834 10.5332 22.3853 10.5242 22.3863C10.528 22.3955 10.5308 22.4062 10.5337 22.4168C10.5394 22.4383 10.5451 22.4597 10.559 22.4691C10.6029 22.4994 10.6462 22.5314 10.6896 22.5634C10.8066 22.6499 10.924 22.7366 11.0546 22.7898C11.2376 22.8645 11.4256 22.926 11.6135 22.9875L11.6139 22.9876C11.7926 23.046 11.9716 23.1045 12.1459 23.1743C12.4613 23.3009 12.7906 23.3284 13.12 23.356C13.2865 23.3699 13.453 23.3838 13.6177 23.4105C13.7681 23.4344 13.9231 23.4282 14.0783 23.422Z" fill="#DBB56D"/>
<path d="M10.9851 7.69514C10.9506 7.73062 10.9167 7.7668 10.8829 7.80296C10.8052 7.88588 10.7277 7.96874 10.6428 8.04318C10.5293 8.14259 10.4127 8.23832 10.2961 8.334C10.159 8.44649 10.022 8.55889 9.89039 8.6771C9.41224 9.10718 9.08243 9.63918 8.91835 10.2565C8.73521 10.9427 8.67803 11.6487 8.712 12.3597C8.72112 12.5453 8.74681 12.7326 8.85868 12.8958C8.8736 12.9182 8.85039 12.987 8.82388 13.0143C8.75054 13.0905 8.67472 13.1645 8.5989 13.2385C8.5231 13.3124 8.44721 13.3864 8.3739 13.4626C8.11618 13.7328 8.02171 14.0733 8.00182 14.4313C7.93718 15.5972 8.35981 16.5842 9.12386 17.446L9.146 17.4709C9.31821 17.6647 9.48896 17.857 9.71305 17.9912C10.0959 18.2208 10.5028 18.3227 10.9428 18.1893C11.1707 18.1205 11.3224 17.9564 11.4284 17.7493C11.5635 17.4841 11.6687 17.2106 11.6489 16.9032C11.6431 16.8104 11.6257 16.7665 11.5163 16.7889C10.9843 16.8941 10.6553 16.7425 10.3511 16.2809C10.0611 15.8409 10.115 15.3892 10.2815 14.931C10.371 14.6849 10.5326 14.5067 10.758 14.3601C11.0265 14.1852 11.3025 14.0526 11.6199 14.0352C11.8337 14.0236 12.0591 14.0145 12.2621 14.0692C12.8422 14.2266 13.3907 14.4719 13.8623 14.849C14.0496 14.9981 14.1987 15.2028 14.3388 15.4017C14.6578 15.8533 14.8202 16.3613 14.8128 16.9173C14.8114 17.0062 14.812 17.0954 14.8125 17.1847V17.185C14.814 17.4244 14.8154 17.6641 14.7805 17.8976C14.7108 18.3583 14.5575 18.8 14.3114 19.2044C14.2746 19.2648 14.2442 19.3301 14.2139 19.3952C14.1664 19.4972 14.1192 19.5986 14.0479 19.6801L14.029 19.7017C13.6814 20.1007 13.3314 20.5024 12.8471 20.749C12.8381 20.7537 12.8289 20.7585 12.8198 20.7633L12.8191 20.7636C12.7508 20.7993 12.6804 20.8362 12.6068 20.8493C12.4815 20.8711 12.3638 20.9192 12.246 20.9673C12.0819 21.0344 11.9177 21.1014 11.7334 21.0971C11.5319 21.0926 11.3304 21.0897 11.129 21.0868L11.1284 21.0868C11.0276 21.0853 10.9268 21.0838 10.826 21.0821C10.7843 21.0814 10.7427 21.0813 10.7011 21.0811C10.5969 21.0807 10.4928 21.0803 10.3893 21.0714C10.3567 21.0687 10.3236 21.0666 10.2904 21.0646C10.1598 21.0565 10.0269 21.0483 9.91194 21.0001C9.65836 20.8932 9.41307 20.7581 9.18104 20.609C8.82553 20.3811 8.53549 20.0728 8.27446 19.7463C8.15606 19.5985 8.06195 19.4301 7.96801 19.2621C7.9298 19.1937 7.89161 19.1254 7.85183 19.0586C7.41843 18.3268 7.12176 17.5371 6.8947 16.7234C6.70742 16.0547 6.63947 15.366 6.67261 14.6725C6.67729 14.5735 6.68156 14.4745 6.68582 14.3754L6.68587 14.3744C6.71181 13.772 6.73779 13.1686 6.85658 12.5768C6.92951 12.213 7.06541 11.8592 7.20049 11.5111C7.45903 10.8499 7.80708 10.235 8.22805 9.66321C8.31589 9.54471 8.42611 9.4403 8.53632 9.34086C8.86282 9.04669 9.19181 8.75665 9.52328 8.46745C9.83073 8.19979 10.1929 8.02163 10.5625 7.85673C10.628 7.82744 10.6917 7.79439 10.7556 7.76132L10.7559 7.76115C10.7913 7.74281 10.8267 7.72446 10.8624 7.70674C10.8838 7.69604 10.9056 7.68672 10.9273 7.67744C10.9391 7.67237 10.951 7.66726 10.9627 7.66199C10.9702 7.67442 10.9776 7.6852 10.9851 7.69514Z" fill="#DBB56D"/>
<path d="M20.9261 26.5934C20.8662 26.6266 20.8069 26.6613 20.7476 26.696C20.6189 26.7713 20.4899 26.8468 20.3543 26.9075C20.0096 27.0616 19.6624 27.2141 19.3052 27.3359C19.1247 27.3976 18.9394 27.4453 18.7542 27.4931L18.7538 27.4932C18.5607 27.5429 18.3676 27.5927 18.1798 27.6582C17.526 27.8861 16.8473 27.9607 16.167 28.0311C16.0228 28.0462 15.8771 28.0451 15.7314 28.0441C15.6602 28.0436 15.5891 28.043 15.5181 28.0444C15.446 28.0461 15.4253 28.0096 15.4278 27.9433C15.4319 27.848 15.4328 27.7519 15.4303 27.6566C15.4278 27.5679 15.4477 27.5058 15.5148 27.4295C15.5819 27.3533 15.5943 27.2166 15.6018 27.1047C15.6076 27.0133 15.6027 26.9211 15.5977 26.8287V26.8284C15.5942 26.7625 15.5907 26.6965 15.591 26.6307C15.5923 26.3774 15.5948 26.1239 15.5972 25.8705L15.5972 25.8697C15.5997 25.6159 15.6022 25.3621 15.6035 25.1085C15.6051 24.8408 15.4468 24.6461 15.18 24.6137C14.9529 24.5864 14.7275 24.5856 14.5328 24.7546C14.43 24.8441 14.3894 24.9419 14.3903 25.0687C14.3919 25.2114 14.394 25.3542 14.396 25.4969C14.4 25.7826 14.4041 26.0683 14.4052 26.3539C14.4056 26.461 14.402 26.568 14.3984 26.6751C14.3943 26.7967 14.3902 26.9184 14.3919 27.0401C14.3921 27.0584 14.392 27.0769 14.3919 27.0955C14.3908 27.2407 14.3898 27.39 14.5411 27.4892C14.561 27.5025 14.5651 27.5497 14.5651 27.5812C14.5662 27.6349 14.566 27.6885 14.5658 27.742C14.5656 27.809 14.5653 27.8761 14.5676 27.9433C14.5701 28.0204 14.537 28.0452 14.4649 28.0461C13.8889 28.0568 13.3188 27.9955 12.7528 27.8936C12.5158 27.8505 12.2771 27.8066 12.0459 27.7411C11.9599 27.7165 11.8738 27.6921 11.7877 27.6677C11.0766 27.4663 10.3649 27.2647 9.69744 26.9365C9.55352 26.8656 9.41336 26.7877 9.26356 26.7043C9.19084 26.6639 9.11577 26.6221 9.03698 26.5793C9.06021 26.5663 9.07845 26.5555 9.09357 26.5466C9.12158 26.5302 9.13883 26.52 9.15714 26.513C9.28809 26.465 9.41975 26.4186 9.55142 26.3722C9.84713 26.268 10.143 26.1636 10.4308 26.0415C10.6371 25.9539 10.8327 25.8415 11.0283 25.7291C11.11 25.6821 11.1919 25.6351 11.2744 25.5899C11.3788 25.5326 11.4833 25.4756 11.5878 25.4186L11.589 25.4179L11.5899 25.4174C11.8897 25.2538 12.1895 25.0903 12.4851 24.9204C12.6302 24.8367 12.77 24.7436 12.9098 24.6505C12.9777 24.6053 13.0456 24.5601 13.1141 24.516C13.1247 24.5091 13.1355 24.5021 13.1486 24.4937L13.1805 24.4731L13.2077 24.4555C13.2125 24.4775 13.2179 24.4976 13.2229 24.5164C13.2327 24.5528 13.2412 24.5845 13.2417 24.6162L13.2435 24.8847V24.886C13.2465 25.3329 13.2495 25.7801 13.2467 26.2263C13.245 26.5802 13.1779 26.6324 12.8431 26.547C12.7147 26.5139 12.5904 26.465 12.4677 26.4136C12.3799 26.3771 12.3476 26.3142 12.4163 26.2263L12.4255 26.2149C12.4513 26.1825 12.4788 26.1481 12.4884 26.1111C12.5017 26.0589 12.5141 25.9844 12.4876 25.952C12.4628 25.9214 12.3774 25.9131 12.3335 25.9313C12.277 25.9541 12.2246 25.9859 12.1721 26.0177L12.1718 26.0178C12.1327 26.0416 12.0935 26.0653 12.0526 26.0855C11.8313 26.1937 11.6092 26.2999 11.3872 26.4061C11.2949 26.4503 11.2026 26.4944 11.1103 26.5387C11.0935 26.5469 11.0777 26.5565 11.0545 26.5706C11.0424 26.5779 11.0282 26.5865 11.0109 26.5967C11.0343 26.6147 11.0557 26.6336 11.0762 26.6516C11.119 26.6892 11.1581 26.7236 11.204 26.7409C11.2505 26.7581 11.2969 26.7754 11.3434 26.7928C11.9786 27.0294 12.6135 27.2659 13.3039 27.2945C13.347 27.2961 13.3897 27.3029 13.4325 27.3098C13.4556 27.3135 13.4787 27.3173 13.5019 27.3202L13.7058 27.345V27.1859L13.7062 26.8315C13.7067 26.3588 13.7073 25.8861 13.7099 25.4134C13.7116 25.038 13.7364 24.666 13.8848 24.3138C13.99 24.0635 14.1574 23.892 14.4209 23.7959C14.735 23.6815 15.0582 23.7014 15.3681 23.7395C15.7733 23.7892 16.0617 24.037 16.1595 24.4497C16.2175 24.695 16.2697 24.9469 16.2764 25.1971C16.2887 25.6703 16.2877 26.1438 16.2867 26.6172V26.6176C16.2862 26.8098 16.2858 27.0021 16.2863 27.1942V27.3251C16.9045 27.3914 18.7649 26.8776 18.9629 26.586L18.9573 26.5827L18.9514 26.5791C18.9461 26.576 18.941 26.5728 18.9358 26.5697C18.9177 26.5586 18.8997 26.5476 18.8809 26.5387L18.5941 26.4003L18.5919 26.3992C18.3367 26.276 18.0812 26.1528 17.8268 26.0283C17.8018 26.0159 17.7782 26 17.7547 25.9843C17.72 25.9609 17.6856 25.9377 17.647 25.9263C17.6031 25.9131 17.5277 25.923 17.5028 25.9537C17.4771 25.9852 17.4854 26.0556 17.5003 26.1028C17.5145 26.1477 17.5463 26.1878 17.5767 26.2263L17.5865 26.2388C17.6437 26.3108 17.6205 26.3747 17.5492 26.4003C17.3512 26.4724 17.149 26.5362 16.9459 26.5934C16.8548 26.6191 16.8059 26.5512 16.7877 26.4716C16.7678 26.3829 16.7504 26.291 16.7495 26.2006C16.7477 25.8135 16.7486 25.4268 16.7495 25.0399C16.7498 24.9109 16.7502 24.7818 16.7504 24.6527L16.7503 24.6403C16.7502 24.6152 16.7501 24.5898 16.7537 24.5657C16.7678 24.4662 16.7951 24.4604 16.883 24.5143L17.0208 24.5992C17.3251 24.7865 17.6292 24.9737 17.9387 25.1507L17.9558 25.1605L17.9562 25.1607L17.9565 25.1609L17.9568 25.1611C18.462 25.451 18.9684 25.7415 19.4858 26.0076C19.673 26.1038 19.8738 26.1736 20.0741 26.2433C20.1532 26.2708 20.2323 26.2983 20.3104 26.3274C20.4445 26.3771 20.5793 26.4245 20.7141 26.472L20.7145 26.4721C20.782 26.4959 20.8495 26.5197 20.917 26.5437C20.9203 26.5594 20.9236 26.5768 20.9261 26.5934Z" fill="#DBB56D"/>
<path d="M3.10909 11.3581C3.15719 11.2158 3.20763 11.0666 3.35884 10.9532C3.36741 10.9755 3.37526 10.9967 3.3828 11.0171C3.40443 11.0756 3.42358 11.1274 3.44999 11.1778C3.63728 11.5573 3.82705 11.9368 4.01764 12.3155C4.05162 12.3835 4.08808 12.4581 3.9961 12.492L3.98886 12.4947C3.9186 12.5201 3.82944 12.5525 3.77898 12.4324C3.75826 12.3843 3.68865 12.3346 3.63728 12.3296C3.60247 12.3263 3.54446 12.3918 3.52458 12.439C3.47403 12.5567 3.43176 12.6793 3.39944 12.8036C3.30995 13.145 3.36133 13.213 3.72263 13.2155C4.17576 13.2192 4.62821 13.2169 5.0812 13.2146H5.08154L5.23332 13.2138C5.37171 13.213 5.41977 13.126 5.34768 13.0099C5.31623 12.9593 5.28321 12.9094 5.25019 12.8595C5.19358 12.774 5.13698 12.6884 5.0883 12.5989C5.00273 12.4415 4.91624 12.2846 4.82976 12.1278C4.56705 11.6512 4.30449 11.175 4.06819 10.6856C3.90861 10.3559 3.78096 10.0107 3.65331 9.66553C3.59933 9.51958 3.54533 9.37355 3.48894 9.22877C3.46679 9.17197 3.44892 9.11362 3.43107 9.05531C3.42287 9.02855 3.41468 9.00179 3.40607 8.9752C3.39862 8.9723 3.39116 8.9696 3.3837 8.96691C3.37624 8.96422 3.36878 8.96152 3.36133 8.95862L3.35629 8.97228C3.3507 8.98758 3.34515 9.00277 3.33812 9.01746C3.31326 9.06635 3.28831 9.11515 3.26336 9.16395C3.21347 9.26152 3.16353 9.35917 3.11438 9.45748C3.09329 9.50031 3.07191 9.54297 3.05053 9.58561C2.99294 9.70047 2.93536 9.81531 2.884 9.93313C2.84462 10.0248 2.81107 10.1185 2.77748 10.2123C2.75735 10.2685 2.73721 10.3247 2.71578 10.3806C2.6922 10.4425 2.66676 10.5038 2.64135 10.565C2.59264 10.6823 2.54401 10.7995 2.50861 10.9209C2.40668 11.2698 2.30475 11.6211 2.23266 11.9774C2.13156 12.4821 2.04455 12.9901 1.9766 13.5005C1.94759 13.7186 1.94132 13.94 1.93506 14.1615C1.93237 14.2564 1.92969 14.3513 1.92522 14.446C1.92273 14.5015 1.92107 14.5612 2.00228 14.5612C2.11913 14.562 2.23597 14.562 2.35199 14.5587C2.36734 14.5581 2.38269 14.5479 2.39771 14.538C2.40295 14.5345 2.40816 14.5311 2.41331 14.528C2.43401 14.5157 2.45438 14.5006 2.47474 14.4855C2.51875 14.4528 2.56268 14.4201 2.60971 14.4162C2.77141 14.4009 2.93417 14.4005 3.09671 14.4001C3.13737 14.4 3.17818 14.3999 3.21879 14.3996C3.43669 14.3976 3.65446 14.3959 3.87221 14.3942C4.19934 14.3916 4.52641 14.389 4.85378 14.3855C4.99217 14.3839 5.11233 14.4178 5.17863 14.5496C5.18794 14.5679 5.19746 14.5863 5.207 14.6047C5.25434 14.6959 5.30213 14.788 5.32696 14.8852C5.4206 15.2531 5.14714 15.5995 4.77257 15.5978C4.64751 15.5971 4.52262 15.5942 4.39782 15.5913H4.39627C4.2429 15.5877 4.08967 15.5841 3.93643 15.5846C3.79491 15.5849 3.6534 15.5879 3.51193 15.5909C3.29977 15.5954 3.08746 15.5998 2.87572 15.5954C2.7307 15.5929 2.5575 15.5813 2.45143 15.5017C2.36856 15.4387 2.30393 15.4296 2.2194 15.4263C2.20064 15.4257 2.18188 15.4262 2.1632 15.4268C2.13156 15.4276 2.10015 15.4285 2.06941 15.4238C1.96085 15.4064 1.91527 15.4421 1.92356 15.5564C1.934 15.7036 1.93994 15.8516 1.94588 15.9996C1.95834 16.3097 1.9708 16.6199 2.02466 16.9229C2.11907 17.4518 2.2465 17.9751 2.37385 18.498C2.41529 18.6682 2.45673 18.8383 2.49701 19.0086C2.53679 19.1768 2.59065 19.3426 2.65197 19.5042C2.72407 19.6947 2.80694 19.8812 2.89146 20.0668C2.96604 20.2309 3.04643 20.3925 3.12764 20.5541C3.18142 20.6616 3.23727 20.7684 3.29315 20.8752L3.29334 20.8755C3.3166 20.92 3.33986 20.9645 3.36298 21.009L3.37056 21.0078L3.38082 21.0061C3.38682 21.0051 3.39282 21.004 3.39862 21.0032C3.40419 20.9879 3.40948 20.9722 3.41478 20.9565C3.42207 20.935 3.42941 20.9133 3.43756 20.8922C3.50248 20.7235 3.56354 20.553 3.62458 20.3825C3.76143 20.0004 3.89819 19.6185 4.07814 19.258C4.34124 18.7307 4.63447 18.2189 4.92777 17.7069C5.06401 17.4691 5.20034 17.2311 5.33359 16.9917C5.35845 16.9477 5.38166 16.8707 5.36011 16.84C5.33193 16.8002 5.25984 16.7737 5.20597 16.7729C4.76097 16.7671 4.31514 16.7654 3.87014 16.7687C3.74252 16.7704 3.61324 16.7845 3.48646 16.8027C3.3779 16.8185 3.32155 16.8881 3.35387 16.9991L3.35606 17.0066C3.4092 17.1873 3.46254 17.3686 3.5312 17.5435C3.59087 17.6968 3.65302 17.6985 3.75412 17.5692C3.76038 17.5612 3.76475 17.55 3.76893 17.5393C3.77471 17.5244 3.78014 17.5104 3.78975 17.5071L3.81108 17.4997C3.86788 17.4798 3.92774 17.4589 3.98367 17.4648C4.0077 17.4665 4.04416 17.5543 4.03919 17.5999C4.03442 17.6422 4.01209 17.6824 3.98976 17.7225C3.98102 17.7382 3.97229 17.7539 3.96461 17.7698C3.91014 17.8825 3.85574 17.9952 3.80135 18.108C3.66627 18.3879 3.53116 18.6679 3.3953 18.9473C3.38729 18.9639 3.37454 18.9781 3.36196 18.9921C3.35632 18.9984 3.35071 19.0047 3.34558 19.0111C3.07211 18.8255 2.59231 17.0886 2.61468 16.3088C2.63034 16.3088 2.64617 16.3089 2.6621 16.309H2.66248C2.69443 16.3092 2.72692 16.3094 2.75887 16.3088C2.99394 16.3044 3.22923 16.3027 3.46455 16.3011C4.01565 16.2972 4.56687 16.2934 5.11565 16.2533C5.78439 16.2036 6.05703 15.8962 6.15316 15.3451C6.20702 15.036 6.20288 14.7054 6.09018 14.3855C5.9982 14.1253 5.82666 13.972 5.59711 13.8568C5.2847 13.7002 4.94577 13.6928 4.61015 13.6861C4.18268 13.6781 3.75482 13.678 3.3271 13.6779C3.13461 13.6778 2.94214 13.6778 2.74976 13.677C2.71847 13.677 2.68719 13.6745 2.65422 13.6718C2.63741 13.6704 2.62016 13.669 2.60225 13.6679C2.60855 13.6065 2.61426 13.5467 2.61987 13.4881C2.63197 13.3614 2.64357 13.2399 2.65943 13.1193C2.66589 13.0701 2.67175 13.0207 2.6776 12.9712C2.69725 12.8053 2.71693 12.6392 2.7597 12.4796C2.85583 12.1183 2.97019 11.7612 3.092 11.4081C3.09777 11.3916 3.10342 11.3749 3.10909 11.3581Z" fill="#DBB56D"/>
<path d="M26.653 8.97102L26.7067 9.08084C26.7609 9.19146 26.8149 9.30184 26.8684 9.4127C26.8846 9.44594 26.9008 9.47919 26.917 9.51245L26.9171 9.51276C26.9816 9.64516 27.0462 9.77787 27.1071 9.91155L27.1401 9.98462C27.2149 10.1501 27.29 10.3162 27.3499 10.4866C27.4311 10.717 27.5007 10.9515 27.5612 11.1877C27.6698 11.6086 27.7725 12.0313 27.8703 12.4547C27.9159 12.6528 27.9615 12.8533 27.9797 13.0555C28.006 13.3443 28.0246 13.6341 28.0432 13.9239L28.0432 13.9242C28.0534 14.0825 28.0636 14.2407 28.075 14.3987C28.0841 14.5189 28.0518 14.5827 27.9167 14.5587C27.8852 14.5533 27.8523 14.5546 27.8194 14.5559C27.8021 14.5566 27.7847 14.5573 27.7676 14.557C27.6847 14.5562 27.6234 14.5438 27.5455 14.48C27.4518 14.4037 27.2911 14.3929 27.1585 14.3863C27.0355 14.3805 26.912 14.3857 26.7884 14.3909C26.6996 14.3946 26.6107 14.3983 26.5221 14.3979C26.2843 14.397 26.0465 14.3941 25.8087 14.3911C25.5973 14.3885 25.386 14.3858 25.1746 14.3847C24.9003 14.383 24.7064 14.5711 24.6932 14.8446C24.6922 14.8635 24.6911 14.8825 24.6901 14.9015C24.6864 14.9656 24.6828 15.0301 24.684 15.094C24.6898 15.4006 24.8879 15.5962 25.1937 15.5962L25.4952 15.597C26.0476 15.5986 26.6003 15.6002 27.1527 15.5953L27.1581 15.5953C27.2785 15.5945 27.4371 15.5934 27.5065 15.5224C27.6104 15.4162 27.723 15.4206 27.835 15.4249C27.8855 15.4268 27.936 15.4287 27.9855 15.4205C28.0717 15.4064 28.0767 15.4735 28.0734 15.5348C28.0669 15.6514 28.0628 15.7684 28.0588 15.8854V15.8858C28.0492 16.1602 28.0397 16.4346 27.9996 16.7041C27.9425 17.0848 27.86 17.4616 27.7776 17.8382C27.7464 17.9805 27.7153 18.1228 27.6855 18.2653L27.6761 18.3102C27.6446 18.4611 27.613 18.6122 27.567 18.7592C27.4784 19.0417 27.3814 19.3218 27.2803 19.6011L27.259 19.6604C27.1734 19.8985 27.0876 20.1372 26.982 20.3668C26.9131 20.517 26.8302 20.6609 26.7411 20.8157C26.7003 20.8865 26.6583 20.9594 26.6157 21.0363C26.5926 20.9716 26.5704 20.9108 26.5491 20.8525C26.5039 20.7288 26.4628 20.6164 26.4268 20.5027C26.1558 19.64 25.7323 18.8503 25.2848 18.0705C25.2417 17.9951 25.2028 17.9173 25.164 17.8395C25.123 17.7575 25.0821 17.6756 25.0362 17.5965C24.9756 17.4921 24.9115 17.39 24.8474 17.2878L24.8471 17.2874C24.7876 17.1927 24.7282 17.098 24.6716 17.0016C24.6434 16.9535 24.6144 16.8706 24.636 16.8392C24.665 16.7977 24.7437 16.772 24.8017 16.7712C25.2716 16.7646 25.7423 16.7637 26.2121 16.7662C26.3149 16.7671 26.4193 16.7836 26.5204 16.8027C26.6149 16.8209 26.6729 16.8839 26.643 16.9833C26.5817 17.1855 26.5171 17.3869 26.4417 17.5841C26.4044 17.6819 26.3547 17.6744 26.2735 17.6065C26.2521 17.589 26.2402 17.563 26.2282 17.5371C26.2069 17.4905 26.1854 17.4438 26.1094 17.4449C25.9552 17.4474 25.9047 17.5054 25.9735 17.6438C26.0305 17.7595 26.0901 17.8741 26.1497 17.9886C26.213 18.1103 26.2763 18.2319 26.3364 18.3548C26.3951 18.4755 26.4489 18.5989 26.5026 18.7221L26.5028 18.7225C26.5286 18.7817 26.5546 18.8412 26.5809 18.9C26.5903 18.9208 26.6009 18.9411 26.6145 18.9672C26.6204 18.9785 26.6268 18.991 26.634 19.005C26.6394 19.0155 26.6451 19.0268 26.6513 19.0392C26.6705 19.0122 26.6897 18.988 26.7076 18.9652C26.7446 18.9184 26.7766 18.8778 26.7939 18.8321C27.0566 18.1493 27.3068 17.4623 27.3449 16.7198C27.3493 16.6322 27.3622 16.545 27.3759 16.4519C27.3828 16.4049 27.3899 16.3563 27.3963 16.3055H27.238C27.0581 16.3048 26.878 16.3047 26.698 16.3046C26.2578 16.3044 25.8175 16.3041 25.3776 16.2947C25.1382 16.2898 24.8954 16.2641 24.66 16.216C24.1951 16.1199 23.9059 15.8149 23.8404 15.3559C23.7866 14.9763 23.7833 14.5794 23.9681 14.2214C24.0824 14.0002 24.2912 13.8659 24.5233 13.8054C24.7702 13.7408 25.0288 13.6952 25.2832 13.6878C25.7403 13.6749 26.1979 13.6748 26.6553 13.6747H26.656C26.8476 13.6747 27.0391 13.6746 27.2306 13.6737H27.3764C27.4104 12.9693 26.9588 11.2266 26.648 10.9648C26.6425 10.9722 26.6366 10.9793 26.6307 10.9864C26.6187 11.0008 26.6069 11.015 26.5991 11.0311C26.4789 11.2787 26.3594 11.5267 26.2398 11.7746L26.2394 11.7756L26.2342 11.7863C26.1645 11.931 26.0947 12.0756 26.0248 12.2202C26.0193 12.2317 26.014 12.2434 26.0088 12.255C25.9951 12.2852 25.9815 12.3153 25.9635 12.3428C25.9221 12.4058 25.9337 12.4696 25.9983 12.4845C26.0511 12.4972 26.1122 12.4818 26.17 12.4672C26.1803 12.4646 26.1906 12.462 26.2005 12.4597C26.2088 12.4579 26.2135 12.4444 26.2187 12.4295C26.2229 12.4175 26.2274 12.4044 26.2345 12.3959C26.3248 12.2848 26.4201 12.2898 26.469 12.4232C26.5333 12.5975 26.5831 12.7775 26.6327 12.9566L26.643 12.9942C26.6704 13.0953 26.6132 13.1558 26.5187 13.174C26.421 13.193 26.3215 13.2104 26.2229 13.2113C25.7447 13.2146 25.2658 13.2138 24.7876 13.2071C24.7338 13.2063 24.6608 13.1773 24.6343 13.1367C24.6136 13.1052 24.6401 13.029 24.665 12.9842C24.8054 12.7331 24.9473 12.4829 25.0891 12.2326C25.3222 11.8214 25.5554 11.4101 25.782 10.9954C26.1135 10.388 26.348 9.73919 26.5544 9.08041C26.5622 9.05597 26.5725 9.03229 26.583 9.00835C26.5882 8.99656 26.5934 8.98471 26.5983 8.97268C26.6182 8.97434 26.6356 8.97268 26.653 8.97102Z" fill="#DBB56D"/>
<path d="M11.8003 24.793C11.83 24.7727 11.8617 24.751 11.8965 24.7275C11.8556 24.7075 11.8243 24.6916 11.7973 24.6778C11.7729 24.6654 11.752 24.6548 11.7308 24.6446C11.6416 24.6045 11.5521 24.5649 11.4625 24.5254L11.4617 24.525C11.2596 24.4358 11.0575 24.3465 10.859 24.2502C10.5756 24.1126 10.293 23.9709 10.0229 23.8101C9.45025 23.4704 8.92735 23.0652 8.4434 22.6061C7.88487 22.0758 7.36694 21.5123 6.94017 20.8692C6.62278 20.3911 6.32197 19.9022 6.09823 19.3735C5.97283 19.0771 5.86239 18.7744 5.75191 18.4716C5.69592 18.3182 5.63992 18.1647 5.58196 18.012C5.57071 17.9816 5.55181 17.9543 5.53306 17.9272C5.52419 17.9144 5.51536 17.9016 5.50738 17.8885C5.49853 17.895 5.4887 17.901 5.47884 17.9069C5.45731 17.9199 5.43561 17.933 5.42368 17.9523C5.19993 18.3161 4.97619 18.6807 4.75825 19.0487C4.68201 19.1771 4.67289 19.3213 4.73919 19.4572C4.80869 19.599 4.8771 19.7414 4.94551 19.8838L4.94566 19.8841C5.13821 20.2848 5.33076 20.6855 5.54715 21.0731C5.89437 21.6946 6.34269 22.2481 6.80344 22.7892C7.35617 23.4381 8.00834 23.98 8.68621 24.4888C9.18176 24.8609 9.7262 25.1567 10.2823 25.4335C10.4728 25.5288 10.6212 25.523 10.7911 25.4161C10.9565 25.3121 11.124 25.2115 11.2915 25.1109L11.292 25.1106C11.4021 25.0445 11.5121 24.9784 11.6214 24.9114C11.679 24.8761 11.7347 24.8379 11.8003 24.793Z" fill="#DBB56D"/>
<path d="M18.2222 24.6716C18.2914 24.6434 18.3569 24.6168 18.4202 24.5857C18.5172 24.5384 18.6143 24.4912 18.7114 24.444L18.712 24.4437C19.0766 24.2665 19.441 24.0893 19.8008 23.9029C20.3452 23.6204 20.8284 23.2499 21.2891 22.8464C21.7366 22.4544 22.1493 22.0302 22.533 21.576C22.9804 21.0474 23.3376 20.4598 23.6624 19.8508C23.9782 19.2583 24.2185 18.636 24.419 17.9962C24.4275 17.9698 24.4471 17.9467 24.4668 17.9235C24.4761 17.9125 24.4854 17.9016 24.4936 17.8902C24.5041 17.8991 24.5156 17.9074 24.5272 17.9157C24.5523 17.9338 24.5775 17.952 24.5922 17.9763C24.8027 18.3194 25.0107 18.665 25.2162 19.0105C25.3124 19.1721 25.3082 19.3329 25.2353 19.5102C24.9941 20.0961 24.7091 20.6595 24.371 21.194C24.1116 21.6042 23.8307 22.0028 23.5265 22.3798C23.2224 22.7561 22.8893 23.1124 22.5446 23.453C22.3465 23.6492 22.1303 23.8272 21.914 24.0051C21.8316 24.0729 21.7492 24.1407 21.6678 24.2095C21.1026 24.6877 20.467 25.0531 19.8082 25.3837C19.788 25.394 19.768 25.4051 19.748 25.4162C19.6983 25.4438 19.6484 25.4715 19.5953 25.4857C19.5232 25.5047 19.427 25.5246 19.3707 25.4923C19.0478 25.308 18.7292 25.1152 18.4106 24.9224C18.3309 24.8742 18.2513 24.826 18.1716 24.778C18.1627 24.7726 18.1556 24.7633 18.145 24.7496C18.1378 24.7402 18.129 24.7288 18.1169 24.715C18.153 24.6997 18.1881 24.6854 18.2222 24.6716Z" fill="#DBB56D"/>
<path d="M5.44479 12.0532C5.46247 12.079 5.4818 12.1072 5.50339 12.1391C5.51948 12.1049 5.53291 12.0775 5.54449 12.054C5.56032 12.0218 5.57277 11.9964 5.58378 11.9701C5.64708 11.8086 5.70784 11.646 5.76859 11.4835C5.90108 11.129 6.03351 10.7747 6.19203 10.4321C6.39506 9.99292 6.63455 9.56533 6.90387 9.16343C7.09216 8.88161 7.31117 8.61938 7.5299 8.35748C7.60959 8.26206 7.68924 8.16669 7.76736 8.07043C8.16264 7.584 8.63665 7.18045 9.11894 6.786C9.51258 6.46306 9.95201 6.21083 10.3907 5.95902C10.4765 5.90976 10.5625 5.86042 10.6479 5.81067C10.8328 5.70306 11.0337 5.62159 11.2345 5.54016C11.3197 5.5056 11.405 5.471 11.489 5.43446C11.5731 5.39793 11.658 5.3625 11.7473 5.32523C11.7917 5.30671 11.8372 5.2877 11.8843 5.2679C11.8708 5.25281 11.861 5.24071 11.8532 5.23097C11.8408 5.21555 11.8331 5.20604 11.8229 5.19995C11.7509 5.15658 11.6788 5.11314 11.6068 5.06969L11.6064 5.06944C11.2837 4.87475 10.9608 4.67998 10.6338 4.4931C10.5766 4.46078 10.473 4.46327 10.4117 4.49227C10.1233 4.62983 9.83658 4.77319 9.55897 4.93146C8.92917 5.28944 8.34909 5.71703 7.80548 6.19848C7.21131 6.72468 6.67515 7.29977 6.19949 7.9337C5.64013 8.67949 5.19761 9.49075 4.81227 10.3376C4.68797 10.6111 4.68465 10.8489 4.84708 11.0992C4.9591 11.272 5.06631 11.4476 5.17358 11.6233L5.17379 11.6236L5.17413 11.6241C5.23328 11.721 5.29257 11.8181 5.35257 11.9146C5.37978 11.9584 5.40888 12.0009 5.44479 12.0532Z" fill="#DBB56D"/>
<path d="M24.4668 12.135C23.9928 10.5341 23.2312 9.127 22.1142 7.9213C20.9996 6.71891 19.6621 5.85047 18.1265 5.2787C18.1265 5.2754 18.1265 5.2721 18.1264 5.26878L18.1261 5.25911L18.1261 5.25872C18.126 5.25549 18.1259 5.25223 18.1259 5.24894C18.1258 5.24537 18.1257 5.24176 18.1257 5.23809C18.1463 5.22439 18.1667 5.21046 18.1871 5.19654C18.2358 5.16331 18.2846 5.13007 18.3354 5.09971C18.4833 5.01036 18.6317 4.92185 18.7801 4.83335C18.9634 4.72404 19.1467 4.61471 19.329 4.5039C19.4301 4.44258 19.5245 4.45169 19.6231 4.50639C19.7434 4.57241 19.8645 4.63717 19.9856 4.70194C20.2565 4.84687 20.5276 4.99188 20.7899 5.15108C21.1057 5.34168 21.4206 5.54387 21.7023 5.78087C22.3147 6.29712 22.9221 6.82415 23.4235 7.45559C23.8577 8.00251 24.2795 8.56102 24.6093 9.17837C24.7594 9.45936 24.8934 9.74862 25.0273 10.0379L25.0275 10.0383L25.0276 10.0386C25.1014 10.1979 25.1751 10.3571 25.2516 10.515C25.3253 10.6666 25.2996 10.815 25.225 10.9459C25.0565 11.2396 24.8797 11.5282 24.7028 11.8168C24.6562 11.893 24.6095 11.9692 24.5629 12.0455C24.5549 12.0586 24.5421 12.0695 24.5207 12.0876C24.5067 12.0994 24.4891 12.1144 24.4668 12.135Z" fill="#DBB56D"/>
<path d="M4.14583 9.87031C4.15469 9.88283 4.16525 9.89775 4.17752 9.91677C4.21844 9.82994 4.25724 9.74588 4.2951 9.66389L4.29528 9.66349C4.37079 9.4999 4.44252 9.34451 4.51976 9.19169C4.83715 8.56356 5.21917 7.97356 5.63517 7.40758C6.14067 6.71897 6.73235 6.10658 7.37789 5.54724C7.45233 5.48263 7.52975 5.4216 7.60711 5.3606L7.64887 5.32764C8.11708 4.95972 8.606 4.62328 9.12642 4.33242C9.23813 4.26998 9.34549 4.2008 9.45863 4.1279L9.4594 4.1274C9.50967 4.09501 9.56107 4.06189 9.61451 4.0283C9.59734 4.01824 9.58228 4.00859 9.56835 3.99967C9.54331 3.98363 9.52193 3.96994 9.4985 3.96035C9.45824 3.9439 9.418 3.92734 9.37776 3.91077C9.19107 3.83393 9.0042 3.75701 8.814 3.69021C8.75683 3.67032 8.66898 3.68192 8.61843 3.71424C8.34083 3.89406 8.0657 4.08051 7.79721 4.27442C7.54115 4.46004 7.29254 4.65477 7.04476 4.85034C6.48789 5.28953 6.0114 5.81075 5.53739 6.33447C4.91256 7.02557 4.41038 7.80368 3.95129 8.6108C3.87339 8.74918 3.81787 8.88591 3.8709 9.04833C3.91667 9.18833 3.9607 9.32884 4.00475 9.46943C4.04124 9.58588 4.07784 9.70264 4.11537 9.81898C4.12059 9.83464 4.13074 9.849 4.14583 9.87031Z" fill="#DBB56D"/>
<path d="M4.18838 20.085C5.33362 22.6398 7.0954 24.622 9.62868 25.923C9.60368 25.9397 9.58168 25.9557 9.5614 25.9705C9.52054 26.0003 9.4865 26.0251 9.44886 26.0406C9.24252 26.1285 9.03452 26.2155 8.82237 26.2876C8.76188 26.3083 8.66907 26.2992 8.61603 26.2652C7.99286 25.8658 7.38958 25.4398 6.83271 24.9509C6.22528 24.4173 5.67586 23.8273 5.16622 23.2025C4.73282 22.6705 4.36489 22.0912 4.02596 21.4946C4.01091 21.468 3.99674 21.4411 3.98257 21.4142C3.96004 21.3714 3.93754 21.3286 3.9116 21.2874C3.80884 21.1234 3.85276 20.9651 3.91243 20.8002C3.95736 20.6751 3.99557 20.5476 4.03376 20.4202C4.05402 20.3525 4.07431 20.2848 4.09556 20.2176C4.10496 20.1872 4.11803 20.1583 4.13111 20.1294C4.13764 20.115 4.14418 20.1005 4.15026 20.0859C4.16352 20.0867 4.17595 20.0859 4.18838 20.085Z" fill="#DBB56D"/>
<path d="M23.6224 23.4627C22.6935 24.4654 21.6245 25.2849 20.364 25.9214C20.3911 25.9394 20.4143 25.9561 20.4352 25.9712C20.4756 26.0004 20.5075 26.0234 20.543 26.0382L20.5917 26.0587C20.7827 26.139 20.974 26.2195 21.1695 26.2851C21.2342 26.3067 21.3295 26.2976 21.3875 26.2636C21.503 26.1965 21.6124 26.1191 21.722 26.0415C21.768 26.009 21.8141 25.9764 21.8606 25.9446C22.5891 25.4465 23.2785 24.9046 23.8835 24.2549C23.9319 24.2029 23.9804 24.151 24.0289 24.099C24.4884 23.607 24.9467 23.1164 25.308 22.5437C25.413 22.3771 25.5168 22.2099 25.6207 22.0427L25.621 22.0422C25.767 21.8072 25.913 21.5722 26.0621 21.3389C26.1574 21.1889 26.1648 21.0347 26.1159 20.874C26.0737 20.7341 26.0272 20.5957 25.9807 20.4572L25.9631 20.4045C25.9535 20.376 25.9439 20.3474 25.9345 20.3188C25.9186 20.2718 25.9018 20.2248 25.8825 20.1708C25.875 20.1496 25.8669 20.127 25.8585 20.1032C25.8536 20.0894 25.8485 20.0751 25.8433 20.0602C25.2367 21.3115 24.5472 22.4642 23.6224 23.4627Z" fill="#DBB56D"/>
<path d="M20.3981 4.01669C20.4112 4.0096 20.4239 4.00194 20.4367 3.99428C20.4611 3.97956 20.4855 3.9649 20.5117 3.95454C20.5512 3.93841 20.5908 3.92217 20.6303 3.90594C20.8099 3.83214 20.9896 3.75831 21.173 3.69517C21.2334 3.67446 21.3263 3.68108 21.3801 3.71423C22.2718 4.26943 23.1046 4.9017 23.8281 5.6649C24.2615 6.12232 24.6949 6.5872 25.0669 7.09268C25.3814 7.51936 25.6518 7.97887 25.9219 8.43781C25.987 8.54841 26.052 8.65899 26.1177 8.76906C26.1625 8.84364 26.1409 8.97374 26.116 9.06986C26.069 9.24883 26.0114 9.42494 25.9538 9.60108L25.9535 9.60188C25.9352 9.65791 25.9169 9.71395 25.8989 9.77008C25.8907 9.79568 25.8794 9.82065 25.8647 9.85301C25.8556 9.87301 25.8452 9.89585 25.8335 9.92338C24.6609 7.34957 22.9008 5.35664 20.3882 4.0631C20.39 4.0513 20.3926 4.04035 20.3951 4.02964C20.3961 4.02533 20.3972 4.02096 20.3981 4.01669Z" fill="#DBB56D"/>
<path fill-rule="evenodd" clip-rule="evenodd" d="M0.00012207 15.0004C0.00012207 6.71547 6.7166 0 15.001 0C23.2853 0 30.0001 6.71629 30.0001 15.0004C30.0001 23.2845 23.2845 30 15.0001 30C6.71577 30 0.00012207 23.2854 0.00012207 15.0004ZM1.4296 14.9996C1.4296 22.4948 7.50551 28.5706 15.001 28.5706C22.4956 28.5706 28.5715 22.4956 28.5715 15.0004C28.5715 7.50518 22.4964 1.42944 15.001 1.42944C7.50551 1.42944 1.4296 7.50435 1.4296 14.9996Z" fill="#DBB56D"/>
</svg>
