<svg width="37" height="34" viewBox="0 0 37 34" fill="none" xmlns="http://www.w3.org/2000/svg">
<path d="M26.8221 9.84379C26.8221 9.47056 26.8271 9.0963 26.8211 8.72307C26.8092 7.94805 26.7943 7.17303 26.7745 6.397C26.7686 6.15123 26.6634 6.0309 26.4709 5.95136C24.7693 5.24161 22.9843 4.83064 21.2093 4.37889C20.5742 4.21675 19.9521 3.9975 19.327 3.79661C19.1822 3.7497 19.1365 3.79049 19.1356 3.93733C19.1306 5.04683 19.1167 6.15633 19.1157 7.26583C19.1127 10.011 19.1157 12.7572 19.1177 15.5024C19.1177 15.6034 19.1038 15.6717 19.0066 15.737C18.8399 15.8481 18.7903 16.151 18.9123 16.3274C19.083 16.5752 19.1207 16.8414 19.1197 17.1371C19.1117 19.0176 19.1088 20.897 19.1227 22.7774C19.1246 23.1017 19.0135 23.3495 18.819 23.6055C18.698 23.4137 18.5799 23.2322 18.4688 23.0477C18.2277 22.6479 17.9965 22.241 17.7504 21.8454C17.5123 21.464 17.2643 21.0887 17.0122 20.7165C16.9041 20.5564 16.7622 20.4187 16.661 20.2545C16.5578 20.0863 16.4755 19.9017 16.407 19.7151C16.3901 19.6702 16.4467 19.5713 16.4963 19.5295C16.6124 19.4316 16.7374 19.3398 16.8704 19.2684C17.3476 19.0135 17.552 18.5393 17.7921 18.0906C18.1076 17.5002 18.4261 16.9118 18.7426 16.3223C18.8379 16.1449 18.8032 15.8186 18.6444 15.7482C18.5174 15.6921 18.3507 15.6942 18.2088 15.7176C17.7227 15.7982 17.2424 15.9144 16.7553 15.9879C16.5667 16.0164 16.3604 15.998 16.1758 15.9491C15.8881 15.8726 15.6123 15.7523 15.2908 15.636C15.5626 15.3933 15.5587 15.1007 15.5577 14.808C15.5567 14.6316 15.4396 14.4888 15.2779 14.4215C14.8165 14.2298 14.3591 14.0279 13.8987 13.8351C13.7955 13.7913 13.8045 13.7321 13.8283 13.6373C13.8789 13.4374 13.9513 13.208 13.7439 13.0693C13.6368 12.9979 13.4731 13.0101 13.3342 12.9959C13.2786 12.9898 13.221 13.0142 13.1903 13.0193C13.0782 12.8582 12.979 12.7093 12.8728 12.5655C12.3936 11.9149 11.9233 11.2562 11.4272 10.6178C11.0541 10.1385 10.6433 9.69083 10.2583 9.22174C10.0153 8.926 9.78407 8.62008 9.55487 8.31313C9.51617 8.26112 9.49534 8.18158 9.49335 8.11427C9.47649 7.48814 9.45962 6.86303 9.45466 6.23689C9.45267 5.98705 9.47153 5.73619 9.49435 5.48737C9.49931 5.43638 9.55586 5.3701 9.60547 5.34664C10.4617 4.93874 11.2843 4.46455 12.1743 4.12089C13.1377 3.74868 14.12 3.45193 15.1042 3.15518C15.8772 2.92165 16.6461 2.67181 17.4141 2.42095C17.8834 2.26696 18.3468 2.09462 18.8141 1.93656C18.8627 1.92024 18.9272 1.9335 18.9798 1.9488C19.8886 2.21496 20.7975 2.48213 21.7054 2.75033C22.5636 3.00323 23.4209 3.25919 24.2791 3.51107C25.2574 3.79864 26.1941 4.19941 27.1257 4.61139C27.4174 4.73988 27.6972 4.90305 27.9711 5.06927C28.0336 5.107 28.0802 5.22019 28.0862 5.30279C28.116 5.74741 28.1348 6.19406 28.1497 6.6397C28.1656 7.09859 28.1775 7.5585 28.1834 8.0174C28.1844 8.10204 28.1705 8.20707 28.1219 8.2703C27.7092 8.80771 27.2875 9.33697 26.8678 9.86826C26.8529 9.86011 26.838 9.85195 26.8221 9.84379Z" fill="#DBB56D"/>
<path d="M1.45358 0.0336044C1.48334 0.149857 1.51509 0.26611 1.54188 0.383383C1.73338 1.20633 1.9209 2.02928 2.11438 2.85121C2.30191 3.64866 2.69978 4.33904 3.17703 4.98353C3.45087 5.3537 3.71083 5.73815 4.02139 6.07263C4.19304 6.25721 4.44704 6.3755 4.6812 6.48156C4.99275 6.62228 5.28347 6.51419 5.54243 6.31228C5.56823 6.29188 5.59204 6.24293 5.58708 6.21132C5.53747 5.88704 5.24378 5.67696 4.93322 5.75957C4.81713 5.79016 4.76058 5.75447 4.70105 5.66983C4.35378 5.17524 4.1216 4.62967 3.99758 4.03311C3.98269 3.96275 3.9559 3.87607 3.9053 3.8363C3.69892 3.67109 3.68603 3.41921 3.90629 3.26727C4.20495 3.0623 4.50955 2.8665 4.8221 2.68396C5.09793 2.52284 5.20608 2.58199 5.29934 2.89709C5.31522 2.9491 5.36086 2.99601 5.40154 3.03578C5.71706 3.34375 6.03556 3.64662 6.35008 3.95561C6.42053 4.02495 6.47312 4.11367 6.53662 4.19117C6.6527 4.33292 6.71025 4.46345 6.58424 4.64701C6.43144 4.86829 6.53166 5.08958 6.67453 5.2711C7.506 6.32859 8.34044 7.38303 9.17984 8.43338C9.89025 9.32261 10.6165 10.1976 11.321 11.0919C11.7437 11.6293 12.1396 12.1902 12.5434 12.7429C12.6426 12.8785 12.727 13.0264 12.8202 13.1681C12.9184 13.3191 13.0296 13.4373 13.234 13.3792C13.3203 13.3547 13.4136 13.3568 13.5306 13.3435C13.4919 13.471 13.4632 13.5771 13.4284 13.6811C13.357 13.8932 13.3858 14.0013 13.5862 14.0971C14.0436 14.3154 14.508 14.5183 14.9683 14.7294C15.0537 14.7681 15.2015 14.8181 15.2025 14.865C15.2045 14.9996 15.1817 15.1648 15.1053 15.2658C14.9029 15.533 14.6746 15.7797 14.4425 16.0204C14.1845 16.2866 13.9235 16.5527 13.6398 16.7883C13.4542 16.9423 13.235 17.0636 13.0147 17.1636C12.4809 17.4063 11.9709 17.7173 11.3905 17.8376C11.2525 17.8662 11.0978 17.8213 10.9539 17.7897C10.9271 17.7836 10.9073 17.6826 10.9063 17.6245C10.8944 17.136 10.9023 16.6476 10.8745 16.1611C10.8507 15.7481 10.7614 15.6737 10.3754 15.638C10.3308 15.6339 10.2861 15.637 10.2087 15.637C10.2782 15.5024 10.3328 15.3892 10.3943 15.2811C10.4469 15.1893 10.4409 15.1169 10.3844 15.02C9.86148 14.1338 9.33065 13.2528 8.83257 12.3513C8.47835 11.7099 8.18069 11.0358 7.83838 10.3862C7.52882 9.79884 7.19345 9.22573 6.87 8.64651C6.82733 8.57003 6.78864 8.49049 6.73803 8.39361C6.37489 8.74543 6.04349 9.09113 6.03953 9.64078C6.03456 10.3648 6.21713 11.0491 6.42748 11.7303C6.5128 12.0066 6.59317 12.285 6.64774 12.5971C6.56043 12.5491 6.4622 12.5134 6.38779 12.4492C6.27765 12.3533 6.1824 12.2391 6.08616 12.127C5.56327 11.5131 5.02351 10.9134 4.52741 10.2781C4.22479 9.8896 3.7912 9.79068 3.39233 9.60917C2.99446 9.42867 2.57774 9.29202 2.18284 9.1054C1.58355 8.82191 1.2591 8.32121 1.14302 7.6553C1.03189 7.01489 0.865201 6.3806 0.906873 5.72489C0.965413 4.81527 1.05471 3.90666 1.12615 2.99805C1.16088 2.55853 1.17774 2.11698 1.21148 1.67644C1.24918 1.19001 1.29681 0.703588 1.34245 0.218181C1.3484 0.156995 1.36924 0.0968296 1.38313 0.035644C1.40893 0.0366637 1.43075 0.0356439 1.45358 0.0336044Z" fill="#DBB56D"/>
<path d="M36.255 0.00203957C36.2708 0.0550671 36.2956 0.107075 36.3006 0.161122C36.3522 0.826006 36.3929 1.49191 36.4504 2.15577C36.503 2.75539 36.5913 3.35297 36.633 3.95259C36.6915 4.80205 36.8076 5.65254 36.6925 6.50608C36.635 6.93132 36.5536 7.35248 36.4693 7.77364C36.3562 8.33961 36.0456 8.76383 35.5485 9.031C35.3024 9.16255 35.0425 9.27167 34.7845 9.3767C34.3529 9.5521 33.9104 9.69997 33.4887 9.89576C33.3379 9.96612 33.2258 10.1374 33.1097 10.2741C32.8011 10.6381 32.5044 11.0134 32.1949 11.3765C31.9091 11.7109 31.6134 12.0383 31.3178 12.3646C31.2334 12.4584 31.1441 12.5604 30.9725 12.5216C31.0786 12.1678 31.1799 11.8211 31.285 11.4774C31.4745 10.8574 31.6224 10.2302 31.6045 9.57454C31.5946 9.21558 31.4329 8.92699 31.2096 8.66695C31.1223 8.56497 31.038 8.46096 30.9368 8.33757C30.7959 8.58333 30.6758 8.77708 30.5687 8.979C30.0944 9.87333 29.632 10.7748 29.1488 11.665C28.6716 12.5441 28.1765 13.4119 27.6863 14.2828C27.5474 14.5296 27.3916 14.7672 27.2547 15.016C27.2249 15.071 27.224 15.1638 27.2468 15.225C27.2914 15.3454 27.3609 15.4555 27.4353 15.5993C27.2954 15.6085 27.1704 15.6064 27.0513 15.6289C26.9898 15.6401 26.9045 15.6829 26.8836 15.7339C26.8271 15.8756 26.7705 16.0276 26.7646 16.1775C26.7457 16.6588 26.7517 17.1412 26.7398 17.6235C26.7388 17.6765 26.6941 17.7571 26.6495 17.7765C26.5046 17.8387 26.3578 17.8479 26.194 17.802C25.5848 17.6327 25.0451 17.2951 24.4627 17.0647C24.1571 16.9433 23.9398 16.7139 23.7175 16.4885C23.3266 16.0908 22.9376 15.69 22.5676 15.2719C22.4812 15.174 22.4664 15.0027 22.4376 14.861C22.4306 14.8294 22.4931 14.7631 22.5368 14.7437C23.0101 14.5326 23.4853 14.3266 23.9596 14.1186C24.0132 14.0951 24.0688 14.0707 24.1124 14.034C24.2235 13.9412 24.3178 13.8453 24.2265 13.674C24.1729 13.572 24.1541 13.4517 24.1114 13.314C24.2265 13.3262 24.3247 13.3232 24.414 13.3487C24.6115 13.4048 24.7167 13.2916 24.8149 13.1478C24.9726 12.9153 25.1225 12.6756 25.2931 12.4533C25.9559 11.5937 26.6247 10.7401 27.2934 9.88454C27.9215 9.08097 28.5475 8.27434 29.1806 7.47485C29.7739 6.72634 30.3752 5.98396 30.9745 5.24055C31.159 5.01213 31.1888 4.81021 31.034 4.56343C30.9596 4.44616 30.9596 4.35438 31.0459 4.26056C31.3575 3.91792 31.666 3.5712 31.9875 3.23774C32.1403 3.07968 32.3338 2.97056 32.3884 2.72072C32.4231 2.56266 32.5798 2.54328 32.7049 2.60549C32.9172 2.71154 33.1196 2.84207 33.323 2.96546C33.4371 3.03481 33.5453 3.11639 33.6604 3.18369C33.9491 3.35093 33.9729 3.59568 33.7248 3.80983C33.6862 3.84348 33.6633 3.90976 33.6544 3.96381C33.5671 4.5155 33.329 5.00397 33.0541 5.4751C32.9698 5.61888 32.8676 5.74023 32.6513 5.70556C32.3685 5.66069 32.1185 5.8779 32.0629 6.16853C32.056 6.20321 32.0818 6.26031 32.1105 6.28377C32.436 6.54585 32.7803 6.5591 33.1514 6.37963C33.4659 6.22768 33.7219 6.00639 33.9173 5.72188C34.3221 5.13246 34.7468 4.55323 35.0951 3.93016C35.5257 3.1582 35.7083 2.28732 35.8849 1.42155C35.9702 1.00242 36.0535 0.582284 36.1409 0.162142C36.1528 0.106055 36.1786 0.0540473 36.1974 0C36.2173 0.00407904 36.2361 0.00305933 36.255 0.00203957Z" fill="#DBB56D"/>
<path d="M26.4679 24.4478C26.4431 24.6967 26.4133 24.9139 26.4004 25.1321C26.3449 26.0845 26.2933 27.038 26.2427 27.9905C26.2367 28.1027 26.2347 28.2199 26.2586 28.328C26.2715 28.3882 26.331 28.4667 26.3866 28.4851C26.8648 28.6482 27.342 28.8165 27.8282 28.9501C28.6131 29.1652 29.4038 29.3549 30.1916 29.5558C30.2244 29.564 30.2551 29.5772 30.3286 29.6017C30.2542 29.6384 30.2125 29.6609 30.1698 29.6802C29.0595 30.1626 27.9473 30.6419 26.839 31.1293C26.7209 31.1813 26.6296 31.1823 26.5136 31.1222C25.6007 30.6521 24.67 30.2156 23.7771 29.7088C23.4556 29.5262 23.1897 29.5375 22.8752 29.6272C22.3334 29.7812 21.7827 29.9066 21.244 30.0718C20.9681 30.1565 20.7092 30.3002 20.4433 30.4185C20.3966 30.4389 20.355 30.4705 20.2905 30.5093C20.4701 30.6327 20.6219 30.7683 20.7975 30.8519C21.1973 31.0436 21.5268 31.3333 21.879 31.5953C22.256 31.8758 22.3106 32.2623 22.3285 32.6763C22.3364 32.8517 22.254 32.9934 22.1062 33.0974C21.998 33.1739 21.8949 33.2647 21.8075 33.3656C21.7252 33.4595 21.6726 33.4737 21.5903 33.3677C21.4494 33.1862 21.2985 33.0138 21.1507 32.8374C20.608 32.1878 19.9154 31.7605 19.1852 31.3669C18.825 31.1732 18.5839 31.3373 18.318 31.477C17.9836 31.6535 17.6423 31.834 17.3516 32.0736C16.9924 32.3704 16.6808 32.7263 16.3524 33.0618C16.2582 33.1576 16.1778 33.2688 16.0974 33.3779C16.03 33.4686 15.9774 33.4615 15.903 33.3809C15.8077 33.279 15.7055 33.179 15.5934 33.0985C15.4466 32.9934 15.3751 32.8547 15.3662 32.6783C15.3513 32.3653 15.4485 32.0787 15.5775 31.8024C15.5874 31.782 15.6033 31.7605 15.6222 31.7483C16.023 31.476 16.3495 31.0997 16.8039 30.9009C17.0132 30.8101 17.1958 30.6521 17.42 30.5052C17.2176 30.4063 17.048 30.3227 16.8763 30.2391C16.0954 29.8597 15.2412 29.7516 14.4176 29.5303C14.3472 29.5109 14.2529 29.5303 14.1845 29.564C13.5217 29.8944 12.8609 30.2289 12.203 30.5684C11.8558 30.7479 11.5164 30.9447 11.1682 31.1212C11.0958 31.1579 10.9836 31.1732 10.9122 31.1436C10.1522 30.8326 9.39314 30.5164 8.64006 30.1881C8.22631 30.0076 7.82248 29.8006 7.39683 29.5976C7.44148 29.5803 7.48018 29.5619 7.51986 29.5517C8.48131 29.3029 9.44572 29.0623 10.4042 28.8043C10.7167 28.7196 11.0213 28.5983 11.323 28.4779C11.3775 28.4565 11.4391 28.3576 11.4371 28.2954C11.4202 27.5265 11.4033 26.7576 11.3646 25.9897C11.3408 25.5196 11.2773 25.0515 11.2347 24.5824C11.2307 24.5447 11.2426 24.5049 11.2486 24.4529C11.325 24.4866 11.3944 24.5039 11.45 24.5437C12.0096 24.9424 12.6505 25.1637 13.2726 25.4258C13.5634 25.5482 13.736 25.7021 13.7995 26.055C13.9196 26.7219 14.121 27.3735 14.2777 28.0343C14.3273 28.2434 14.4593 28.3219 14.6409 28.3647C14.9465 28.4361 15.2511 28.5085 15.5537 28.5881C15.7015 28.6268 15.8166 28.6921 15.8702 28.8746C15.9595 29.1785 16.1599 29.3009 16.4755 29.307C16.7364 29.3121 16.9984 29.3366 17.2583 29.3192C17.7246 29.2866 18.1166 29.4967 18.5115 29.6945C18.7466 29.8128 18.9629 29.8271 19.1871 29.6894C19.1971 29.6833 19.209 29.6802 19.2189 29.6741C19.7835 29.306 20.4175 29.2917 21.0515 29.3131C21.4454 29.3264 21.6954 29.1805 21.8095 28.7879C21.8234 28.742 21.883 28.6921 21.9306 28.6768C22.2749 28.5717 22.6172 28.4565 22.9674 28.3831C23.2135 28.3311 23.3772 28.2464 23.4387 27.9701C23.6044 27.2206 23.789 26.4741 23.9735 25.7287C23.9864 25.6777 24.045 25.6216 24.0966 25.5991C24.5361 25.3982 24.9846 25.2157 25.4201 25.0067C25.7446 24.8506 26.0542 24.661 26.3717 24.4866C26.3905 24.4774 26.4114 24.4713 26.4679 24.4478Z" fill="#DBB56D"/>
<path d="M17.7505 28.9123C17.3079 28.9123 16.8813 28.9215 16.4547 28.9041C16.3743 28.9011 16.2632 28.8072 16.2264 28.7257C16.0627 28.3647 15.9199 27.9925 15.771 27.6243C15.7651 27.609 15.769 27.5907 15.7671 27.5468C15.8683 27.556 15.9635 27.5652 16.0588 27.5744C16.3574 27.6039 16.5866 27.5305 16.7563 27.2337C17.05 26.7208 17.3764 26.2272 17.7038 25.7357C17.7951 25.5981 17.811 25.4767 17.7693 25.3227C17.7058 25.0912 17.7763 25.0239 18.0104 25.0127C18.1106 25.0076 18.2337 24.9607 18.3021 24.8883C18.4916 24.6894 18.6821 24.4824 18.83 24.2509C19.5771 23.0782 20.3113 21.8973 21.0485 20.7185C21.2271 20.433 21.4117 20.1515 21.5734 19.8558C21.7322 19.5651 21.6449 19.3428 21.367 19.1725C21.123 19.0236 20.8819 18.8635 20.6636 18.6779C20.5485 18.58 20.4751 18.424 20.3996 18.2843C20.0018 17.5501 19.6089 16.8128 19.215 16.0765C19.21 16.0674 19.214 16.0541 19.214 16.0204C19.5315 16.0816 19.844 16.153 20.1615 16.2009C20.5505 16.2591 20.9434 16.3427 21.3323 16.3305C21.6111 16.3223 21.886 16.1775 22.1618 16.0888C22.2273 16.0674 22.2858 16.0255 22.3503 15.997C22.4773 15.9409 22.5845 15.9491 22.6966 16.0582C23.0964 16.4477 23.4933 16.8424 23.916 17.2044C24.0886 17.3523 24.3218 17.4277 24.5302 17.5307C24.8913 17.7092 25.2535 17.8836 25.6156 18.059C25.7595 18.1283 25.7555 18.2598 25.7595 18.3924C25.7674 18.7004 25.7367 19.0185 25.8032 19.3143C25.8647 19.5917 26.0115 19.8558 26.1554 20.1046C26.3806 20.4931 26.6356 20.8643 26.8767 21.2437C26.8886 21.262 26.8926 21.2845 26.9095 21.3293C26.6108 21.2967 26.332 21.2671 26.0532 21.2345C25.4648 21.1672 24.8765 21.106 24.2901 21.0254C24.1293 21.003 23.9646 20.9398 23.8247 20.8562C23.5806 20.7093 23.3435 20.5431 23.1222 20.3626C22.8682 20.1556 22.4952 20.3371 22.3047 20.592C22.0646 20.9133 21.8631 21.2641 21.6439 21.6006C20.9077 22.7305 20.1665 23.8573 19.4382 24.9913C19.3221 25.1728 19.2437 25.3839 19.1743 25.5909C19.1485 25.6684 19.1812 25.7775 19.214 25.8622C19.2755 26.0253 19.2179 26.1763 19.0453 26.1752C18.827 26.1742 18.7278 26.3058 18.6216 26.4608C18.2992 26.9329 17.9777 27.4061 17.6433 27.8691C17.4806 28.0944 17.4895 28.3208 17.5838 28.5584C17.6264 28.6788 17.6919 28.7919 17.7505 28.9123Z" fill="#DBB56D"/>
<path d="M10.7306 21.3517C10.8735 21.1222 11.0124 20.9121 11.1384 20.6939C11.3676 20.2942 11.6325 19.9077 11.7982 19.4814C11.9083 19.1969 11.9024 18.8512 11.8945 18.5341C11.8865 18.223 11.8865 18.1608 12.1554 18.0303C12.6277 17.8019 13.1069 17.5877 13.5723 17.345C13.733 17.2614 13.863 17.1125 13.9999 16.9861C14.3154 16.6954 14.6309 16.4048 14.9365 16.1029C15.0625 15.9785 15.1806 15.9755 15.3285 16.0407C15.5299 16.1284 15.7363 16.2049 15.9416 16.2845C16.3028 16.4252 16.6729 16.3834 17.039 16.3212C17.4508 16.2508 17.8586 16.1611 18.2683 16.0795C18.318 16.0693 18.3686 16.0632 18.4539 16.0499C18.314 16.314 18.189 16.5516 18.063 16.7872C17.7643 17.346 17.4686 17.9079 17.1611 18.4616C17.0916 18.5861 16.9894 18.7023 16.8773 18.79C16.6699 18.9522 16.4447 19.0908 16.2264 19.2356C16.0875 19.3274 15.9922 19.6181 16.0825 19.8159C16.2125 20.0994 16.3693 20.3706 16.53 20.6368C16.7414 20.9866 16.9666 21.3272 17.1878 21.6698C17.4478 22.0726 17.7167 22.4693 17.9687 22.8772C18.1731 23.2066 18.3596 23.5462 18.5501 23.8837C18.569 23.9184 18.5769 23.9847 18.5571 24.0132C18.3963 24.2427 18.2287 24.466 18.0362 24.7271C17.8486 24.4538 17.6909 24.2366 17.545 24.0102C16.8376 22.917 16.1391 21.8187 15.4237 20.7327C15.3146 20.5664 15.1449 20.4308 14.9772 20.3227C14.8998 20.2727 14.7401 20.287 14.6538 20.338C14.373 20.5042 14.1001 20.6878 13.8402 20.8877C13.5871 21.0824 13.2925 21.0661 13.0087 21.1018C12.2834 21.1946 11.5561 21.2731 10.8298 21.3568C10.804 21.3608 10.7762 21.3547 10.7306 21.3517Z" fill="#DBB56D"/>
<path d="M4.40434 25.4777C5.17428 25.6204 5.90157 25.7703 6.63381 25.8835C7.05153 25.9488 7.47718 25.96 7.89986 25.9804C7.96435 25.9835 8.05365 25.9162 8.09334 25.855C8.13501 25.7907 8.137 25.6959 8.14493 25.6143C8.24316 24.5823 8.33841 23.5493 8.43565 22.5173C8.43863 22.4908 8.45152 22.4643 8.51502 22.3939C8.5557 22.4571 8.59341 22.5224 8.63607 22.5846C9.00716 23.1292 9.51417 23.5136 10.0668 23.8369C10.167 23.896 10.2097 23.9552 10.2137 24.0694C10.2613 25.2492 10.3119 26.4281 10.3655 27.6069C10.3714 27.7385 10.3248 27.7986 10.2037 27.8364C9.10836 28.1729 8.00801 28.49 6.86499 28.6053C6.79157 28.6124 6.69136 28.5798 6.63877 28.5278C5.89264 27.7956 5.24572 26.9808 4.70398 26.0783C4.62758 25.9519 4.54324 25.8295 4.47379 25.6989C4.43807 25.6327 4.42617 25.5521 4.40434 25.4777Z" fill="#DBB56D"/>
<path d="M33.3002 25.4624C33.2724 25.5532 33.2635 25.6368 33.2238 25.701C32.7535 26.4679 32.2882 27.2388 31.6512 27.8803C31.4448 28.0883 31.2632 28.3208 31.0578 28.5288C31.0062 28.5808 30.906 28.6125 30.8316 28.6063C29.8722 28.5268 28.9514 28.2504 28.0247 28.0067C27.8342 27.9567 27.6447 27.8945 27.4631 27.8181C27.4065 27.7946 27.3381 27.7018 27.3401 27.6437C27.3837 26.4404 27.4363 25.237 27.4929 24.0337C27.4958 23.9756 27.5415 23.895 27.5901 23.8675C28.0931 23.583 28.5386 23.2271 28.9216 22.7866C28.9673 22.7335 29.002 22.6693 29.0457 22.6142C29.0982 22.5479 29.1558 22.4857 29.2441 22.3837C29.2798 22.708 29.3116 22.9772 29.3374 23.2475C29.4118 24.0429 29.4822 24.8383 29.5556 25.6337C29.5626 25.7102 29.5656 25.7999 29.6062 25.8571C29.6489 25.9172 29.7362 25.9855 29.8007 25.9815C30.5994 25.9325 31.3982 25.8826 32.182 25.6908C32.5352 25.6052 32.8954 25.544 33.3002 25.4624Z" fill="#DBB56D"/>
<path d="M2.90118 21.8932C3.22266 22.0278 3.52528 22.1828 3.84377 22.2807C4.34285 22.4357 4.85284 22.553 5.35787 22.6855C5.40252 22.6978 5.44915 22.7029 5.4938 22.7151C5.8242 22.8048 5.82024 22.7967 5.94525 22.4744C6.24192 21.7106 6.55049 20.9519 6.85609 20.1912C6.86701 20.1647 6.88685 20.1433 6.92555 20.0841C6.99996 20.231 7.05652 20.3564 7.12498 20.4757C7.30754 20.7928 7.48515 21.1131 7.68359 21.42C7.78479 21.577 7.84532 21.7178 7.8086 21.9146C7.65977 22.7233 7.5288 23.535 7.38493 24.3447C7.34525 24.567 7.2877 24.7862 7.22519 25.0024C7.21328 25.0432 7.13688 25.0962 7.09422 25.0922C6.24192 25.0208 5.4045 24.8729 4.58296 24.6231C4.32201 24.5435 4.1206 24.4099 3.99558 24.1601C3.64037 23.4493 3.28616 22.7386 2.93293 22.0278C2.91309 21.989 2.9111 21.9411 2.90118 21.8932Z" fill="#DBB56D"/>
<path d="M30.79 20.0861C30.8286 20.1718 30.8574 20.2289 30.8802 20.287C31.1958 21.0692 31.5123 21.8503 31.8218 22.6345C31.8734 22.765 31.9488 22.7905 32.0659 22.7579C32.7267 22.5774 33.3905 22.4091 34.0474 22.2133C34.3004 22.1379 34.5355 22.0002 34.8014 21.8819C34.7865 21.9441 34.7836 21.9961 34.7627 22.04C34.4284 22.7212 34.09 23.4003 33.7547 24.0815C33.6038 24.3895 33.3637 24.5608 33.0403 24.6516C32.2376 24.878 31.423 25.0269 30.5945 25.0942C30.5538 25.0972 30.4774 25.0238 30.4675 24.9749C30.3822 24.5741 30.3058 24.1713 30.2313 23.7675C30.1133 23.123 29.9942 22.4785 29.888 21.8309C29.8722 21.7371 29.897 21.6076 29.9525 21.5342C30.2512 21.1344 30.4973 20.7041 30.6878 20.2401C30.7056 20.1942 30.7423 20.1555 30.79 20.0861Z" fill="#DBB56D"/>
<path d="M17.6066 24.77C17.4141 24.9148 17.3774 25.1106 17.4071 25.3196C17.428 25.4665 17.3873 25.5827 17.3069 25.698C17.2236 25.8183 17.1482 25.9448 17.0549 26.0916C16.8267 25.8907 16.6164 25.697 16.3981 25.5144C16.0439 25.2187 15.6509 24.9648 15.3344 24.6323C14.5347 23.7941 13.7608 22.9293 13.0811 21.982C12.976 21.8351 12.8787 21.6811 12.7557 21.4966C12.9214 21.4792 13.0573 21.4537 13.1923 21.4537C13.6646 21.4548 14.0505 21.2416 14.4117 20.9581C14.4851 20.9 14.5615 20.8439 14.6409 20.797C14.8225 20.6899 14.9743 20.7216 15.0884 20.899C15.5864 21.675 16.0766 22.4551 16.5767 23.2291C16.8614 23.6707 17.1601 24.1041 17.4518 24.5406C17.4984 24.6099 17.5451 24.6782 17.6066 24.77Z" fill="#DBB56D"/>
<path d="M31.9111 17.4695C32.1224 17.854 32.3239 18.2282 32.5312 18.5984C32.6523 18.8146 32.7852 19.0257 32.9073 19.2408C32.9638 19.3408 33.0353 19.354 33.1395 19.3326C33.4857 19.2602 33.7635 19.0512 34.0562 18.8707C34.594 18.5392 34.9939 18.0579 35.3947 17.5766C35.4314 17.5327 35.4701 17.4909 35.5088 17.4481C35.5287 17.4511 35.5475 17.4552 35.5674 17.4583C35.5525 17.755 35.5495 18.0528 35.5197 18.3475C35.4394 19.144 35.1546 19.8863 34.9294 20.644C34.9076 20.7185 34.8351 20.7949 34.7657 20.8357C34.0572 21.2528 33.3111 21.5751 32.5183 21.7831C32.4003 21.8137 32.3626 21.7851 32.3139 21.6781C31.9746 20.9387 31.6244 20.2055 31.283 19.4672C31.2592 19.4162 31.2523 19.3408 31.2701 19.2877C31.4656 18.6963 31.668 18.1069 31.8694 17.5164C31.8724 17.5062 31.8833 17.4991 31.9111 17.4695Z" fill="#DBB56D"/>
<path d="M2.18978 17.446C2.40013 17.6897 2.60552 17.9396 2.82281 18.1772C3.26731 18.6605 3.79219 19.0287 4.39048 19.2805C4.68219 19.4029 4.73081 19.3744 4.88559 19.0939C5.17035 18.581 5.45115 18.067 5.73392 17.5531C5.74781 17.5286 5.76468 17.5062 5.79742 17.4562C5.86886 17.6795 5.92939 17.8794 5.99785 18.0762C6.13676 18.4739 6.28261 18.8696 6.41953 19.2683C6.43938 19.3264 6.44136 19.41 6.41656 19.4641C6.07524 20.2024 5.724 20.9356 5.38665 21.6749C5.33109 21.7963 5.28346 21.8075 5.16539 21.7769C4.37759 21.5719 3.6374 21.2487 2.93493 20.8357C2.86646 20.7949 2.79304 20.7204 2.77022 20.645C2.544 19.8873 2.26023 19.1449 2.17887 18.3485C2.1491 18.0548 2.14414 17.758 2.12827 17.4623C2.1491 17.4582 2.16994 17.4521 2.18978 17.446Z" fill="#DBB56D"/>
<path d="M20.6626 26.2139C20.5058 25.96 20.3718 25.7714 20.2686 25.5664C20.226 25.4817 20.2399 25.3614 20.2448 25.2594C20.2538 25.0963 20.224 24.9566 20.1119 24.8311C20.0841 24.8005 20.0841 24.6996 20.1109 24.669C20.2448 24.515 20.3778 24.3529 20.5385 24.2305C21.109 23.7951 21.626 23.3005 22.0864 22.7488C22.5338 22.2114 22.9535 21.6495 23.407 21.0703C23.7939 21.4853 24.3555 21.4119 24.8983 21.5037C23.7582 23.3494 22.2818 24.825 20.6626 26.2139Z" fill="#DBB56D"/>
<path d="M35.2846 14.554C35.3372 14.8181 35.3997 15.0802 35.4404 15.3463C35.4712 15.5513 35.4732 15.7614 35.492 15.9694C35.5089 16.156 35.4692 16.3171 35.3531 16.4691C34.8342 17.1482 34.2359 17.7428 33.5671 18.2628C33.3479 18.4331 33.2963 18.4148 33.1534 18.1812C32.8389 17.6652 32.5174 17.1554 32.2058 16.6383C32.1671 16.5741 32.1443 16.4793 32.1582 16.4069C32.2664 15.8164 32.3844 15.228 32.5045 14.6192C32.6454 14.8976 32.7754 15.1658 32.9153 15.4279C33.0482 15.6777 33.1861 15.9266 33.333 16.1682C33.4223 16.3151 33.5165 16.3294 33.6515 16.209C33.8182 16.0612 33.971 15.897 34.1228 15.7328C34.4631 15.3657 34.7995 14.9945 35.1378 14.6253C35.1606 14.5998 35.1894 14.5794 35.2152 14.556C35.239 14.556 35.2618 14.555 35.2846 14.554Z" fill="#DBB56D"/>
<path d="M2.45768 14.5224C2.80991 14.9027 3.13238 15.2525 3.45583 15.6013C3.63641 15.795 3.81203 15.9939 4.00353 16.1764C4.17915 16.3437 4.28432 16.3253 4.40339 16.1101C4.67128 15.6237 4.93124 15.1332 5.20409 14.6264C5.26561 14.966 5.32514 15.3004 5.38765 15.6329C5.42932 15.8552 5.46702 16.0795 5.52457 16.2978C5.56426 16.4487 5.54541 16.5711 5.46405 16.7016C5.13067 17.2329 4.80324 17.7683 4.4778 18.3047C4.41628 18.4056 4.33988 18.3903 4.27043 18.3424C4.06405 18.1996 3.83882 18.0732 3.66519 17.8947C3.20679 17.4226 2.76725 16.9321 2.33266 16.4365C2.25825 16.3518 2.20368 16.208 2.21261 16.0969C2.24932 15.6472 2.31282 15.1995 2.37136 14.7508C2.3793 14.6845 2.41799 14.6223 2.45768 14.5224Z" fill="#DBB56D"/>
<path d="M4.17019 15.2331C3.96282 15.0302 3.75942 14.8375 3.56495 14.6366C3.32781 14.3918 3.08968 14.1471 2.86842 13.8871C2.81683 13.8259 2.79103 13.6964 2.81484 13.6178C3.1512 12.5502 3.58975 11.5273 4.11562 10.5443C4.12356 10.529 4.13646 10.5157 4.16622 10.4749C4.37955 10.7217 4.59188 10.9603 4.79429 11.2071C4.83 11.251 4.83199 11.3315 4.83397 11.3958C4.85679 12.0546 4.97883 12.696 5.1237 13.3364C5.14652 13.4353 5.13064 13.5679 5.08302 13.6566C4.81214 14.1491 4.52738 14.6335 4.2456 15.12C4.22278 15.1597 4.195 15.1964 4.17019 15.2331Z" fill="#DBB56D"/>
<path d="M33.5483 10.476C33.6366 10.6554 33.704 10.8125 33.7874 10.9604C34.2527 11.7976 34.5762 12.697 34.8808 13.6046C34.9056 13.677 34.9046 13.8004 34.8619 13.8483C34.4353 14.3184 33.9977 14.7773 33.5582 15.2454C33.5274 15.2199 33.5046 15.2097 33.4947 15.1924C33.1921 14.6692 32.8875 14.1481 32.5928 13.6209C32.5561 13.5556 32.5452 13.4557 32.563 13.3813C32.7228 12.7133 32.8428 12.0403 32.8696 11.3509C32.8716 11.2999 32.8845 11.2367 32.9152 11.2C33.1157 10.9634 33.323 10.7319 33.5483 10.476Z" fill="#DBB56D"/>
<path d="M19.1068 26.6097C19.2149 26.5505 19.3022 26.5108 19.3826 26.4577C19.592 26.319 19.6564 26.0967 19.588 25.8795C19.4927 25.5746 19.6793 25.387 19.7924 25.1626C19.7993 25.1484 19.8172 25.1392 19.8718 25.0892C19.8767 25.1973 19.8985 25.2738 19.8797 25.338C19.8291 25.5032 19.8519 25.6317 19.9501 25.7827C20.2815 26.2915 20.5941 26.8126 20.9086 27.3327C21.0505 27.5683 21.2698 27.6121 21.5089 27.6131C21.6289 27.6131 21.749 27.5948 21.8929 27.5825C21.7798 27.863 21.6756 28.1189 21.5724 28.3759C21.5287 28.486 21.4811 28.5952 21.4454 28.7083C21.3988 28.8542 21.3154 28.948 21.1586 28.949C20.7429 28.95 20.3272 28.95 19.9015 28.95C19.9075 28.9307 19.9105 28.9031 19.9234 28.8797C20.2845 28.224 20.1684 28.1383 19.839 27.658C19.719 27.4826 19.59 27.3143 19.4689 27.14C19.3469 26.9656 19.2288 26.7892 19.1068 26.6097Z" fill="#DBB56D"/>
<path d="M26.1018 18.9533C26.1018 18.7126 26.1018 18.472 26.1018 18.216C26.207 18.2211 26.3022 18.2262 26.4401 18.2344C26.3399 18.4903 26.2466 18.7269 26.1544 18.9645C26.1365 18.9604 26.1187 18.9574 26.1018 18.9533Z" fill="#DBB56D"/>
<path d="M11.2158 18.2608C11.2436 18.2445 11.2535 18.2343 11.2634 18.2333C11.3488 18.2262 11.4341 18.22 11.5393 18.2119C11.5393 18.4658 11.5393 18.7126 11.5393 18.9594C11.5254 18.9624 11.5105 18.9655 11.4966 18.9675C11.4023 18.732 11.3091 18.4954 11.2158 18.2608Z" fill="#DBB56D"/>
<path d="M18.5442 27.249C18.6384 27.1226 18.7238 27.0073 18.825 26.8727C18.8984 26.9747 18.9609 27.0624 19.0234 27.1501C18.8716 27.3275 18.7099 27.3653 18.5442 27.249Z" fill="#DBB56D"/>
</svg>
