<svg width="32" height="33" viewBox="0 0 32 33" fill="none" xmlns="http://www.w3.org/2000/svg">
<path d="M15.0645 19.9203C15.1667 20.1146 15.2696 20.3105 15.3734 20.5086C15.2024 20.6147 15.1334 20.4984 15.0721 20.3949L15.0715 20.3939C14.9718 20.2177 14.8752 20.0396 14.7785 19.8614C14.6768 19.6737 14.575 19.486 14.4695 19.3005C14.2537 18.9193 14.0348 18.5395 13.816 18.1597C13.6775 17.9195 13.5391 17.6793 13.4015 17.4389C13.2848 17.2351 13.169 17.0308 13.0531 16.8266C12.8929 16.5441 12.7326 16.2615 12.5702 15.9802C12.5307 15.9113 12.4766 15.8333 12.4096 15.803C12.1894 15.7048 11.9535 15.6919 11.7572 15.8443C11.5553 16.0004 11.4305 16.2189 11.5241 16.4823L11.5305 16.5003C11.6084 16.719 11.6903 16.949 11.8287 17.1295C12.1912 17.6014 12.5793 18.0548 12.9739 18.501C13.3029 18.8725 13.6365 19.2399 13.9701 19.6073C14.2646 19.9316 14.5591 20.2559 14.8503 20.583C14.8885 20.6262 14.9011 20.6921 14.9137 20.7582C14.9195 20.7889 14.9254 20.8197 14.9338 20.8483C14.9085 20.8352 14.8814 20.8238 14.8542 20.8125C14.7957 20.788 14.7372 20.7636 14.6971 20.7216C14.5416 20.5586 14.3897 20.3925 14.2379 20.2263C14.086 20.0602 13.9341 19.894 13.7786 19.7311C13.6185 19.5636 13.4537 19.4008 13.2888 19.2379C13.16 19.1107 13.0309 18.9831 12.9042 18.8535C12.7701 18.7163 12.6374 18.5778 12.5047 18.4393C12.2858 18.2109 12.067 17.9825 11.8425 17.7602C11.7746 17.6931 11.6544 17.6491 11.5571 17.6454C11.0773 17.6289 10.8313 18.0521 11.0442 18.4844C11.1219 18.642 11.2508 18.7312 11.3805 18.8208C11.4253 18.8518 11.4702 18.8829 11.5131 18.9168C11.678 19.0467 11.8421 19.1775 12.0062 19.3084C12.3142 19.554 12.6223 19.7997 12.9353 20.0386C13.2367 20.269 13.5431 20.4926 13.8495 20.7162C14.0179 20.839 14.1863 20.962 14.3539 21.086C14.5075 21.1997 14.6606 21.3141 14.8137 21.4284C15.0721 21.6214 15.3304 21.8143 15.5908 22.004C15.8404 22.1848 16.157 22.1802 16.4065 21.9976C17.0901 21.4963 17.771 20.9924 18.4518 20.4875C19.0042 20.0781 19.5566 19.6668 20.1053 19.2519L20.1693 19.2037C20.3797 19.0454 20.5913 18.8863 20.7779 18.7029C20.8898 18.5928 20.966 18.4294 21.0128 18.2761C21.0752 18.0686 20.9412 17.8125 20.7559 17.7051C20.5632 17.5931 20.2925 17.617 20.1237 17.7776C20.0048 17.8907 19.8923 18.0101 19.7798 18.1295C19.7316 18.1806 19.6833 18.2318 19.6346 18.2825L19.2344 18.698C18.839 19.1085 18.4435 19.5191 18.049 19.9303C17.9481 20.0355 17.8477 20.1413 17.7472 20.2472C17.5681 20.4359 17.3889 20.6248 17.2067 20.8106C17.1855 20.8324 17.1491 20.839 17.1126 20.8456C17.0954 20.8487 17.0782 20.8518 17.0626 20.8565C17.0615 20.8395 17.059 20.8222 17.0565 20.805C17.051 20.7674 17.0455 20.7299 17.0544 20.6959C17.0637 20.6601 17.092 20.6293 17.1196 20.5992C17.1274 20.5907 17.1352 20.5822 17.1424 20.5738C17.2034 20.5024 17.2642 20.4309 17.3251 20.3594C17.5278 20.1209 17.7307 19.8824 17.9389 19.6494C18.0393 19.5369 18.1396 19.4243 18.2398 19.3117C18.6845 18.8122 19.1289 18.3128 19.5887 17.8281C19.8979 17.5022 20.1622 17.1534 20.3797 16.7632C20.5457 16.4658 20.5265 16.1592 20.3127 15.9141C20.0989 15.6681 19.5878 15.68 19.4401 15.938C19.0051 16.6971 18.572 17.4572 18.1408 18.2182C17.8823 18.6748 17.6257 19.1333 17.3691 19.5917L17.3686 19.5927C17.3181 19.6827 17.2678 19.7736 17.218 19.8639C17.1183 20.0444 17.0185 20.225 16.914 20.403C16.8562 20.5022 16.7855 20.6206 16.6277 20.5013C16.6482 20.4639 16.6687 20.4272 16.6889 20.3909C16.7337 20.3105 16.7774 20.2321 16.8185 20.1524C16.9525 19.8933 17.0861 19.634 17.2197 19.3746C17.4064 19.0121 17.5933 18.6493 17.7811 18.2871C17.8639 18.1275 17.9467 17.9678 18.0296 17.8081C18.3044 17.2781 18.5794 16.7479 18.8565 16.2189C18.8958 16.1442 18.9372 16.0704 18.9787 15.9967C19.1437 15.7035 19.3085 15.4106 19.3327 15.0585L19.3362 15.0113C19.358 14.719 19.3799 14.4244 19.0987 14.2232C18.7014 13.9386 18.0527 14.2498 17.9692 14.7473C17.9354 14.949 17.8809 15.1476 17.8266 15.3457C17.8131 15.3947 17.7997 15.4438 17.7866 15.4927C17.7026 15.8049 17.6173 16.1165 17.532 16.4282C17.4466 16.7398 17.3613 17.0515 17.2773 17.3636C17.2304 17.5371 17.1862 17.7114 17.142 17.8856C17.1016 18.0449 17.0611 18.2047 17.0186 18.3633C16.9353 18.6754 16.8496 18.9864 16.7639 19.2975C16.7193 19.4594 16.6747 19.6213 16.6304 19.7834C16.6148 19.8408 16.6004 19.8986 16.586 19.9565C16.5563 20.0756 16.5265 20.1948 16.4864 20.3103C16.4738 20.346 16.4331 20.3724 16.3924 20.3986C16.3735 20.4108 16.3547 20.423 16.3386 20.4361C16.3325 20.4189 16.325 20.4019 16.3174 20.3848C16.3011 20.3481 16.2848 20.3115 16.2836 20.2745C16.2808 20.1873 16.2909 20.0973 16.3111 20.012C16.3446 19.8756 16.3808 19.7397 16.4171 19.6038C16.4465 19.4937 16.4759 19.3835 16.5038 19.273C16.5297 19.1705 16.5542 19.0676 16.5787 18.9647C16.6097 18.8346 16.6407 18.7045 16.6745 18.5753C16.6961 18.4937 16.7205 18.4127 16.7449 18.3318C16.7835 18.2035 16.8222 18.0753 16.8497 17.9447C16.8778 17.8104 16.8981 17.6747 16.9184 17.539C16.9398 17.3954 16.9613 17.2518 16.992 17.1102C17.0473 16.8593 17.112 16.6107 17.1768 16.3621C17.2044 16.256 17.2321 16.1498 17.259 16.0435C17.2896 15.9215 17.3192 15.7991 17.3487 15.6767C17.4184 15.3884 17.4882 15.0993 17.5719 14.8153C17.6664 14.4967 17.7453 14.1764 17.6728 13.8505C17.6416 13.71 17.5443 13.542 17.426 13.4686C16.8066 13.083 16.3157 13.4594 16.2212 14.0276C16.1739 14.3114 16.1827 14.6044 16.1914 14.8975C16.1953 15.0255 16.1991 15.1535 16.1983 15.2807C16.1961 15.6789 16.1941 16.0769 16.1922 16.475L16.1922 16.4777L16.1922 16.4789C16.1876 17.4111 16.183 18.3429 16.1753 19.2748C16.1735 19.5925 16.1579 19.9101 16.1313 20.2259C16.1269 20.2777 16.0893 20.3266 16.0516 20.3758C16.034 20.3988 16.0162 20.4218 16.0019 20.4453C15.9868 20.4232 15.9682 20.4015 15.9495 20.3797C15.9091 20.3325 15.8687 20.2853 15.8643 20.235C15.8367 19.9193 15.8202 19.6007 15.8193 19.284C15.8156 17.6344 15.8165 15.9857 15.8184 14.3361C15.8193 14.0387 15.7395 13.7752 15.544 13.5475C15.3642 13.3373 15.0889 13.2602 14.8173 13.3502C14.4512 13.4713 14.3227 13.621 14.309 13.9533C14.3078 13.9818 14.3062 14.0104 14.3046 14.0392C14.2976 14.1634 14.2906 14.2893 14.3145 14.4086C14.3458 14.5665 14.39 14.722 14.4342 14.8776C14.4638 14.9817 14.4933 15.0859 14.5191 15.1907C14.643 15.6965 14.7622 16.2023 14.8797 16.7091C14.9494 17.0083 15.0127 17.3084 15.076 17.6086C15.0888 17.668 15.0988 17.7282 15.1088 17.7884C15.1233 17.8752 15.1377 17.962 15.1605 18.0466C15.1892 18.1526 15.2228 18.2576 15.2564 18.3625C15.2914 18.4719 15.3264 18.5813 15.3559 18.6919C15.4513 19.049 15.5431 19.4079 15.6257 19.7678C15.6661 19.9427 15.688 20.1209 15.7099 20.2993L15.7129 20.3232C15.7153 20.3466 15.7004 20.3717 15.6854 20.397C15.678 20.4094 15.6706 20.4219 15.6651 20.4342C15.6534 20.4288 15.6398 20.4243 15.6261 20.4197C15.5959 20.4097 15.5657 20.3997 15.5569 20.3801C15.5092 20.2727 15.4688 20.1616 15.4385 20.0478C15.3963 19.8872 15.3562 19.7263 15.3161 19.5654C15.2681 19.3731 15.2202 19.1808 15.1687 18.9893C15.0889 18.6909 15.006 18.393 14.9231 18.0951C14.8546 17.8487 14.786 17.6021 14.7191 17.3553C14.6687 17.1687 14.6208 16.9816 14.573 16.7945C14.5138 16.5629 14.4546 16.3314 14.3906 16.1014C14.35 15.9546 14.3037 15.8091 14.2574 15.6636C14.1721 15.3952 14.0868 15.1271 14.0374 14.852C13.9768 14.5178 13.8006 14.3159 13.5327 14.1644C13.2143 13.9845 12.783 14.1644 12.6876 14.5188C12.6041 14.8272 12.627 15.1448 12.7491 15.4331C12.8498 15.6711 12.9734 15.8992 13.0971 16.1275C13.1537 16.2319 13.2103 16.3365 13.2648 16.4419C13.4237 16.7502 13.582 17.0587 13.7403 17.3671L13.7412 17.3687C13.9709 17.8163 14.2006 18.2638 14.4319 18.7103C14.64 19.1123 14.8506 19.5131 15.0645 19.9203Z" fill="#DBB56D"/>
<path d="M14.1887 22.0728C14.1381 22.0701 14.0876 22.0675 14.037 22.065C13.86 22.056 13.683 22.0471 13.506 22.0342C13.3491 22.0232 13.2693 21.925 13.2528 21.7735L13.2397 21.6513C13.2145 21.415 13.1892 21.179 13.172 20.9418C13.1688 20.8988 13.1863 20.8544 13.2037 20.8102C13.2111 20.7912 13.2186 20.7724 13.2243 20.7536C13.2445 20.7597 13.2657 20.7644 13.2869 20.7691C13.3332 20.7793 13.3796 20.7896 13.4161 20.8142C13.4875 20.8627 13.5544 20.9168 13.6214 20.9709C13.6725 21.0122 13.7236 21.0535 13.7767 21.0924C13.8997 21.1823 14.0231 21.2715 14.1465 21.3607C14.3557 21.5118 14.5648 21.6629 14.7714 21.8176C14.8042 21.8422 14.824 21.8829 14.8439 21.9238C14.8529 21.9424 14.862 21.961 14.8723 21.9782C14.8544 21.987 14.8366 21.998 14.8188 22.0089C14.7809 22.0323 14.7431 22.0556 14.7044 22.0581C14.5824 22.0659 14.4595 22.0644 14.337 22.0629C14.2881 22.0623 14.2392 22.0617 14.1905 22.0617C14.1887 22.0654 14.1887 22.0691 14.1887 22.0728Z" fill="#DBB56D"/>
<path d="M17.6568 22.0628C17.7036 22.0624 17.7505 22.062 17.7973 22.062C17.7973 22.0565 17.7973 22.051 17.7991 22.0455C17.8646 22.0455 17.9302 22.0461 17.9959 22.0468C18.1521 22.0483 18.3087 22.0498 18.4644 22.0427C18.6405 22.0345 18.7369 21.928 18.7534 21.7499C18.7622 21.6531 18.7717 21.5565 18.7813 21.46C18.7985 21.2856 18.8156 21.1115 18.8286 20.9365C18.8311 20.898 18.8176 20.8582 18.8041 20.8183C18.7976 20.7993 18.7912 20.7802 18.7864 20.7612C18.7637 20.7675 18.7396 20.7717 18.7155 20.776C18.6658 20.7847 18.6164 20.7934 18.58 20.82C18.1193 21.1523 17.6624 21.4901 17.2082 21.8325C17.1669 21.8637 17.1256 21.9427 17.1385 21.9821C17.1504 22.0198 17.2311 22.0556 17.2834 22.0583C17.4075 22.065 17.5321 22.0639 17.6568 22.0628Z" fill="#DBB56D"/>
<path fill-rule="evenodd" clip-rule="evenodd" d="M23.0208 25.7222C23.0273 26.0382 23.0337 26.3513 23.0084 26.6618C22.9369 27.5384 22.468 28.1929 21.7697 28.6978C21.7183 28.7346 21.6642 28.7731 21.6055 28.7942C21.5405 28.817 21.4731 28.8319 21.4058 28.8469C21.3781 28.853 21.3504 28.8591 21.3229 28.8658C21.3288 28.8375 21.3351 28.8092 21.3414 28.7809C21.3555 28.7177 21.3696 28.6545 21.3797 28.5904C21.3891 28.5326 21.4007 28.4746 21.4123 28.4165C21.4418 28.2688 21.4714 28.1207 21.4642 27.9745C21.4477 27.666 21.4568 27.3714 21.5477 27.0703C21.655 26.7187 21.6146 26.3597 21.4688 26.0238C21.3421 25.7318 20.9622 25.6657 20.7283 25.8861C20.7026 25.9099 20.6989 25.9724 20.7053 26.0137C20.7196 26.1156 20.737 26.2174 20.7543 26.3191C20.7871 26.5113 20.82 26.7035 20.832 26.8968C20.8604 27.3622 20.742 27.7955 20.442 28.1627L20.305 28.3305C19.8158 28.9301 19.3261 29.5303 18.8243 30.1189C18.6395 30.3356 18.4394 30.5396 18.2393 30.7436C18.1453 30.8394 18.0514 30.9352 17.959 31.0323C17.6269 31.3811 17.5984 31.9925 17.9141 32.322C17.9667 32.3773 18.047 32.4063 18.1268 32.4352C18.1597 32.4471 18.1925 32.4589 18.2233 32.4726C18.2396 32.48 18.2612 32.4853 18.2818 32.4903C18.3144 32.4983 18.3447 32.5057 18.3481 32.5203C18.3582 32.5681 18.3462 32.6369 18.316 32.6745C18.1113 32.9251 17.8416 33.0555 17.5232 32.9775C16.9735 32.8444 16.5487 32.5258 16.2606 32.0338L16.2468 32.0105C16.2221 31.9689 16.1975 31.9276 16.1743 31.8851C16.0972 31.7437 15.9091 31.7373 15.8256 31.8924C15.8073 31.9261 15.7881 31.9589 15.769 31.9917C15.7594 32.0082 15.7498 32.0246 15.7403 32.0411C15.4568 32.5185 15.0448 32.8306 14.5108 32.971C14.1823 33.0573 13.9097 32.9352 13.695 32.6828C13.6629 32.6442 13.6391 32.5736 13.6519 32.5304C13.6611 32.501 13.74 32.4799 13.7895 32.4763C13.9969 32.4634 14.1905 32.2945 14.2584 32.0402C14.3704 31.6189 14.2841 31.2572 13.9611 30.9423C13.0564 30.061 12.2397 29.1027 11.5029 28.0773C11.1359 27.566 11.113 26.9895 11.2157 26.3955C11.2209 26.3654 11.2322 26.3354 11.2433 26.3057C11.2597 26.262 11.2759 26.2187 11.2726 26.1761C11.2701 26.1415 11.2834 26.1059 11.2966 26.0703C11.3228 26.0003 11.3489 25.9301 11.2552 25.8668C11.079 25.7474 10.8303 25.7236 10.6991 25.8291C10.6358 25.8796 10.5707 25.943 10.5395 26.0146C10.3927 26.3579 10.3789 26.7122 10.4477 27.0813C10.5009 27.3649 10.5294 27.6568 10.5294 27.9451C10.5303 28.1975 10.5367 28.439 10.6588 28.6675C10.678 28.7043 10.6805 28.7495 10.6829 28.7948C10.684 28.8163 10.6852 28.8378 10.6881 28.8585C10.667 28.8567 10.6445 28.8572 10.622 28.8578C10.5752 28.8589 10.5283 28.86 10.4936 28.8401C9.87973 28.4904 9.38332 28.0259 9.15117 27.3401C8.93095 26.6893 8.88691 26.0219 9.0328 25.3454C9.03511 25.3344 9.03343 25.3227 9.03049 25.3023C9.02876 25.2903 9.02659 25.2752 9.02455 25.2554C9.00121 25.2866 8.97937 25.3153 8.95874 25.3423C8.91692 25.3971 8.88002 25.4455 8.84562 25.4959C8.45473 26.0669 7.87207 26.3331 7.23068 26.4956C6.60856 26.6535 5.9791 26.5984 5.35331 26.5213C4.94958 26.4717 4.70183 26.2074 4.53208 25.8558C4.34398 25.4665 4.27699 25.0553 4.33205 24.6293C4.37793 24.2787 4.75046 23.984 5.07253 24.0216C5.40653 24.0602 5.61849 24.3604 5.61115 24.7643C5.61071 24.7867 5.60976 24.81 5.60879 24.8339C5.60378 24.9579 5.59823 25.0949 5.65978 25.1719C5.76714 25.3065 5.93618 25.286 6.09759 25.2663C6.13201 25.2622 6.16627 25.258 6.19932 25.2554C6.26228 25.25 6.32523 25.2287 6.38707 25.2078C6.39413 25.2055 6.40152 25.203 6.40855 25.2006C6.41252 25.1993 6.41649 25.198 6.42046 25.1967C6.85631 25.0516 6.98752 24.8432 6.96917 24.3833C6.94715 23.8316 6.70491 23.3974 6.29842 23.0422L6.29636 23.0404C6.27299 23.0206 6.24622 22.9979 6.21859 22.9926C5.84548 22.9263 5.53438 22.7359 5.22205 22.5448C5.12348 22.4845 5.02469 22.424 4.92389 22.3674C4.0632 21.8837 3.29885 21.2677 2.57488 20.6113C2.19367 20.2662 1.865 19.8608 1.53783 19.4572C1.45947 19.3605 1.38109 19.2639 1.3022 19.1683C0.49932 18.197 0.240562 17.0239 0.0790685 15.813C-0.0172773 15.0878 -0.0392992 14.3663 0.0919145 13.6475C0.140546 13.3813 0.228634 13.1169 0.339661 12.87C0.736055 11.9832 1.39304 11.3158 2.18308 10.7761C3.22545 10.0619 4.37426 9.70571 5.6451 9.8379C6.08462 9.8838 6.52965 9.94622 6.95265 10.0692C7.24353 10.1537 7.51513 10.3327 7.7693 10.508C7.92841 10.618 8.07324 10.7479 8.21826 10.878C8.30572 10.9565 8.39332 11.0351 8.48409 11.1093C8.5263 11.1433 8.61164 11.1625 8.66027 11.1442C8.79848 11.0909 8.93323 11.0277 9.0565 10.9699C9.10088 10.9491 9.14409 10.9288 9.18512 10.9101C9.15832 10.7599 9.1298 10.6118 9.10152 10.4649C9.03977 10.1442 8.97915 9.82934 8.94013 9.51201C8.86672 8.91532 9.00711 8.36545 9.37965 7.878C9.98892 7.0812 10.8083 6.59558 11.736 6.27337C11.934 6.20465 12.1355 6.1459 12.337 6.08716C12.5931 6.01251 12.8491 5.93788 13.0977 5.84284C13.551 5.66934 13.9116 5.36457 14.0758 4.8863C14.196 4.53655 14.1327 4.19598 13.8978 3.91599C13.6748 3.64886 13.3473 3.64886 13.0316 3.6764C12.8527 3.69201 12.6233 3.9472 12.6187 4.12896C12.6169 4.19598 12.6783 4.30797 12.7316 4.32266C12.8429 4.35253 12.8414 4.26881 12.8401 4.192C12.8399 4.18153 12.8397 4.171 12.8398 4.16109C12.8453 3.86918 13.1344 3.71587 13.4473 3.85541C13.7749 4.00137 14.0134 4.38967 13.7638 4.78257C13.4289 5.30949 12.6894 5.43158 12.2709 5.00656C12.0581 4.78991 12.0003 4.50167 11.9874 4.21434C11.9709 3.85541 12.1232 3.54513 12.3572 3.28442C12.7618 2.83369 13.2766 2.77678 13.8418 2.8851C14.4181 2.99526 14.987 3.72138 14.9466 4.34928C14.9396 4.46007 14.9356 4.57114 14.9317 4.68216C14.9254 4.8609 14.9191 5.03954 14.8998 5.21677C14.8585 5.59315 14.6282 5.85477 14.3474 6.09253C13.9363 6.44136 13.4601 6.65525 12.9628 6.83885L12.9268 6.85215C12.5936 6.97531 12.2588 7.09909 11.9461 7.26479C11.7516 7.36761 11.5809 7.53835 11.4369 7.7091L11.4273 7.72043C11.1781 8.01689 10.9263 8.31632 10.8276 8.71061C10.6083 9.58729 10.8129 10.2629 11.4497 10.8376C11.6167 10.9881 11.8984 11.0487 12.1361 11.0753C12.6068 11.1277 13.0435 11.0239 13.3904 10.6577C13.5556 10.4834 13.5809 10.2697 13.6057 10.059C13.6116 10.0088 13.6175 9.95873 13.6253 9.9095C13.6538 9.72809 13.6372 9.53779 13.6209 9.35099C13.6183 9.32133 13.6157 9.29176 13.6134 9.26232C13.5877 8.95755 13.4078 8.74733 13.1518 8.60321C12.9582 8.49397 12.7784 8.51141 12.6627 8.6436C12.5343 8.79048 12.5728 8.95296 12.6187 9.12738C12.671 9.32474 12.7224 9.53588 12.7059 9.736C12.6756 10.0913 12.292 10.363 11.9351 10.3143C11.5112 10.2565 11.279 10.1032 11.1689 9.57719C11.1263 9.37318 11.1415 9.15393 11.1564 8.94027L11.1607 8.87769C11.2102 8.15523 12.2076 7.68339 12.8885 7.71644C13.6473 7.75316 14.2263 8.25621 14.4529 9.02732C14.4776 9.11171 14.5059 9.19472 14.535 9.27993C14.547 9.31511 14.5593 9.35098 14.5713 9.38717C14.9622 9.17603 15.1714 8.88595 15.1888 8.42971C15.2029 8.0773 15.2366 7.72584 15.2704 7.37437C15.3029 7.03553 15.3355 6.69665 15.3503 6.35691C15.3852 5.55643 15.3944 4.75319 15.3714 3.95271C15.365 3.71128 15.2439 3.46067 15.1283 3.23852C14.7466 2.50505 14.6722 1.75874 15.0154 1.00048C15.1393 0.726923 15.3146 0.470806 15.4981 0.231213C15.7192 -0.0588695 16.2285 -0.081819 16.478 0.195412C16.9322 0.70122 17.2277 1.29148 17.2075 1.98639C17.1947 2.4307 17.113 2.86766 16.8662 3.26147C16.5716 3.7324 16.568 4.26758 16.5946 4.79909C16.6414 5.74002 16.6973 6.68004 16.7542 7.62005C16.7652 7.80395 16.7811 7.98727 16.7971 8.17049C16.8092 8.31011 16.8214 8.44969 16.8313 8.58944C16.8588 8.97775 17.1158 9.19347 17.4369 9.39176C17.4571 9.32852 17.4765 9.26669 17.4957 9.20562L17.4963 9.20352C17.5179 9.13499 17.5391 9.06738 17.5608 8.99978C17.8195 8.20664 18.3949 7.69441 19.262 7.71644C19.7749 7.73021 20.1906 7.94593 20.5649 8.27365C20.7448 8.43155 20.8044 8.64635 20.8439 8.86575C20.9219 9.29629 20.9173 9.7259 20.6108 10.0729C20.4255 10.2831 20.1539 10.3621 19.8777 10.296C19.3372 10.1656 19.1179 9.6543 19.3693 9.15125C19.4666 8.95572 19.4556 8.74642 19.3418 8.63534C19.2097 8.50682 19.0161 8.49122 18.8151 8.62065C18.5288 8.80517 18.3664 9.07322 18.3774 9.4193C18.3866 9.71672 18.4077 10.0141 18.4462 10.3088C18.4811 10.576 18.6692 10.7439 18.8885 10.8761C19.3675 11.1671 20.1851 11.1754 20.5539 10.8486C20.9705 10.4796 21.2403 10.016 21.2586 9.43766C21.2761 8.86851 21.088 8.38932 20.754 7.9184C20.3227 7.30977 19.7217 7.04631 19.0583 6.83426C18.5848 6.68279 18.1233 6.49644 17.7498 6.14944C17.7137 6.11569 17.6765 6.08251 17.6393 6.04928C17.5208 5.94339 17.4015 5.83686 17.3121 5.70973C17.0479 5.33427 17.0176 4.90191 17.0515 4.45393C17.0745 4.15559 17.113 3.87927 17.2653 3.60388C17.6122 2.97506 18.2049 2.7777 18.8188 2.84838C19.4262 2.91815 19.7896 3.30462 19.9759 3.84531C20.1043 4.21893 19.9997 4.81286 19.6492 5.08917C19.3923 5.29205 18.9344 5.31408 18.5821 5.12773C18.3279 4.99279 18.1196 4.63477 18.1453 4.37498C18.1829 3.99494 18.6252 3.71587 18.9821 3.84714C19.1298 3.90131 19.1693 4.01789 19.1739 4.16568C19.1757 4.22076 19.2308 4.31715 19.2693 4.32082C19.3904 4.33184 19.406 4.23361 19.3978 4.13723C19.3785 3.91049 19.1198 3.66538 18.894 3.66722C18.7611 3.66814 18.6251 3.66908 18.4958 3.69476C17.8755 3.81961 17.7388 4.65221 18.0352 5.11763C18.3508 5.61151 18.8243 5.86487 19.3657 6.00532L19.3769 6.00824C20.021 6.17526 20.6692 6.34334 21.2384 6.69289C22.0349 7.18217 22.8029 7.72378 23.0195 8.72255C23.0791 8.99702 23.0874 9.29353 23.0562 9.57352C23.0221 9.88173 22.9618 10.1868 22.9001 10.4994C22.8738 10.6328 22.8472 10.7676 22.8222 10.9046C22.8642 10.9242 22.9097 10.9447 22.9574 10.9662C23.0703 11.0169 23.1955 11.0733 23.3168 11.1378C23.4259 11.1965 23.4828 11.1479 23.5618 11.0799C23.8416 10.8403 24.1251 10.6053 24.416 10.3795C24.7197 10.1436 25.0767 10.0444 25.4492 9.96091C26.1787 9.7975 26.9118 9.74702 27.645 9.8737C28.636 10.0454 29.5132 10.4731 30.2876 11.1231C30.918 11.6527 31.4438 12.2595 31.7346 13.0334C31.8649 13.3804 31.9585 13.7568 31.9815 14.1249C32.0613 15.4018 31.8851 16.6447 31.452 17.8556C31.2102 18.5325 30.7817 19.0788 30.3515 19.6273C30.2887 19.7073 30.226 19.7873 30.1637 19.8678C29.8088 20.3267 29.3636 20.6858 28.918 21.0451C28.7888 21.1493 28.6594 21.2537 28.5323 21.3604C27.842 21.9405 27.0644 22.3832 26.2855 22.8267L26.2521 22.8457L26.2466 22.8488C26.2097 22.87 26.1712 22.892 26.131 22.9008C25.4299 23.0504 25.1785 23.57 25.0592 24.1988C25.0562 24.2161 25.0546 24.2336 25.0529 24.2511C25.0516 24.2652 25.0503 24.2794 25.0482 24.2934C24.9491 24.9323 25.2694 25.148 25.8915 25.2646C25.9413 25.274 25.9931 25.2726 26.0446 25.2711C26.0634 25.2706 26.0821 25.2701 26.1007 25.2701C26.3172 25.2701 26.4228 25.159 26.4191 24.9442C26.4187 24.9264 26.4182 24.9085 26.4177 24.8906C26.4173 24.8788 26.417 24.867 26.4166 24.8552C26.413 24.7455 26.4094 24.6351 26.4246 24.5274C26.4879 24.0795 26.9623 23.8784 27.3376 24.13C27.5596 24.2787 27.678 24.476 27.6909 24.7487C27.7156 25.2784 27.5798 25.7575 27.2697 26.1844C27.1183 26.3919 26.8852 26.4901 26.6448 26.5195C25.9621 26.6021 25.2758 26.6544 24.6014 26.4488C23.9692 26.2569 23.4232 25.9448 23.0681 25.3628C23.0548 25.3414 23.0386 25.3218 23.0222 25.302L23.0149 25.2931C23.0149 25.4367 23.0179 25.5798 23.0208 25.7222ZM23.0118 25.2893L23.0103 25.2875C23.0075 25.2871 23.0041 25.2874 23.0027 25.2879C23.0011 25.2884 23.0025 25.2892 23.0118 25.2893ZM17.0901 22.8127C17.0717 22.8163 17.0552 22.8255 17.0625 22.8228C17.0483 22.9219 17.0377 23.0186 17.0274 23.1131C17.0052 23.3171 16.984 23.5107 16.9295 23.6958C16.8084 24.1098 16.5313 24.286 16.0982 24.2879L16.0588 24.2879C15.9449 24.2882 15.8294 24.2884 15.7183 24.2695C15.2164 24.185 15.0494 23.8215 14.9861 23.3708C14.9705 23.2561 14.9744 23.1388 14.9785 23.0153C14.9804 22.9569 14.9824 22.8972 14.9824 22.8356C14.9438 22.826 14.9051 22.817 14.8666 22.808C14.7835 22.7885 14.7008 22.7692 14.6199 22.7447C13.7583 22.4859 12.9977 22.0516 12.3664 21.41C11.736 20.7692 11.2983 20.011 11.0652 19.1407C11.0331 19.0214 10.9854 19.0095 10.8817 19.015C10.6734 19.0251 10.4642 19.0269 10.2559 19.0196C9.9513 19.0095 9.79898 18.8038 9.69071 18.5523C9.51545 18.1429 9.54573 17.716 9.61088 17.2928C9.65951 16.9807 9.86597 16.7677 10.1587 16.6906C10.3743 16.6337 10.6138 16.6383 10.8386 16.6576C10.9983 16.6714 11.057 16.6603 11.1093 16.4841C11.5185 15.0979 12.3563 14.0395 13.6317 13.3584C13.8998 13.2151 14.1928 13.1192 14.4861 13.0232C14.6214 12.9789 14.7568 12.9346 14.8897 12.8856C14.9237 12.8737 14.9585 12.8617 14.9916 12.8507C14.8961 12.3486 14.9007 11.8832 15.3705 11.5628C15.7082 11.3324 16.3074 11.3406 16.6405 11.5692C17.0176 11.8272 17.1323 12.2219 17.0084 12.8296C17.1035 12.8626 17.1991 12.8946 17.2947 12.9265C17.5097 12.9983 17.7246 13.07 17.9342 13.1546C18.8023 13.5043 19.5042 14.0707 20.0667 14.8179C20.4649 15.3467 20.7485 15.9296 20.9099 16.5704C20.9358 16.674 20.9967 16.6705 21.0699 16.6664L21.0826 16.6657C21.0883 16.6654 21.0941 16.6651 21.0999 16.6649C21.1419 16.6639 21.184 16.6624 21.2261 16.6609C21.3995 16.6549 21.5735 16.6488 21.744 16.6695C22.078 16.7099 22.3441 16.9706 22.3909 17.3057C22.4441 17.6958 22.4781 18.0869 22.3359 18.4752C22.1955 18.858 22.0028 19.0269 21.5981 19.0397C21.4339 19.0443 21.2678 19.0324 21.1045 19.014C20.987 19.0003 20.9632 19.0471 20.9329 19.1536C20.7118 19.9274 20.3456 20.6223 19.8024 21.2227C19.0647 22.0388 18.16 22.5657 17.0901 22.8127ZM7.75549 20.8063C7.81725 20.8774 7.88169 20.9516 7.94823 21.0318C7.90782 21.0392 7.8727 21.0473 7.84089 21.0547C7.78676 21.0672 7.74223 21.0774 7.69773 21.0786C7.21508 21.085 6.75904 20.9813 6.31218 20.7876C5.59739 20.4782 4.90645 20.123 4.27149 19.6768C3.36951 19.0434 2.70243 18.2328 2.49322 17.1101C2.4088 16.6557 2.37118 16.1986 2.46477 15.746C2.60425 15.0731 2.98871 14.56 3.55027 14.1689C4.24855 13.6815 5.0184 13.6227 5.83229 13.7393C6.39018 13.8192 6.83887 14.1166 7.28573 14.4177C7.56376 14.605 7.63441 15.0052 7.46741 15.3008C7.38024 15.455 7.2839 15.6074 7.17104 15.7433C6.84713 16.1353 6.59388 16.5612 6.4333 17.0468C6.3755 17.2203 6.26172 17.3855 6.1406 17.5251C5.90478 17.7977 5.8901 17.9841 6.12591 18.2613C6.40761 18.5936 6.60122 18.9755 6.78932 19.3675C6.95023 19.7032 7.16357 20.0155 7.37489 20.3248L7.41695 20.3864C7.51537 20.5298 7.62988 20.6617 7.75549 20.8063ZM24.1413 21.0515C24.1195 21.0446 24.0958 21.0371 24.0692 21.0299C24.1558 20.9186 24.2428 20.8114 24.3283 20.706C24.517 20.4732 24.6986 20.2492 24.8546 20.0091C24.9783 19.818 25.0796 19.6127 25.1811 19.4071C25.2566 19.2542 25.3322 19.101 25.4171 18.9535C25.5621 18.7019 25.7309 18.4614 25.9071 18.2292C26.0805 17.9997 26.1053 17.7821 25.8979 17.582C25.6905 17.3828 25.5841 17.1432 25.5006 16.8797C25.3721 16.4731 25.1354 16.1279 24.873 15.7965C24.7583 15.6524 24.6482 15.5037 24.5555 15.3449C24.3399 14.9758 24.4463 14.6086 24.7941 14.3525C25.4969 13.8339 26.2888 13.6016 27.1449 13.6953C28.1515 13.8045 28.9323 14.303 29.3618 15.2512C29.7554 16.1224 29.6233 16.9963 29.2774 17.8418C28.9287 18.6946 28.2974 19.3078 27.5303 19.8053C26.8971 20.2157 26.2264 20.5471 25.5391 20.8491C25.1299 21.029 24.6986 21.0887 24.2554 21.0777C24.2196 21.0765 24.184 21.0651 24.1413 21.0515ZM12.7702 26.7293C12.7529 26.6385 12.7356 26.5478 12.7132 26.4598C12.7573 26.1541 12.8096 25.8787 13.0628 25.6841C13.2289 25.5565 13.4152 25.506 13.6189 25.5611C13.6831 25.5785 13.7648 25.6143 13.7932 25.6657C13.9941 26.0258 14.3 26.2804 14.606 26.535C14.7095 26.6211 14.8132 26.7074 14.9127 26.7976C15.3017 27.151 15.6293 27.5513 15.7733 28.0745C15.7963 28.1608 15.8449 28.26 15.9128 28.3095C16.0211 28.3885 16.1651 28.3178 16.1982 28.1608C16.2909 27.7184 16.5469 27.3686 16.8359 27.0491C16.9678 26.9031 17.1198 26.7759 17.2719 26.6486C17.3884 26.551 17.5052 26.4532 17.6131 26.3469C17.8168 26.1458 17.9989 25.9195 18.179 25.6956L18.1838 25.6896C18.2811 25.5694 18.483 25.5042 18.6885 25.5583C19.0142 25.6437 19.228 25.9494 19.2473 26.3386C19.2812 27.0225 18.9931 27.588 18.5931 28.1076C18.3095 28.4757 18.0251 28.8447 17.7122 29.1871C17.5098 29.4087 17.2779 29.6034 17.0467 29.7975C17.0273 29.8138 17.0079 29.8301 16.9886 29.8464C16.9719 29.8604 16.9553 29.8744 16.9387 29.8885C16.8953 29.9251 16.8515 29.9613 16.8078 29.9973C16.5833 30.1826 16.3599 30.367 16.1963 30.6183C16.0477 30.8459 15.9541 30.8441 15.8018 30.6155C15.5862 30.2905 15.2934 30.0491 14.9769 29.8371C14.5051 29.521 14.1642 29.079 13.8263 28.6409L13.7831 28.5849C13.4693 28.1792 13.1821 27.7468 12.938 27.297C12.846 27.1274 12.8081 26.9283 12.7702 26.7293ZM6.18581 11.5849C6.19337 11.5964 6.20259 11.6103 6.21492 11.628C6.09983 11.6375 5.98805 11.6459 5.87847 11.6541C5.68229 11.6687 5.49305 11.6829 5.30468 11.7023C4.62659 11.773 3.95584 11.8969 3.32546 12.1576C2.75381 12.3945 2.27942 12.7672 1.92157 13.2913C1.55087 13.8339 1.24164 14.4021 1.13153 15.0493C1.07164 15.3997 1.04791 15.7556 1.02417 16.1116C1.01409 16.2628 1.004 16.414 0.991142 16.5649C0.989884 16.5793 0.989084 16.5936 0.988279 16.6081C0.984975 16.6675 0.9816 16.7281 0.946181 16.7953C0.935781 16.7668 0.923954 16.7387 0.912128 16.7105C0.888475 16.6542 0.864822 16.5979 0.852588 16.5392C0.661731 15.634 0.614017 14.7206 0.76817 13.8082C0.818637 13.508 0.936087 13.2069 1.08015 12.9361C1.44443 12.2504 1.96469 11.7253 2.69784 11.4122C3.3585 11.1304 4.04026 10.989 4.7523 10.9707C5.30376 10.956 5.77173 11.1497 6.15619 11.5444C6.1658 11.5546 6.17367 11.5665 6.18581 11.5849ZM31.0602 16.7907C31.0492 16.7889 31.0373 16.787 31.0253 16.7852C31.0181 16.6599 31.0117 16.5346 31.0054 16.4093C30.991 16.1235 30.9765 15.8379 30.951 15.5533C30.8849 14.8179 30.6289 14.1497 30.2353 13.5263C29.8986 12.9921 29.4875 12.5303 28.9066 12.2788C28.4561 12.0842 27.9771 11.9355 27.4963 11.8345C27.1171 11.7555 26.7304 11.7126 26.3316 11.6683C26.1514 11.6483 25.9688 11.6281 25.7832 11.6041L25.8135 11.5756C25.9872 11.4118 26.1497 11.2586 26.3622 11.157C26.8384 10.9294 27.3358 10.9459 27.8395 11.0129C28.6525 11.1212 29.4306 11.3443 30.0665 11.8795C30.7042 12.4165 31.1529 13.0903 31.2584 13.944C31.3648 14.8023 31.3318 15.6579 31.1529 16.5061C31.1392 16.5722 31.1157 16.6361 31.0924 16.7C31.0813 16.7301 31.0702 16.7604 31.0602 16.7907ZM20.1594 24.0473C19.7611 23.9454 19.4244 23.7123 19.1198 23.4222C19.154 23.3996 19.1872 23.376 19.2202 23.3526C19.2983 23.297 19.3747 23.2426 19.4593 23.2065C19.5198 23.1808 19.6207 23.1982 19.6813 23.2331C20.0795 23.4635 20.4989 23.5452 20.9448 23.413C21.2917 23.3102 21.5266 23.089 21.6073 22.7218C21.7156 22.227 21.6697 21.7643 21.332 21.3457C21.4183 21.1998 21.5082 21.0474 21.611 20.873C21.6341 20.8988 21.6569 20.9235 21.6792 20.9476C21.7313 21.004 21.7808 21.0575 21.8239 21.1153C22.3294 21.7919 22.5653 22.5281 22.3918 23.3855C22.354 23.574 22.3751 23.7742 22.3961 23.9744C22.4057 24.0658 22.4153 24.1572 22.4194 24.2475C22.3989 24.2364 22.3762 24.2229 22.3517 24.2083C22.2848 24.1686 22.2041 24.1207 22.1175 24.0905C22.0046 24.051 21.867 24.0042 21.7624 24.0354C21.2265 24.1933 20.6897 24.1832 20.1594 24.0473ZM9.79348 21.7698C9.95864 21.4495 10.1256 21.1447 10.3872 20.872C10.4881 21.0419 10.5753 21.1887 10.6698 21.3485C10.3716 21.6826 10.311 22.0865 10.3532 22.5171C10.4092 23.0899 10.7946 23.4543 11.3726 23.4718C11.6754 23.4809 11.9709 23.4451 12.2306 23.2698C12.3829 23.167 12.5242 23.1404 12.671 23.2854C12.7098 23.3236 12.7601 23.3512 12.8111 23.3792C12.8337 23.3916 12.8564 23.4041 12.8784 23.4176C12.1856 24.1043 11.3506 24.2713 10.4431 24.0758C10.1467 24.0125 9.9146 24.0271 9.67878 24.1942C9.65099 24.214 9.62071 24.2296 9.5871 24.2469C9.57076 24.2554 9.55364 24.2642 9.53564 24.2741C9.54509 24.2244 9.55569 24.1763 9.56609 24.1291C9.58796 24.0297 9.60892 23.9345 9.61638 23.838C9.62923 23.6811 9.6329 23.5195 9.60904 23.3653C9.52279 22.8154 9.52554 22.2903 9.79348 21.7698ZM22.4386 12.5836C22.6231 13.5227 22.368 14.3268 21.7064 15.0447C21.6808 14.999 21.6548 14.9558 21.6296 14.914C21.5697 14.8146 21.5145 14.7231 21.4816 14.6243C21.4541 14.5426 21.4706 14.4214 21.5137 14.3443C21.7633 13.9 21.7872 13.4382 21.6284 12.9673C21.5449 12.7213 21.3174 12.6157 21.0898 12.556C20.7439 12.4642 20.3924 12.4955 20.0584 12.6185C19.83 12.7029 19.6336 12.7048 19.4528 12.5267C19.4298 12.5042 19.4021 12.487 19.3704 12.4674C19.3529 12.4565 19.3341 12.4449 19.3143 12.4312C19.5804 12.1631 19.8878 12.0098 20.2511 11.9667C20.7062 11.9125 21.1604 11.9052 21.6183 11.9538C21.7415 11.9669 21.8744 11.9193 22.0013 11.8738C22.0255 11.8651 22.0498 11.8564 22.0734 11.8483C22.1702 11.8158 22.2635 11.7714 22.3679 11.7218C22.417 11.6985 22.4685 11.674 22.524 11.6491C22.513 11.7045 22.5015 11.7569 22.4905 11.8074C22.4655 11.9217 22.4427 12.026 22.4331 12.131C22.4194 12.2806 22.4102 12.4376 22.4386 12.5836ZM10.3567 14.9238C10.3363 14.963 10.3151 15.0036 10.2917 15.0456C9.62097 14.3121 9.3769 13.497 9.56317 12.5414C9.5936 12.3859 9.5662 12.2187 9.53879 12.0514C9.52654 11.9766 9.51428 11.9018 9.50719 11.8281C9.50425 11.7981 9.49679 11.7681 9.48795 11.7325C9.48299 11.7126 9.4776 11.6909 9.47232 11.6665C9.50175 11.6764 9.52961 11.6839 9.55562 11.691C9.60665 11.7047 9.65056 11.7166 9.6852 11.7409C10.0596 12.0041 10.4712 11.9656 10.8801 11.9273C10.9431 11.9214 11.0061 11.9155 11.0689 11.9107C11.6846 11.8639 12.3104 12.0557 12.6802 12.433C12.6446 12.4571 12.6096 12.4819 12.5747 12.5066C12.491 12.566 12.4078 12.625 12.3177 12.6717C12.2673 12.6983 12.1838 12.6809 12.1223 12.6625C11.7488 12.5505 11.3763 12.4688 10.9799 12.5414C10.5578 12.6185 10.2715 12.9443 10.2734 13.3776C10.2752 13.7228 10.3018 14.0588 10.5 14.3626C10.5642 14.4609 10.5716 14.5829 10.4881 14.6977C10.439 14.7661 10.3996 14.8417 10.3567 14.9238ZM9.87083 19.6058C9.89464 19.6439 9.91995 19.6844 9.94947 19.7264C9.2154 19.8338 8.67495 19.597 8.21891 19.0902C7.86564 18.6973 7.7693 18.2448 7.78123 17.7362C7.80141 16.9036 8.46574 16.4666 9.02088 16.3289C9.05598 16.3202 9.0911 16.3108 9.12646 16.3013C9.34803 16.242 9.57895 16.1801 9.87331 16.2711C9.79518 16.3434 9.72344 16.4185 9.65386 16.4913C9.50769 16.6444 9.37099 16.7875 9.20439 16.8733C8.34278 17.3195 8.47859 18.5165 9.11906 18.936C9.33469 19.0774 9.5338 19.2463 9.72833 19.417C9.78355 19.4662 9.82433 19.5315 9.87083 19.6058ZM24.0315 18.7478C23.648 19.4547 22.8378 19.9045 22.0505 19.7071C22.1456 19.6188 22.236 19.5313 22.3241 19.4459C22.5191 19.257 22.7038 19.078 22.9066 18.9232C23.4994 18.4688 23.6058 17.4911 22.9763 16.9761C22.8639 16.884 22.752 16.7908 22.6402 16.6978L22.5212 16.5988C22.473 16.5583 22.4248 16.5179 22.3752 16.4763C22.3059 16.4182 22.2337 16.3576 22.1551 16.2913C22.5946 16.105 23.4911 16.4373 23.8976 16.8733C24.3004 17.3048 24.3399 18.1796 24.0315 18.7478ZM14.0814 23.9871L14.0795 23.9418C14.1262 23.9539 14.1709 23.9647 14.2142 23.9751C14.318 24.0002 14.413 24.0231 14.5043 24.0574C14.5484 24.074 14.5851 24.1391 14.6062 24.1896C14.6357 24.2596 14.6617 24.3312 14.6877 24.4026C14.7289 24.5157 14.77 24.6286 14.8246 24.7349C15.0347 25.1425 15.4118 25.2793 15.8376 25.3004C16.0449 25.3105 16.2587 25.2958 16.4624 25.2572C16.9341 25.1691 17.2222 24.8405 17.3167 24.4054C17.3956 24.0455 17.6168 23.9932 17.9141 23.9565C17.9122 24.2732 17.8865 24.5816 17.736 24.8607C17.4736 25.3472 17.1103 25.7419 16.6056 25.9815C16.044 26.2477 15.3898 26.1358 14.9521 25.6896C14.7145 25.4463 14.4906 25.1847 14.2951 24.9066C14.1082 24.6405 14.095 24.3198 14.0814 23.9871ZM17.9176 11.5539C17.946 11.6395 17.9755 11.7284 18.0076 11.8217C17.9397 11.8033 17.8784 11.7875 17.8218 11.7728C17.6973 11.7406 17.5956 11.7144 17.4966 11.6803C17.4488 11.6638 17.3947 11.6105 17.3791 11.5628C17.0167 10.4529 15.7688 10.441 15.0916 10.867C14.8525 11.0176 14.7495 11.2699 14.65 11.5137L14.6484 11.5178C14.6007 11.6353 14.5364 11.6821 14.4254 11.706C14.3364 11.7245 14.2483 11.7496 14.1561 11.7759C14.12 11.7862 14.0832 11.7966 14.0455 11.807C14.0813 11.2819 14.2859 10.8449 14.6622 10.4961C14.6866 10.4734 14.7112 10.4506 14.7357 10.4277C14.9302 10.2465 15.1286 10.0616 15.3558 9.93612C15.8578 9.65981 16.5927 9.79292 17.0056 10.1849C17.0572 10.234 17.1102 10.282 17.1632 10.33C17.3885 10.5341 17.6143 10.7386 17.7324 11.0322C17.7996 11.198 17.856 11.3683 17.9176 11.5539Z" fill="#DBB56D"/>
</svg>
