<svg width="60" height="1479" viewBox="0 0 60 1479" fill="none" xmlns="http://www.w3.org/2000/svg">
<path d="M36 33V13L30 7L24 13V33H23V145H24V165L30 171L36 165V145H37V33H36ZM35 164L30 169L25 164V14L30 9L35 14V164Z" fill="#6A665E"/>
<path d="M16 176L12 180V184L26 170L22 166V147L21 146V89L16 94V176ZM44 176V94L39 89V146L38 147V166L34 170L48 184V180L44 176ZM44 14L30 0L16 14V84L21 89V32L22 31V12L30 4L38 12V31L39 32V89L44 84V14Z" fill="#6A665E" fill-opacity="0.3"/>
<path d="M36 243V223L30 217L24 223V243H23V355H24V375L30 381L36 375V355H37V243H36ZM35 374L30 379L25 374V224L30 219L35 224V374Z" fill="#6A665E"/>
<path d="M16 304V386L12 390V394L26 380L22 376V357L21 356V299L16 304ZM22 241V222L26 218L12 204V208L16 212V294L21 299V242L22 241ZM38 357V376L34 380L48 394V390L44 386V304L39 299V356L38 357ZM44 212L48 208V204L34 218L38 222V241L39 242V299L44 294V212Z" fill="#6A665E" fill-opacity="0.3"/>
<path d="M36 453V433L30 427L24 433V453H23V565H24V585L30 591L36 585V565H37V453H36ZM35 584L30 589L25 584V434L30 429L35 434V584Z" fill="#6A665E"/>
<path d="M16 514V596L12 600V604L26 590L22 586V567L21 566V509L16 514ZM22 451V432L26 428L12 414V418L16 422V504L21 509V452L22 451ZM38 567V586L34 590L48 604V600L44 596V514L39 509V566L38 567ZM44 422L48 418V414L34 428L38 432V451L39 452V509L44 504V422Z" fill="#6A665E" fill-opacity="0.3"/>
<path d="M36 663V643L30 637L24 643V663H23V775H24V795L30 801L36 795V775H37V663H36ZM35 794L30 799L25 794V644L30 639L35 644V794Z" fill="#6A665E"/>
<path d="M16 724V806L12 810V814L26 800L22 796V777L21 776V719L16 724ZM22 661V642L26 638L12 624V628L16 632V714L21 719V662L22 661ZM38 777V796L34 800L48 814V810L44 806V724L39 719V776L38 777ZM44 632L48 628V624L34 638L38 642V661L39 662V719L44 714V632Z" fill="#6A665E" fill-opacity="0.3"/>
<path d="M36 873V853L30 847L24 853V873H23V985H24V1005L30 1011L36 1005V985H37V873H36ZM35 1004L30 1009L25 1004V854L30 849L35 854V1004Z" fill="#6A665E"/>
<path d="M16 934V1016L12 1020V1024L26 1010L22 1006V987L21 986V929L16 934ZM22 871V852L26 848L12 834V838L16 842V924L21 929V872L22 871ZM38 987V1006L34 1010L48 1024V1020L44 1016V934L39 929V986L38 987ZM44 842L48 838V834L34 848L38 852V871L39 872V929L44 924V842Z" fill="#6A665E" fill-opacity="0.3"/>
<path d="M36 1083V1063L30 1057L24 1063V1083H23V1195H24V1215L30 1221L36 1215V1195H37V1083H36ZM35 1214L30 1219L25 1214V1064L30 1059L35 1064V1214Z" fill="#6A665E"/>
<path d="M16 1144V1226L12 1230V1234L26 1220L22 1216V1197L21 1196V1139L16 1144ZM22 1081V1062L26 1058L12 1044V1048L16 1052V1134L21 1139V1082L22 1081ZM38 1197V1216L34 1220L48 1234V1230L44 1226V1144L39 1139V1196L38 1197ZM44 1052L48 1048V1044L34 1058L38 1062V1081L39 1082V1139L44 1134V1052Z" fill="#6A665E" fill-opacity="0.3"/>
<path d="M36 1293V1273L30 1267L24 1273V1293H23V1405H24V1425L30 1431L36 1425V1405H37V1293H36ZM35 1424L30 1429L25 1424V1274L30 1269L35 1274V1424Z" fill="#6A665E"/>
<path d="M16 1354V1436L12 1440V1444L26 1430L22 1426V1407L21 1406V1349L16 1354ZM22 1291V1272L26 1268L12 1254V1258L16 1262V1344L21 1349V1292L22 1291ZM38 1407V1426L34 1430L48 1444V1440L44 1436V1354L39 1349V1406L38 1407ZM44 1262L48 1258V1254L34 1268L38 1272V1291L39 1292V1349L44 1344V1262Z" fill="#6A665E" fill-opacity="0.3"/>
<path fill-rule="evenodd" clip-rule="evenodd" d="M30 219L5 194L30 169L55 194L30 219ZM7 194L30 217L53 194L30 171L7 194ZM8 200H6L0 194L6 188H8L2 194L8 200Z" fill="#6A665E"/>
<path fill-rule="evenodd" clip-rule="evenodd" d="M30 639L5 614L30 589L55 614L30 639ZM7 614L30 637L53 614L30 591L7 614ZM8 620H6L0 614L6 608H8L2 614L8 620Z" fill="#6A665E"/>
<path fill-rule="evenodd" clip-rule="evenodd" d="M30 1059L5 1034L30 1009L55 1034L30 1059ZM7 1034L30 1057L53 1034L30 1011L7 1034ZM8 1040H6L0 1034L6 1028H8L2 1034L8 1040Z" fill="#6A665E"/>
<path fill-rule="evenodd" clip-rule="evenodd" d="M30 1479L5 1454L30 1429L55 1454L30 1479ZM7 1454L30 1477L53 1454L30 1431L7 1454ZM8 1460H6L0 1454L6 1448H8L2 1454L8 1460Z" fill="#6A665E"/>
<path fill-rule="evenodd" clip-rule="evenodd" d="M30 379L55 404L30 429L5 404L30 379ZM53 404L30 381L7 404L30 427L53 404ZM52 398H54L60 404L54 410H52L58 404L52 398Z" fill="#6A665E"/>
<path fill-rule="evenodd" clip-rule="evenodd" d="M30 799L55 824L30 849L5 824L30 799ZM53 824L30 801L7 824L30 847L53 824ZM52 818H54L60 824L54 830H52L58 824L52 818Z" fill="#6A665E"/>
<path fill-rule="evenodd" clip-rule="evenodd" d="M30 1219L55 1244L30 1269L5 1244L30 1219ZM53 1244L30 1221L7 1244L30 1267L53 1244ZM52 1238H54L60 1244L54 1250H52L58 1244L52 1238Z" fill="#6A665E"/>
</svg>
