<svg width="60" height="1479" viewBox="0 0 60 1479" fill="none" xmlns="http://www.w3.org/2000/svg">
<path d="M19.6119 191.47H18.5019C18.5319 190.94 18.6869 190.45 18.9669 190C19.4669 189.22 20.2419 188.83 21.2919 188.83C22.1819 188.83 22.8719 189.095 23.3619 189.625C23.8619 190.155 24.1119 190.79 24.1119 191.53C24.1119 192.58 23.6819 193.32 22.8219 193.75C22.9519 193.8 23.0769 193.87 23.1969 193.96C23.3269 194.04 23.4819 194.17 23.6619 194.35C23.8419 194.53 23.9869 194.78 24.0969 195.1C24.2069 195.41 24.2619 195.765 24.2619 196.165C24.2619 197.075 23.9669 197.805 23.3769 198.355C22.7969 198.905 22.0669 199.18 21.1869 199.18C20.5969 199.18 20.0469 199.045 19.5369 198.775C19.0269 198.495 18.6469 198.055 18.3969 197.455C18.2669 197.135 18.1919 196.785 18.1719 196.405H19.2819C19.3319 196.815 19.4519 197.15 19.6419 197.41C19.9819 197.91 20.4969 198.16 21.1869 198.16C21.7369 198.16 22.2019 197.965 22.5819 197.575C22.9619 197.175 23.1519 196.695 23.1519 196.135C23.1519 195.315 22.8219 194.755 22.1619 194.455C21.8319 194.295 21.4519 194.225 21.0219 194.245V193.255C21.4519 193.285 21.8319 193.215 22.1619 193.045C22.7219 192.755 23.0019 192.26 23.0019 191.56C23.0019 191.07 22.8619 190.665 22.5819 190.345C22.3019 190.015 21.8719 189.85 21.2919 189.85C20.7319 189.85 20.3019 190.04 20.0019 190.42C19.7719 190.72 19.6419 191.07 19.6119 191.47ZM32.5623 197.68C31.8723 198.68 31.0173 199.18 29.9973 199.18C28.9773 199.18 28.1223 198.68 27.4323 197.68C26.7623 196.71 26.4273 195.485 26.4273 194.005C26.4273 192.525 26.7623 191.3 27.4323 190.33C28.1223 189.33 28.9773 188.83 29.9973 188.83C31.0173 188.83 31.8723 189.33 32.5623 190.33C33.2323 191.3 33.5673 192.525 33.5673 194.005C33.5673 195.485 33.2323 196.71 32.5623 197.68ZM31.7223 190.96C31.2623 190.22 30.6873 189.85 29.9973 189.85C29.3073 189.85 28.7323 190.22 28.2723 190.96C27.7823 191.74 27.5373 192.755 27.5373 194.005C27.5373 195.255 27.7823 196.27 28.2723 197.05C28.7323 197.79 29.3073 198.16 29.9973 198.16C30.6873 198.16 31.2623 197.79 31.7223 197.05C32.2123 196.27 32.4573 195.255 32.4573 194.005C32.4573 192.755 32.2123 191.74 31.7223 190.96ZM41.0877 197.68C40.3977 198.68 39.5427 199.18 38.5227 199.18C37.5027 199.18 36.6477 198.68 35.9577 197.68C35.2877 196.71 34.9527 195.485 34.9527 194.005C34.9527 192.525 35.2877 191.3 35.9577 190.33C36.6477 189.33 37.5027 188.83 38.5227 188.83C39.5427 188.83 40.3977 189.33 41.0877 190.33C41.7577 191.3 42.0927 192.525 42.0927 194.005C42.0927 195.485 41.7577 196.71 41.0877 197.68ZM40.2477 190.96C39.7877 190.22 39.2127 189.85 38.5227 189.85C37.8327 189.85 37.2577 190.22 36.7977 190.96C36.3077 191.74 36.0627 192.755 36.0627 194.005C36.0627 195.255 36.3077 196.27 36.7977 197.05C37.2577 197.79 37.8327 198.16 38.5227 198.16C39.2127 198.16 39.7877 197.79 40.2477 197.05C40.7377 196.27 40.9827 195.255 40.9827 194.005C40.9827 192.755 40.7377 191.74 40.2477 190.96Z" fill="#6A665E"/>
<path d="M25.9365 608.44V616.09H27.1665V617.11H25.9365V619H24.8265V617.11H19.6965L25.9365 608.44ZM21.6615 616.09H24.8265V611.665L21.6615 616.09ZM30.4177 619V610.045H28.7377L29.3227 608.995H31.5277V619H30.4177ZM40.2631 608.995V610.015H37.0531L36.4081 612.175C36.5781 612.135 36.7881 612.115 37.0381 612.115C38.0281 612.115 38.8231 612.445 39.4231 613.105C40.0331 613.765 40.3381 614.59 40.3381 615.58C40.3381 616.66 39.9831 617.53 39.2731 618.19C38.5731 618.85 37.7131 619.18 36.6931 619.18C35.8331 619.18 35.0881 618.92 34.4581 618.4C34.0981 618.09 33.8081 617.75 33.5881 617.38L34.4731 616.75C34.6231 617.05 34.8481 617.32 35.1481 617.56C35.6381 617.96 36.1781 618.16 36.7681 618.16C37.4681 618.16 38.0531 617.91 38.5231 617.41C38.9931 616.91 39.2281 616.305 39.2281 615.595C39.2281 614.875 38.9931 614.285 38.5231 613.825C38.0631 613.365 37.4781 613.135 36.7681 613.135C36.1381 613.135 35.4931 613.365 34.8331 613.825L36.2881 608.995H40.2631Z" fill="#6A665E"/>
<path d="M24.264 1033.79C25.274 1034.24 25.779 1035.06 25.779 1036.24C25.779 1037.07 25.509 1037.77 24.969 1038.34C24.439 1038.9 23.689 1039.18 22.719 1039.18C21.749 1039.18 20.994 1038.9 20.454 1038.34C19.924 1037.77 19.659 1037.07 19.659 1036.24C19.659 1035.06 20.164 1034.24 21.174 1033.79C20.364 1033.32 19.959 1032.59 19.959 1031.6C19.959 1030.84 20.204 1030.19 20.694 1029.65C21.184 1029.1 21.859 1028.83 22.719 1028.83C23.579 1028.83 24.254 1029.1 24.744 1029.65C25.234 1030.19 25.479 1030.84 25.479 1031.6C25.479 1032.59 25.074 1033.32 24.264 1033.79ZM21.504 1032.85C21.824 1033.18 22.229 1033.34 22.719 1033.34C23.209 1033.34 23.614 1033.18 23.934 1032.85C24.264 1032.52 24.429 1032.11 24.429 1031.62C24.429 1031.09 24.259 1030.66 23.919 1030.34C23.589 1030.01 23.189 1029.85 22.719 1029.85C22.249 1029.85 21.844 1030.01 21.504 1030.34C21.174 1030.66 21.009 1031.09 21.009 1031.62C21.009 1032.11 21.174 1032.52 21.504 1032.85ZM21.309 1037.6C21.669 1037.97 22.139 1038.16 22.719 1038.16C23.299 1038.16 23.769 1037.98 24.129 1037.62C24.489 1037.25 24.669 1036.78 24.669 1036.21C24.669 1035.65 24.484 1035.19 24.114 1034.84C23.754 1034.48 23.289 1034.3 22.719 1034.3C22.149 1034.3 21.679 1034.48 21.309 1034.84C20.949 1035.19 20.769 1035.65 20.769 1036.21C20.769 1036.78 20.949 1037.24 21.309 1037.6ZM27.0173 1038.65L32.7023 1030.01H27.2273V1028.99H34.5773L27.8873 1039.24L27.0173 1038.65ZM40.8406 1037.68C40.1506 1038.68 39.2956 1039.18 38.2756 1039.18C37.2556 1039.18 36.4006 1038.68 35.7106 1037.68C35.0406 1036.71 34.7056 1035.48 34.7056 1034C34.7056 1032.52 35.0406 1031.3 35.7106 1030.33C36.4006 1029.33 37.2556 1028.83 38.2756 1028.83C39.2956 1028.83 40.1506 1029.33 40.8406 1030.33C41.5106 1031.3 41.8456 1032.52 41.8456 1034C41.8456 1035.48 41.5106 1036.71 40.8406 1037.68ZM40.0006 1030.96C39.5406 1030.22 38.9656 1029.85 38.2756 1029.85C37.5856 1029.85 37.0106 1030.22 36.5506 1030.96C36.0606 1031.74 35.8156 1032.75 35.8156 1034C35.8156 1035.25 36.0606 1036.27 36.5506 1037.05C37.0106 1037.79 37.5856 1038.16 38.2756 1038.16C38.9656 1038.16 39.5406 1037.79 40.0006 1037.05C40.4906 1036.27 40.7356 1035.25 40.7356 1034C40.7356 1032.75 40.4906 1031.74 40.0006 1030.96Z" fill="#6A665E"/>
<path d="M18.4646 1459V1450.04H16.7846L17.3696 1448.99H19.5746V1459H18.4646ZM23.3492 1451.47H22.2392C22.2692 1450.94 22.4242 1450.45 22.7042 1450C23.2042 1449.22 23.9792 1448.83 25.0292 1448.83C25.9192 1448.83 26.6092 1449.09 27.0992 1449.62C27.5992 1450.15 27.8492 1450.79 27.8492 1451.53C27.8492 1452.58 27.4192 1453.32 26.5592 1453.75C26.6892 1453.8 26.8142 1453.87 26.9342 1453.96C27.0642 1454.04 27.2192 1454.17 27.3992 1454.35C27.5792 1454.53 27.7242 1454.78 27.8342 1455.1C27.9442 1455.41 27.9992 1455.76 27.9992 1456.16C27.9992 1457.07 27.7042 1457.8 27.1142 1458.35C26.5342 1458.9 25.8042 1459.18 24.9242 1459.18C24.3342 1459.18 23.7842 1459.04 23.2742 1458.77C22.7642 1458.49 22.3842 1458.05 22.1342 1457.45C22.0042 1457.13 21.9292 1456.78 21.9092 1456.4H23.0192C23.0692 1456.81 23.1892 1457.15 23.3792 1457.41C23.7192 1457.91 24.2342 1458.16 24.9242 1458.16C25.4742 1458.16 25.9392 1457.96 26.3192 1457.57C26.6992 1457.17 26.8892 1456.69 26.8892 1456.13C26.8892 1455.31 26.5592 1454.75 25.8992 1454.45C25.5692 1454.29 25.1892 1454.22 24.7592 1454.24V1453.25C25.1892 1453.28 25.5692 1453.21 25.8992 1453.04C26.4592 1452.75 26.7392 1452.26 26.7392 1451.56C26.7392 1451.07 26.5992 1450.66 26.3192 1450.34C26.0392 1450.01 25.6092 1449.85 25.0292 1449.85C24.4692 1449.85 24.0392 1450.04 23.7392 1450.42C23.5092 1450.72 23.3792 1451.07 23.3492 1451.47ZM36.2996 1457.68C35.6096 1458.68 34.7546 1459.18 33.7346 1459.18C32.7146 1459.18 31.8596 1458.68 31.1696 1457.68C30.4996 1456.71 30.1646 1455.48 30.1646 1454C30.1646 1452.52 30.4996 1451.3 31.1696 1450.33C31.8596 1449.33 32.7146 1448.83 33.7346 1448.83C34.7546 1448.83 35.6096 1449.33 36.2996 1450.33C36.9696 1451.3 37.3046 1452.52 37.3046 1454C37.3046 1455.48 36.9696 1456.71 36.2996 1457.68ZM35.4596 1450.96C34.9996 1450.22 34.4246 1449.85 33.7346 1449.85C33.0446 1449.85 32.4696 1450.22 32.0096 1450.96C31.5196 1451.74 31.2746 1452.75 31.2746 1454C31.2746 1455.25 31.5196 1456.27 32.0096 1457.05C32.4696 1457.79 33.0446 1458.16 33.7346 1458.16C34.4246 1458.16 34.9996 1457.79 35.4596 1457.05C35.9496 1456.27 36.1946 1455.25 36.1946 1454C36.1946 1452.75 35.9496 1451.74 35.4596 1450.96ZM44.825 1457.68C44.135 1458.68 43.28 1459.18 42.26 1459.18C41.24 1459.18 40.385 1458.68 39.695 1457.68C39.025 1456.71 38.69 1455.48 38.69 1454C38.69 1452.52 39.025 1451.3 39.695 1450.33C40.385 1449.33 41.24 1448.83 42.26 1448.83C43.28 1448.83 44.135 1449.33 44.825 1450.33C45.495 1451.3 45.83 1452.52 45.83 1454C45.83 1455.48 45.495 1456.71 44.825 1457.68ZM43.985 1450.96C43.525 1450.22 42.95 1449.85 42.26 1449.85C41.57 1449.85 40.995 1450.22 40.535 1450.96C40.045 1451.74 39.8 1452.75 39.8 1454C39.8 1455.25 40.045 1456.27 40.535 1457.05C40.995 1457.79 41.57 1458.16 42.26 1458.16C42.95 1458.16 43.525 1457.79 43.985 1457.05C44.475 1456.27 44.72 1455.25 44.72 1454C44.72 1452.75 44.475 1451.74 43.985 1450.96Z" fill="#6A665E"/>
<path d="M20.859 401.47H19.749C19.779 400.94 19.934 400.45 20.214 400C20.714 399.22 21.489 398.83 22.539 398.83C23.429 398.83 24.119 399.095 24.609 399.625C25.109 400.155 25.359 400.79 25.359 401.53C25.359 402.58 24.929 403.32 24.069 403.75C24.199 403.8 24.324 403.87 24.444 403.96C24.574 404.04 24.729 404.17 24.909 404.35C25.089 404.53 25.234 404.78 25.344 405.1C25.454 405.41 25.509 405.765 25.509 406.165C25.509 407.075 25.214 407.805 24.624 408.355C24.044 408.905 23.314 409.18 22.434 409.18C21.844 409.18 21.294 409.045 20.784 408.775C20.274 408.495 19.894 408.055 19.644 407.455C19.514 407.135 19.439 406.785 19.419 406.405H20.529C20.579 406.815 20.699 407.15 20.889 407.41C21.229 407.91 21.744 408.16 22.434 408.16C22.984 408.16 23.449 407.965 23.829 407.575C24.209 407.175 24.399 406.695 24.399 406.135C24.399 405.315 24.069 404.755 23.409 404.455C23.079 404.295 22.699 404.225 22.269 404.245V403.255C22.699 403.285 23.079 403.215 23.409 403.045C23.969 402.755 24.249 402.26 24.249 401.56C24.249 401.07 24.109 400.665 23.829 400.345C23.549 400.015 23.119 399.85 22.539 399.85C21.979 399.85 21.549 400.04 21.249 400.42C21.019 400.72 20.889 401.07 20.859 401.47ZM27.0173 408.655L32.7023 400.015H27.2273V398.995H34.5773L27.8873 409.24L27.0173 408.655ZM40.8406 407.68C40.1506 408.68 39.2956 409.18 38.2756 409.18C37.2556 409.18 36.4006 408.68 35.7106 407.68C35.0406 406.71 34.7056 405.485 34.7056 404.005C34.7056 402.525 35.0406 401.3 35.7106 400.33C36.4006 399.33 37.2556 398.83 38.2756 398.83C39.2956 398.83 40.1506 399.33 40.8406 400.33C41.5106 401.3 41.8456 402.525 41.8456 404.005C41.8456 405.485 41.5106 406.71 40.8406 407.68ZM40.0006 400.96C39.5406 400.22 38.9656 399.85 38.2756 399.85C37.5856 399.85 37.0106 400.22 36.5506 400.96C36.0606 401.74 35.8156 402.755 35.8156 404.005C35.8156 405.255 36.0606 406.27 36.5506 407.05C37.0106 407.79 37.5856 408.16 38.2756 408.16C38.9656 408.16 39.5406 407.79 40.0006 407.05C40.4906 406.27 40.7356 405.255 40.7356 404.005C40.7356 402.755 40.4906 401.74 40.0006 400.96Z" fill="#6A665E"/>
<path d="M23.0169 823.795C24.0269 824.245 24.5319 825.06 24.5319 826.24C24.5319 827.07 24.2619 827.77 23.7219 828.34C23.1919 828.9 22.4419 829.18 21.4719 829.18C20.5019 829.18 19.7469 828.9 19.2069 828.34C18.6769 827.77 18.4119 827.07 18.4119 826.24C18.4119 825.06 18.9169 824.245 19.9269 823.795C19.1169 823.325 18.7119 822.595 18.7119 821.605C18.7119 820.845 18.9569 820.195 19.4469 819.655C19.9369 819.105 20.6119 818.83 21.4719 818.83C22.3319 818.83 23.0069 819.105 23.4969 819.655C23.9869 820.195 24.2319 820.845 24.2319 821.605C24.2319 822.595 23.8269 823.325 23.0169 823.795ZM20.2569 822.85C20.5769 823.18 20.9819 823.345 21.4719 823.345C21.9619 823.345 22.3669 823.18 22.6869 822.85C23.0169 822.52 23.1819 822.11 23.1819 821.62C23.1819 821.09 23.0119 820.665 22.6719 820.345C22.3419 820.015 21.9419 819.85 21.4719 819.85C21.0019 819.85 20.5969 820.015 20.2569 820.345C19.9269 820.665 19.7619 821.09 19.7619 821.62C19.7619 822.11 19.9269 822.52 20.2569 822.85ZM20.0619 827.605C20.4219 827.975 20.8919 828.16 21.4719 828.16C22.0519 828.16 22.5219 827.98 22.8819 827.62C23.2419 827.25 23.4219 826.78 23.4219 826.21C23.4219 825.65 23.2369 825.195 22.8669 824.845C22.5069 824.485 22.0419 824.305 21.4719 824.305C20.9019 824.305 20.4319 824.485 20.0619 824.845C19.7019 825.195 19.5219 825.65 19.5219 826.21C19.5219 826.78 19.7019 827.245 20.0619 827.605ZM32.5623 827.68C31.8723 828.68 31.0173 829.18 29.9973 829.18C28.9773 829.18 28.1223 828.68 27.4323 827.68C26.7623 826.71 26.4273 825.485 26.4273 824.005C26.4273 822.525 26.7623 821.3 27.4323 820.33C28.1223 819.33 28.9773 818.83 29.9973 818.83C31.0173 818.83 31.8723 819.33 32.5623 820.33C33.2323 821.3 33.5673 822.525 33.5673 824.005C33.5673 825.485 33.2323 826.71 32.5623 827.68ZM31.7223 820.96C31.2623 820.22 30.6873 819.85 29.9973 819.85C29.3073 819.85 28.7323 820.22 28.2723 820.96C27.7823 821.74 27.5373 822.755 27.5373 824.005C27.5373 825.255 27.7823 826.27 28.2723 827.05C28.7323 827.79 29.3073 828.16 29.9973 828.16C30.6873 828.16 31.2623 827.79 31.7223 827.05C32.2123 826.27 32.4573 825.255 32.4573 824.005C32.4573 822.755 32.2123 821.74 31.7223 820.96ZM41.0877 827.68C40.3977 828.68 39.5427 829.18 38.5227 829.18C37.5027 829.18 36.6477 828.68 35.9577 827.68C35.2877 826.71 34.9527 825.485 34.9527 824.005C34.9527 822.525 35.2877 821.3 35.9577 820.33C36.6477 819.33 37.5027 818.83 38.5227 818.83C39.5427 818.83 40.3977 819.33 41.0877 820.33C41.7577 821.3 42.0927 822.525 42.0927 824.005C42.0927 825.485 41.7577 826.71 41.0877 827.68ZM40.2477 820.96C39.7877 820.22 39.2127 819.85 38.5227 819.85C37.8327 819.85 37.2577 820.22 36.7977 820.96C36.3077 821.74 36.0627 822.755 36.0627 824.005C36.0627 825.255 36.3077 826.27 36.7977 827.05C37.2577 827.79 37.8327 828.16 38.5227 828.16C39.2127 828.16 39.7877 827.79 40.2477 827.05C40.7377 826.27 40.9827 825.255 40.9827 824.005C40.9827 822.755 40.7377 821.74 40.2477 820.96Z" fill="#6A665E"/>
<path d="M22.9717 1249.24L22.1317 1248.62L24.4267 1245.43C24.1367 1245.52 23.8417 1245.56 23.5417 1245.56C22.5917 1245.56 21.8117 1245.25 21.2017 1244.62C20.6017 1243.99 20.3017 1243.2 20.3017 1242.26C20.3017 1241.26 20.6217 1240.44 21.2617 1239.8C21.9117 1239.15 22.7367 1238.83 23.7367 1238.83C24.4767 1238.83 25.1167 1239.01 25.6567 1239.37C26.2067 1239.72 26.6017 1240.15 26.8417 1240.66C27.0817 1241.16 27.2017 1241.68 27.2017 1242.23C27.2017 1243 26.9267 1243.77 26.3767 1244.53L22.9717 1249.24ZM23.7517 1239.85C23.0717 1239.85 22.5117 1240.08 22.0717 1240.54C21.6317 1240.99 21.4117 1241.55 21.4117 1242.23C21.4117 1242.9 21.6317 1243.46 22.0717 1243.9C22.5217 1244.33 23.0867 1244.54 23.7667 1244.54C24.4467 1244.54 25.0017 1244.32 25.4317 1243.88C25.8717 1243.44 26.0917 1242.89 26.0917 1242.23C26.0917 1241.55 25.8717 1240.99 25.4317 1240.54C25.0017 1240.08 24.4417 1239.85 23.7517 1239.85ZM30.3225 1249V1240.04H28.6425L29.2275 1238.99H31.4325V1249H30.3225ZM40.1679 1238.99V1240.01H36.9579L36.3129 1242.17C36.4829 1242.13 36.6929 1242.11 36.9429 1242.11C37.9329 1242.11 38.7279 1242.44 39.3279 1243.1C39.9379 1243.76 40.2429 1244.59 40.2429 1245.58C40.2429 1246.66 39.8879 1247.53 39.1779 1248.19C38.4779 1248.85 37.6179 1249.18 36.5979 1249.18C35.7379 1249.18 34.9929 1248.92 34.3629 1248.4C34.0029 1248.09 33.7129 1247.75 33.4929 1247.38L34.3779 1246.75C34.5279 1247.05 34.7529 1247.32 35.0529 1247.56C35.5429 1247.96 36.0829 1248.16 36.6729 1248.16C37.3729 1248.16 37.9579 1247.91 38.4279 1247.41C38.8979 1246.91 39.1329 1246.3 39.1329 1245.59C39.1329 1244.87 38.8979 1244.28 38.4279 1243.82C37.9679 1243.36 37.3829 1243.13 36.6729 1243.13C36.0429 1243.13 35.3979 1243.36 34.7379 1243.82L36.1929 1238.99H40.1679Z" fill="#6A665E"/>
</svg>
