<svg width="416" height="350" viewBox="0 0 416 350" fill="none" xmlns="http://www.w3.org/2000/svg">
<g clip-path="url(#clip0)">
<g opacity="0.05">
<path fill-rule="evenodd" clip-rule="evenodd" d="M474.087 52.5391C475.799 51.1377 478.323 51.3923 479.721 53.1073L497.479 74.8958C498.872 76.6055 498.618 79.1206 496.912 80.5178L157.543 358.359C156.73 359.025 156.595 360.217 157.238 361.048V361.048C157.906 361.91 159.153 362.052 159.998 361.363L377.487 183.953C379.2 182.555 381.722 182.813 383.118 184.528L400.858 206.33C402.251 208.042 401.994 210.559 400.284 211.954L155.772 411.407C154.029 412.828 151.458 412.535 150.081 410.757L108.384 356.924C107.057 355.21 107.336 352.752 109.013 351.379L474.087 52.5391Z" fill="#DBB56D"/>
<path d="M256.235 -29.417V223.557C256.235 224.784 255.672 225.943 254.708 226.701L226.473 248.909C223.849 250.973 220 249.104 220 245.765V-84.5865C220 -87.5458 223.102 -89.4805 225.76 -88.1787L294.76 -54.3795C296.131 -53.7078 297 -52.3142 297 -50.7873V191.099C297 192.302 296.458 193.441 295.525 194.201L267.29 217.188C264.677 219.315 260.765 217.456 260.765 214.086V-29.4169C260.765 -30.2814 260.273 -31.0705 259.496 -31.4507C257.992 -32.1878 256.235 -31.0924 256.235 -29.417Z" fill="#DBB56D"/>
<path d="M317.776 290.288L375.588 355.941C376.516 356.995 378.114 357.116 379.191 356.215C380.305 355.282 380.433 353.615 379.475 352.523L321.699 286.723C320.205 285.021 320.42 282.421 322.172 280.987L343.008 263.947C344.677 262.582 347.127 262.786 348.548 264.407L429.271 356.495C430.763 358.196 430.547 360.796 428.795 362.228L374.605 406.533C372.926 407.906 370.459 407.691 369.043 406.048L289.656 313.939C288.196 312.245 288.408 309.684 290.126 308.254L312.215 289.858C313.879 288.472 316.345 288.663 317.776 290.288Z" fill="#DBB56D"/>
<path fill-rule="evenodd" clip-rule="evenodd" d="M314 281.924L234.252 347.569C229.953 351.109 223.59 350.454 220.102 346.113L210.191 333.78C206.76 329.511 207.402 323.276 211.63 319.795L291.56 254L314 281.924Z" fill="#DBB56D"/>
<path fill-rule="evenodd" clip-rule="evenodd" d="M216 64.0983C216 63.0106 215.557 61.9697 214.773 61.2156L135.106 -15.426C134.091 -16.4022 132.638 -16.773 131.279 -16.4023L96.4225 -6.88925C93.4 -6.06438 92.4562 -2.24245 94.7472 -0.1054L209.272 106.724C211.829 109.109 216 107.296 216 103.799V64.0983Z" fill="#DBB56D"/>
</g>
</g>
<defs>
<clipPath id="clip0">
<rect width="416" height="350" fill="white"/>
</clipPath>
</defs>
</svg>
