<svg width="32" height="31" viewBox="0 0 32 31" fill="none" xmlns="http://www.w3.org/2000/svg">
<path d="M0.00012207 22.151C0.0777299 22.158 0.120943 22.1572 0.162393 22.1659C1.09898 22.3561 2.03468 22.5523 2.97303 22.7328C3.20321 22.7766 3.44485 22.7731 3.68032 22.7749C3.73853 22.7758 3.82143 22.7258 3.85053 22.675C4.26502 21.9662 4.67776 21.2564 5.07991 20.5406C5.23777 20.2593 5.15134 19.9579 4.89559 19.7599C4.82768 19.7073 4.77565 19.6328 4.72626 19.561C4.54018 19.2885 4.40525 18.9783 4.08159 18.8189C3.95988 18.7584 3.86288 18.648 3.7544 18.5613C3.76939 18.5341 3.78439 18.5061 3.7985 18.4789C3.86993 18.4745 3.94489 18.4552 4.01368 18.4675C4.4758 18.5507 4.94145 18.62 5.39563 18.7347C5.69812 18.811 5.88685 18.6953 6.01208 18.4614C6.1382 18.2257 6.25284 17.9751 6.3181 17.7175C6.41776 17.3267 6.49272 16.9271 6.53946 16.5267C6.61002 15.9195 6.54828 15.3228 6.26078 14.7691C6.15054 14.557 6.01649 14.3573 5.88421 14.1365C5.91948 14.1338 5.96534 14.1268 6.01032 14.1295C6.2308 14.1417 6.45127 14.1505 6.67087 14.1724C7.08536 14.2127 7.40814 14.0383 7.64097 13.7238C7.90201 13.3715 8.14365 13.0027 8.36325 12.6241C8.5996 12.215 8.79891 11.7839 9.01939 11.3659C9.07054 11.2687 9.08465 11.1881 9.03526 11.0829C8.81831 10.6133 8.6093 10.1401 8.40117 9.66698C8.20362 9.21924 8.01401 8.768 7.8147 8.32114C7.46547 7.53432 7.1127 6.74837 6.75906 5.96329C6.71144 5.85728 6.64617 5.75827 6.58973 5.65575C6.59943 5.64261 6.60913 5.63034 6.61884 5.6172C6.83578 5.72585 7.06773 5.81347 7.2688 5.94665C8.29975 6.63183 9.32982 7.31877 10.344 8.02849C10.643 8.2379 10.807 8.09771 10.912 7.88742C10.9728 7.76563 11.0196 7.61668 11.0107 7.48437C10.9728 6.935 10.9111 6.38737 10.8582 5.83887C10.8546 5.80207 10.8502 5.7644 10.8414 5.6759C10.9349 5.75651 10.9975 5.80646 11.0557 5.8599C11.3168 6.10261 11.5769 6.34094 11.9262 6.46273C12.1616 6.54509 12.256 6.53896 12.4041 6.33042C12.6687 5.95804 12.9183 5.57514 13.1829 5.20363C13.944 4.13292 14.5375 2.96845 15.116 1.7961C15.1707 1.68482 15.2368 1.57968 15.2924 1.4684C15.5332 0.980362 15.7713 0.491445 16.0094 0.00427896C15.9997 -0.0071116 16.0191 0.00603136 16.0235 0.0226791C16.1717 0.559788 16.4574 1.03469 16.7114 1.52448C17.028 2.13431 17.3402 2.74678 17.6612 3.35486C18.0757 4.13818 18.5537 4.88207 19.0687 5.60318C19.2328 5.83274 19.3862 6.06931 19.5511 6.298C19.7284 6.54334 19.7981 6.54947 20.0785 6.45046C20.4163 6.3313 20.6641 6.09472 20.919 5.86341C20.9789 5.80908 21.0398 5.75651 21.1359 5.72409C21.1192 5.838 21.0953 5.95103 21.0856 6.06581C21.0424 6.54159 20.9842 7.01736 20.9719 7.49401C20.9675 7.65874 21.053 7.84274 21.1438 7.98906C21.2638 8.1827 21.3978 8.18445 21.5848 8.0539C22.3485 7.51854 23.1043 6.97092 23.8813 6.45397C24.3496 6.14204 24.8496 5.87743 25.3356 5.59179C25.3488 5.60581 25.362 5.6207 25.3744 5.63472C25.3629 5.67327 25.355 5.71446 25.3382 5.75126C24.8232 6.87016 24.3011 7.98731 23.7922 9.10884C23.5806 9.57498 23.3998 10.0551 23.2005 10.5265C23.1176 10.7228 23.0161 10.9112 22.9385 11.1092C22.9138 11.1723 22.9156 11.266 22.9456 11.3265C23.1713 11.7804 23.3936 12.2369 23.6449 12.6767C23.8451 13.0281 24.0718 13.3663 24.3117 13.6922C24.5551 14.0234 24.884 14.2118 25.3197 14.1715C25.5772 14.1479 25.8365 14.1435 26.1266 14.1286C26.0437 14.2407 25.9688 14.3275 25.9106 14.4247C25.5948 14.9504 25.4114 15.5025 25.4211 16.1324C25.4317 16.8071 25.5657 17.4494 25.7747 18.0802C25.8382 18.2721 25.9811 18.4377 26.0913 18.613C26.1822 18.7575 26.3153 18.7803 26.4767 18.747C26.9195 18.6559 27.3639 18.5691 27.8093 18.4877C27.9292 18.4658 28.0536 18.471 28.1762 18.4631C28.1841 18.485 28.192 18.5069 28.2 18.5288C28.1021 18.6252 28.0192 18.7523 27.9019 18.8127C27.5703 18.9836 27.4248 19.2964 27.2414 19.5847C27.2034 19.6442 27.1585 19.7038 27.1029 19.745C26.8207 19.9535 26.7387 20.2611 26.9106 20.5642C27.296 21.2442 27.6973 21.9153 28.0739 22.5996C28.1797 22.7915 28.3243 22.7994 28.4963 22.7837C29.6216 22.682 30.7064 22.3692 31.8123 22.1642C31.8546 22.1563 31.8987 22.1537 32.0001 22.1423C31.8537 22.3272 31.7505 22.4884 31.6183 22.6189C31.1799 23.05 30.7328 23.4732 30.2839 23.8938C29.7327 24.4107 29.3394 25.0267 29.1083 25.7426C28.9769 26.1482 28.8596 26.5592 28.8791 26.9938C28.8808 27.0385 28.8508 27.084 28.8358 27.1287C28.7917 27.1094 28.7397 27.0989 28.7062 27.0691C28.5007 26.8851 28.3208 26.6626 28.0906 26.5189C27.7723 26.32 27.4327 26.115 27.0738 26.0343C26.7404 25.9599 26.37 26.0317 26.0173 26.0615C25.6054 26.0966 25.3179 26.3874 24.9907 26.5934C24.8902 26.6564 24.7985 26.7327 24.6988 26.7966C24.175 27.1287 24.085 27.6168 24.2094 28.1705C24.3214 28.6682 24.4395 29.165 24.5798 29.6557C24.6821 30.0149 24.824 30.3628 24.9493 30.715C24.9696 30.7719 24.9934 30.828 25.0163 30.8841C25.0057 30.8972 24.9951 30.9104 24.9854 30.9235C24.9149 30.8806 24.8285 30.8517 24.7755 30.793C24.5251 30.5161 24.2896 30.2252 24.0374 29.9501C23.7446 29.6303 23.4562 29.3034 23.1343 29.0143C22.8636 28.7707 22.4967 28.7453 22.1448 28.7102C21.7312 28.6691 21.3317 28.7251 20.9463 28.8758C20.4251 29.0809 19.873 29.1448 19.3271 29.2412C18.9038 29.3157 18.4893 29.4314 18.0686 29.5225C17.9363 29.5514 17.797 29.5812 17.6647 29.5707C17.207 29.5321 16.946 29.8221 16.7026 30.1297C16.4997 30.3855 16.3233 30.6615 16.1346 30.9279C16.0588 31.0357 15.9168 31.0182 15.8321 30.9051C15.5772 30.5625 15.3206 30.2199 15.0543 29.8861C14.8929 29.6837 14.6803 29.5926 14.4087 29.5724C14.0321 29.5444 13.6591 29.4638 13.2869 29.3946C12.8089 29.3061 12.3301 29.2193 11.8582 29.1063C11.397 28.9959 10.9499 28.8031 10.4834 28.7383C9.80869 28.6454 9.12698 28.6594 8.61371 29.2263C8.31562 29.5558 8.03077 29.8975 7.73533 30.2296C7.55807 30.4285 7.37463 30.623 7.18678 30.8131C7.13828 30.8622 7.06508 30.8867 6.96895 30.899C6.98747 30.8447 7.00335 30.7895 7.02451 30.736C7.14092 30.4381 7.28027 30.1472 7.3711 29.8423C7.48575 29.4568 7.56071 29.0599 7.65419 28.6682C7.68771 28.5262 7.72739 28.3852 7.75826 28.2424C7.92759 27.4582 7.7565 27.0972 7.1665 26.7081C6.97336 26.5811 6.78111 26.4505 6.59238 26.3165C6.27577 26.0913 5.9089 26.0352 5.53497 25.9914C4.84003 25.9108 4.28266 26.2236 3.75705 26.6109C3.57714 26.7441 3.43162 26.9228 3.26759 27.0761C3.2376 27.1042 3.19086 27.1129 3.15206 27.1305C3.1353 27.0867 3.10444 27.0428 3.10267 26.999C3.04976 25.7066 2.51885 24.6412 1.56992 23.7659C1.22509 23.4487 0.897022 23.114 0.564543 22.7837C0.405799 22.6251 0.254111 22.4595 0.101541 22.2947C0.067147 22.2632 0.0450993 22.2185 0.00012207 22.151ZM14.8135 23.616C14.7968 23.6336 14.78 23.652 14.7641 23.6695C14.5392 23.5547 14.3002 23.4601 14.0912 23.3208C13.7676 23.1035 13.4254 22.9983 13.0356 23.0185C12.8883 23.0264 12.779 23.0719 12.6758 23.1736C12.3777 23.4697 12.1766 23.8237 12.0188 24.2083C11.733 24.904 11.487 25.612 11.5072 26.3761C11.5125 26.5715 11.5487 26.7923 11.651 26.9508C11.7568 27.1164 11.942 27.2575 12.1237 27.346C12.5647 27.5607 13.0144 27.7675 13.4783 27.9252C14.2667 28.1942 15.0984 28.1626 15.9168 28.1872C16.3569 28.2003 16.7987 28.1451 17.2396 28.1337C18.2732 28.1065 19.201 27.7587 20.0635 27.219C20.2743 27.0867 20.4445 26.8983 20.4515 26.6205C20.4551 26.4751 20.4701 26.3287 20.4701 26.1833C20.4701 25.7268 20.3466 25.2931 20.2046 24.8655C20.0326 24.3468 19.843 23.8351 19.5009 23.3944C19.3121 23.1508 19.1093 22.9861 18.7645 23.0141C18.4461 23.0404 18.1736 23.1394 17.9117 23.3085C17.6885 23.4522 17.4592 23.5933 17.1497 23.645C17.2723 23.4347 17.3763 23.255 17.4813 23.0763C17.7432 22.6259 17.9452 22.1537 17.9919 21.6279C18.0219 21.2897 17.909 20.9866 17.6912 20.743C17.2352 20.2348 16.7572 19.7459 16.2872 19.2499C16.0482 18.9976 15.9291 18.9985 15.6866 19.2552C15.221 19.7476 14.7518 20.2365 14.2914 20.7342C14.0895 20.9524 13.981 21.2275 13.9828 21.5175C13.9863 22.0582 14.2006 22.5444 14.4555 23.0106C14.5683 23.2156 14.6945 23.4145 14.8135 23.616ZM14.0921 16.1456C14.0754 16.029 14.0648 15.9108 14.0392 15.796C13.9131 15.2265 13.6908 14.6972 13.4113 14.1829C13.1273 13.6616 12.7948 13.1875 12.3327 12.8108C12.2816 12.7696 12.2234 12.731 12.1625 12.7074C11.7621 12.5497 11.4676 12.6907 11.1598 13.0325C10.6015 13.6502 10.1623 14.3529 9.7399 15.067C9.4427 15.5699 9.433 16.0632 9.68699 16.5758C9.76372 16.7309 9.82369 16.8956 9.91011 17.0454C10.0574 17.3022 10.1923 17.5729 10.3819 17.7972C10.6245 18.0846 10.9217 18.3264 11.1836 18.5989C11.4905 18.9161 11.8265 19.1746 12.2683 19.2867C12.5629 19.3612 12.8222 19.3165 13.0144 19.0984C13.2067 18.8811 13.3769 18.6384 13.5153 18.3843C13.6494 18.1389 13.7385 17.8682 13.8337 17.6036C14.0039 17.1331 14.0833 16.6459 14.0921 16.1456ZM17.9046 15.9782C17.8861 17.063 18.1956 17.8857 18.6145 18.6734C18.7027 18.839 18.8438 18.981 18.9779 19.1159C19.1366 19.2754 19.3395 19.3551 19.567 19.3139C19.8466 19.264 20.1226 19.1851 20.3413 18.9923C20.6288 18.7391 20.9119 18.4798 21.1871 18.2134C21.3811 18.0259 21.5927 17.8437 21.7347 17.6202C21.9534 17.2768 22.1298 16.9052 22.3062 16.5372C22.5011 16.1307 22.5805 15.704 22.3468 15.2887C22.0963 14.8418 21.8344 14.4002 21.5469 13.977C21.2497 13.5406 20.9639 13.0903 20.5203 12.774C20.3087 12.6224 19.9153 12.5838 19.7204 12.7512C19.4726 12.9632 19.2213 13.1849 19.0317 13.446C18.7786 13.7956 18.5634 14.1768 18.3676 14.5623C18.1145 15.0608 17.9408 15.5901 17.9046 15.9782ZM15.9891 14.6727C16.2951 14.1698 16.5782 13.6905 16.8754 13.2191C17.3358 12.4901 17.8032 11.7655 18.2741 11.0435C18.387 10.8709 18.4055 10.7578 18.3023 10.58C18.051 10.1463 17.797 9.71342 17.5545 9.27532C17.0544 8.37371 16.5615 7.46948 16.0641 6.56612C16.0447 6.53019 16.0156 6.49953 15.9785 6.45046C15.8145 6.7326 15.6566 6.99283 15.5093 7.25831C14.892 8.37108 14.2773 9.48561 13.6653 10.6019C13.6318 10.6623 13.5956 10.75 13.6159 10.806C13.6609 10.9331 13.7323 11.0522 13.8046 11.1679C14.3488 12.0371 14.8973 12.9037 15.4414 13.7728C15.624 14.0637 15.7977 14.3573 15.9891 14.6727ZM9.61732 21.734C9.60762 21.7471 9.59704 21.7603 9.58733 21.7734C9.52825 21.7655 9.46916 21.7585 9.41095 21.7497C8.95942 21.6788 8.50876 21.599 8.05634 21.5395C7.79442 21.5053 7.60216 21.6726 7.45135 21.8487C7.08536 22.2763 7.0351 22.8056 7.01393 23.3392C6.99629 23.7843 7.07919 24.2075 7.22118 24.6289C7.37551 25.0854 7.72739 25.3649 8.21332 25.3649C8.31562 25.3649 8.41793 25.3588 8.51934 25.3667C8.77157 25.386 8.99822 25.3237 9.21164 25.1871C9.46651 25.0241 9.74696 24.9058 9.93216 24.6403C10.2638 24.1645 10.5345 23.6625 10.6827 23.1008C10.747 22.8564 10.837 22.6119 10.8538 22.364C10.8829 21.9329 10.874 21.4983 10.8617 21.0654C10.8564 20.8832 10.8458 20.6773 10.7612 20.5239C10.5636 20.1656 10.3564 19.8002 10.083 19.5005C9.86161 19.2587 9.53971 19.1071 9.25926 18.9196C9.22928 18.8995 9.18342 18.8951 9.14462 18.8933C8.53522 18.86 8.02371 19.2167 7.83851 19.8028C7.72298 20.17 7.8147 20.3513 8.13483 20.5669C8.58902 20.8718 9.02291 21.2056 9.46122 21.5333C9.52736 21.5815 9.56617 21.6656 9.61732 21.734ZM22.405 21.7848C22.3873 21.7629 22.3688 21.7401 22.3512 21.7182C22.4641 21.6008 22.5628 21.465 22.6925 21.3695C23.0796 21.0856 23.4721 20.8105 23.8742 20.5476C24.1494 20.3671 24.227 20.1621 24.1591 19.8475C24.0682 19.4234 23.7913 19.1571 23.4245 19.0029C23.2146 18.9144 22.9191 18.8592 22.7233 18.9389C22.4085 19.0668 22.1192 19.292 21.8679 19.5268C21.6615 19.7196 21.5187 19.9816 21.3634 20.2234C21.2797 20.3548 21.1879 20.5029 21.1712 20.651C21.0733 21.5202 21.0363 22.3867 21.3343 23.234C21.6315 24.0778 21.9905 24.8716 22.89 25.2501C23.0373 25.3124 23.2013 25.3448 23.3601 25.3641C23.5109 25.3825 23.6652 25.3614 23.8187 25.3658C24.242 25.3763 24.5083 25.1354 24.6865 24.7963C24.7896 24.6 24.8408 24.3748 24.8955 24.1567C25.0101 23.6958 24.9722 23.2288 24.9158 22.7644C24.8734 22.4174 24.7508 22.0906 24.5163 21.8312C24.3787 21.6796 24.2058 21.5175 23.9712 21.5368C23.6344 21.564 23.2975 21.6104 22.9632 21.6612C22.7754 21.6902 22.5911 21.7427 22.405 21.7848Z" fill="#DBB56D"/>
</svg>
