<svg width="34" height="38" viewBox="0 0 34 38" fill="none" xmlns="http://www.w3.org/2000/svg">
<path d="M21.7271 20.2808C20.9203 20.5896 20.4302 20.4638 20.1852 20.3571C18.9637 19.831 18.3945 17.5133 19.1447 14.6199C19.1032 14.1434 19.0768 13.1256 19.582 11.9972C20.1663 10.6897 21.1239 10.0035 21.5198 9.74808C19.9326 9.74427 19.1522 10.1979 18.7337 10.6363C18.4284 10.9527 17.9006 11.6884 17.4369 11.5664C17.369 11.5474 17.3162 11.5169 17.2861 11.4902V10.5219C17.2861 10.1636 17.452 9.83195 17.7347 9.61847L17.795 9.57654C17.795 9.57654 17.5085 9.11528 17.3841 8.77981C17.3275 8.62733 17.2861 8.47866 17.2521 8.34524C17.222 8.21944 17.2069 8.09364 17.2069 7.96403V6.37058C17.2069 6.16854 17.2861 5.97413 17.4256 5.82927L17.6178 5.62723H17.2069V5.2384C17.2258 5.15072 17.2748 4.99823 17.3879 4.84575C17.5085 4.68183 17.648 4.59415 17.7309 4.55222C17.5575 4.55222 17.3803 4.55222 17.2069 4.55222V3.88511C17.2069 3.78981 17.2521 3.69832 17.3275 3.63732L17.6932 3.35142C17.5424 2.98927 17.3916 2.58519 17.2597 2.13155C17.0863 1.54449 16.9091 0.522858 16.9091 0.522858C16.9091 0.522858 16.7847 1.52543 16.6037 2.13155C16.4642 2.60044 16.2983 3.00452 16.1362 3.34761C16.2569 3.44291 16.3813 3.53821 16.5019 3.63351C16.5773 3.69069 16.6226 3.78218 16.6226 3.8813V4.54841H16.0985C16.1815 4.59034 16.3323 4.68564 16.4567 4.861C16.5622 5.00586 16.6037 5.15072 16.6226 5.2384C16.6226 5.36801 16.6226 5.49762 16.6226 5.62723H16.2116L16.4039 5.82927C16.5434 5.97413 16.6226 6.16854 16.6226 6.37058V7.9869C16.6226 8.0822 16.615 8.18132 16.5962 8.27662C16.566 8.4291 16.5208 8.60065 16.4529 8.78363C16.3285 9.1229 16.0344 9.58035 16.0344 9.58035L16.0948 9.62228C16.3775 9.83576 16.5434 10.1712 16.5434 10.5257C16.5434 11.1662 16.2569 11.7685 15.7592 12.1687L15.665 12.245C16.5208 13.8041 18.0627 13.2476 18.0627 13.2476C17.8063 14.6847 17.0599 15.7559 16.3813 16.4726C15.9327 16.9415 15.4803 17.2922 15.0844 17.54C15.0882 17.9021 15.0618 18.3405 14.96 18.8284C14.7828 19.69 14.4473 20.3495 14.1758 20.784C14.9789 20.0369 15.7856 19.2897 16.5886 18.5425C16.7734 18.9466 16.9543 19.4041 17.1089 19.9149C17.4783 21.1386 17.5688 22.2403 17.5651 23.098C17.6706 23.2505 17.9157 23.5554 18.3341 23.7575C18.6546 23.9099 18.9449 23.9443 19.1221 23.9481C19.1221 24.1692 19.1221 24.3865 19.1221 24.6076C19.0881 24.5885 18.5603 24.3026 18.025 24.5999C18.0024 24.6114 17.5236 24.8858 17.4633 25.4005C17.3954 25.9418 17.8176 26.5365 18.5038 26.7194C18.5038 26.9139 18.5038 27.1121 18.5038 27.3065C18.4435 27.2608 18.1155 27.0244 17.746 27.1235C17.5311 27.1807 17.3992 27.3256 17.3389 27.3942C16.8375 27.9584 17.0976 29.0067 17.1315 29.1401C17.0146 29.1515 16.8978 29.163 16.7809 29.1744C15.8723 30.5468 14.96 31.9191 14.0514 33.2953C15.1108 31.6485 17.0259 28.1223 16.9279 23.4639C16.894 21.8438 16.6226 20.4295 16.2946 19.2821C15.6801 19.8501 15.0693 20.4181 14.4548 20.9861C14.6735 21.1004 14.8959 21.2186 15.1146 21.333C15.2729 22.042 15.4539 23.0751 15.4916 24.3293C15.5858 27.3751 14.779 29.6776 14.1495 31.4274C13.6292 32.8683 12.7621 34.8506 11.2994 37.0082C13.535 35.2928 17.6932 29.9445 18.0778 29.2468C18.4623 28.5454 19.4651 27.9736 19.4651 27.9736C19.4086 26.971 19.4463 25.3738 20.0495 23.5478C20.5283 22.0954 21.1993 21.0051 21.7271 20.2808Z" fill="#DBB56D"/>
<path d="M14.3304 10.438C14.2889 10.7506 14.2625 11.2881 14.4661 11.8904C14.4698 11.9018 14.5792 12.2182 14.73 12.4737C15.3105 13.4381 16.6451 13.7088 16.9128 13.7583C16.8675 14.0595 16.7846 14.4026 16.6489 14.7685C16.2153 15.9121 15.4613 16.6326 14.9976 17.0062C15.073 14.9324 14.4208 13.5258 13.6631 13.4152C13.5575 13.4 13.0636 13.3542 12.3775 14.2043C12.3021 13.8803 12.2493 13.4572 12.3285 12.9769C12.5999 11.3643 14.1004 10.5562 14.3304 10.438Z" fill="#DBB56D"/>
<path d="M13.8365 16.1525C12.9581 15.9924 11.1259 15.5197 9.7272 13.972C8.90534 13.0609 8.46048 12.0278 8.27198 11.5818C7.77812 10.4115 7.98924 10.0722 7.58585 9.22592C6.96757 7.93363 5.22584 6.35543 4.40022 5.76456C3.59344 5.18131 2.37951 4.43033 0.765961 3.81659C2.50392 4.04913 3.8875 4.52564 4.84885 4.93353C6.56796 5.66545 7.69141 6.50791 7.92892 6.69089C8.81863 7.36563 9.47838 8.04418 9.93454 8.57025C10.4209 8.7761 10.9072 8.98195 11.3898 9.19162C10.7262 9.29073 10.2663 9.59951 10.2248 9.95784C10.206 10.1294 10.2889 10.2742 10.3266 10.339C10.7413 11.0252 12.0118 10.907 12.14 10.8918C11.6537 11.4522 11.5066 11.9706 11.4538 12.2756C11.2201 13.6632 12.1664 15.2185 13.8365 16.1525Z" fill="#DBB56D"/>
<path d="M19.578 16.1256C19.5064 13.8308 20.1322 12.7291 20.758 12.1534C21.4027 11.5588 22.2245 11.2309 22.4545 10.2855C22.6279 9.55742 22.3301 8.93986 22.2736 8.83312C21.84 7.97159 20.9805 7.72762 20.8372 7.6895C21.1049 7.59038 21.5384 7.47602 22.0172 7.58657C22.7712 7.76193 22.9861 8.33755 23.7891 8.62346C24.381 8.83312 24.9427 8.76069 25.2028 8.6997C26.7561 8.34517 28.1019 6.0808 27.4686 4.312C27.1896 3.54196 26.6053 3.05783 26.1793 2.78717C26.2283 2.66518 26.2848 2.4822 26.2735 2.2611C26.2509 1.89514 26.0511 1.60161 25.6326 1.18229C24.8899 0.442744 24.1661 0.0196038 24.1774 0.00054339C24.1849 -0.0108928 24.479 0.160651 24.7052 0.282637C25.9267 0.94975 29.0105 2.8291 31.1858 6.28284C33.4402 9.86238 33.7268 13.2932 33.8474 14.9439C34.0811 18.1765 33.4968 20.8373 32.9577 22.5604C33.248 18.6645 32.5543 16.259 31.9549 14.8753C31.8267 14.5741 31.1896 13.0988 30.8012 13.1865C30.5373 13.2475 30.5826 13.9947 30.3903 14.9782C30.0246 16.8652 28.7466 18.329 28.7466 18.329C28.9351 16.9833 29.1613 14.2577 28.0529 12.4355C27.6684 11.8065 27.4422 11.7989 27.3593 11.8142C26.8503 11.8904 27.0086 13.522 26.1265 15.1421C25.6741 15.9731 25.0822 16.5526 24.6109 16.93C25.3838 15.1383 25.0256 13.4457 24.1246 12.9311C23.1821 12.3936 21.8249 13.2475 21.5045 13.4495C20.1548 14.2996 19.7024 15.6796 19.578 16.1256Z" fill="#DBB56D"/>
</svg>
