<svg width="115" height="81" viewBox="0 0 115 81" fill="none" xmlns="http://www.w3.org/2000/svg">
<path d="M93.9126 32.6918C93.9126 32.6918 99.9936 29.1624 101.023 27.1696C102.053 25.1768 102.47 22.7518 100.288 20.687C98.1055 18.6222 90.9701 12.7638 90.9701 12.7638L91.2153 12.0435L86.8017 8.4421L85.8209 8.92229L85.0853 8.4421V7.48171L90.9701 0.999118C90.9701 0.999118 93.177 0.87907 94.8934 2.1996C96.6098 3.52013 97.0757 4.4565 97.1002 5.08075C97.1247 5.705 96.1194 7.24162 96.1194 7.24162C96.1194 7.24162 101.71 13.5321 102.985 14.2044C104.652 15.0687 108.894 18.5021 115 15.8851C112.965 21.8635 104.628 34.1804 93.9126 32.6918ZM89.4989 13.0039L84.4232 18.5982C85.6492 19.8226 86.8017 21.1432 87.8316 22.5357L84.5949 22.7518C84.129 22.7278 83.6386 22.7518 83.0991 22.8479C82.7559 22.8959 82.4126 23.0399 82.0448 23.232C81.9957 23.256 81.9712 23.256 81.9222 23.28C80.2058 23.8563 79.0778 24.6246 78.3422 25.2968L77.6557 26.0411C77.2878 26.4253 77.0426 26.7134 77.0426 26.7134L68.4115 36.2932L63.7527 31.7314L77.9989 17.7818C72.2612 13.4841 65.0768 10.9151 57.3038 10.9151C49.629 10.9151 42.5426 13.4121 36.8294 17.6138L51.2473 31.7314L46.5885 36.2932L37.9083 26.7134C37.9083 26.7134 37.8838 26.6894 37.2953 26.0411L36.6087 25.2968C35.8731 24.6246 34.7697 23.8563 33.0288 23.28C32.3667 23.0639 31.0917 22.9199 31.2143 22.7998C31.1407 22.8959 31.0426 22.9919 30.9691 23.088C30.9691 23.088 30.9691 23.088 30.9446 23.088C30.9936 23.0159 31.0672 22.9439 31.1162 22.8479C31.0917 22.8479 26.7516 22.9919 26.7516 22.9919L27.0213 22.6558C28.1002 21.2152 29.2527 19.8707 30.5277 18.5982L25.5011 13.0039L28.9339 9.88267L34.4019 15.2368C40.7772 10.3869 48.7953 7.48171 57.5 7.48171C66.2047 7.48171 74.2228 10.3869 80.5981 15.2368L86.0661 9.88267L89.4989 13.0039ZM28.1983 8.4421L23.7846 12.0435L24.0299 12.7638C24.0299 12.7638 16.8945 18.6222 14.7122 20.687C12.5299 22.7518 12.9467 25.1768 13.9765 27.1696C15.0064 29.1624 21.0874 32.6918 21.0874 32.6918C10.3721 34.1804 2.03518 21.8635 0 15.8851C6.10554 18.5021 10.3475 15.0687 12.0149 14.2044C13.29 13.5321 18.8806 7.24162 18.8806 7.24162C18.8806 7.24162 17.8753 5.705 17.8998 5.08075C17.9243 4.4565 18.3902 3.52013 20.1066 2.1996C21.823 0.87907 24.0299 0.999118 24.0299 0.999118L29.9147 7.48171V8.4421L29.1791 8.92229L28.1983 8.4421ZM21.823 32.4517L22.0928 31.8274C22.4606 30.819 22.8774 29.8106 23.3433 28.8262L25.5011 32.4517C25.5011 32.4517 25.5011 32.4277 25.5256 32.4037C25.8689 32.8118 26.2612 33.22 26.7271 33.6522C29.8902 36.5573 32.3667 36.0531 32.3667 36.0531L29.1791 38.4541C29.1791 38.4541 26.3593 38.0699 24.5203 36.2932C24.4222 36.1972 24.3486 36.1252 24.2505 36.0291C23.564 38.6702 23.1962 41.4313 23.1962 44.2884C23.1962 58.9823 32.9062 71.4673 46.3923 75.9331C46.3678 75.8371 46.3678 75.765 46.3433 75.669C45.9264 73.1 47.5693 69.4265 47.5693 69.4265L50.5117 72.0675C50.5117 72.0675 49.8497 73.7002 50.0704 75.9091C50.291 78.118 52.6205 80.9991 52.6205 80.9991L50.9041 80.615C33.2495 77.5657 19.8614 62.4877 19.8614 44.3365C19.8614 40.2068 20.548 36.2212 21.8475 32.4997C21.823 32.4757 21.823 32.4517 21.823 32.4517ZM25.5256 32.2116C25.5501 32.2356 25.5746 32.2596 25.5991 32.2836C25.5746 32.3317 25.5501 32.3797 25.5501 32.4037C25.5256 32.3797 25.5011 32.3557 25.4765 32.3317C25.4765 32.2836 25.5011 32.2356 25.5256 32.2116ZM34.3284 43.9763L37.2708 40.8551C37.2708 40.8551 40.0416 43.4721 44.6759 45.633C44.3326 47.1696 44.0874 48.6822 43.9158 50.1708C37.6876 47.5537 34.3284 43.9763 34.3284 43.9763ZM69.9563 55.9331L64.5618 61.2152C65.0522 59.2224 65.5181 56.4853 65.4936 53.3401C67.0384 52.8599 68.5341 52.3316 69.9318 51.7554C70.0299 53.244 70.0298 54.6366 69.9563 55.9331ZM77.2388 41.0952L80.1812 43.7362C80.1812 43.7362 71.5256 52.7878 57.5 52.8599C55.097 52.8839 52.8902 52.6438 50.8305 52.2596C50.9776 50.8431 51.1738 49.4265 51.4435 47.9379C53.3316 48.322 55.3422 48.5621 57.4755 48.5381C69.3433 48.3461 77.2388 41.0952 77.2388 41.0952ZM45.0437 55.9331C44.7985 51.9235 45.2399 46.9775 47.3977 41.6474C48.9424 37.8299 51.0757 34.7566 53.307 32.3076C54.3369 33.268 55.3667 34.3244 56.3721 35.4289C54.5576 37.5417 52.8166 40.1108 51.5171 43.208C48.5501 50.2908 49.4574 57.2776 50.4382 61.1912L45.0437 55.9331ZM68.6812 44.7686C67.3817 45.3208 65.984 45.8491 64.5373 46.3052C64.2676 45.2728 63.8998 44.2404 63.4829 43.208C59.5597 33.8443 51.6151 29.1864 49.6535 28.154L52.645 25.2248C56.2249 27.1456 63.7281 32.1156 67.6023 41.6234C68.0192 42.7038 68.387 43.7362 68.6812 44.7686ZM48.5011 27.1456L45.6077 24.3365L57.4264 12.7398L69.3188 24.4085L66.4499 27.2176L57.451 18.3821L48.5011 27.1456ZM61.5213 30.603C60.5405 29.5465 59.5597 28.5381 58.5544 27.6018C60.0256 26.5453 61.3252 25.753 62.3305 25.2248L65.322 28.154C64.6599 28.5141 63.2377 29.3305 61.5213 30.603ZM39.355 30.4829L42.0032 33.5081L30.5522 44.7446L57.451 71.1552L84.3497 44.7446L72.9723 33.5802L75.6205 30.5549L90.0629 44.7446L57.451 76.7494L24.839 44.7446L39.355 30.4829ZM64.7335 72.0675L67.6759 69.4265C67.6759 69.4265 69.3188 73.1 68.9019 75.669C82.0203 71.0111 91.387 58.7182 91.387 44.2884C91.387 41.5513 91.0437 38.9103 90.4062 36.3653C88.5672 38.094 85.8209 38.4541 85.8209 38.4541L82.6333 36.0531C82.6333 36.0531 85.1098 36.5573 88.2729 33.6522C88.5426 33.4121 88.7633 33.196 88.984 32.9559L89.0085 32.9319C89.0821 32.8599 89.1556 32.7878 89.2292 32.6918C89.2292 32.6918 89.2292 32.6678 89.2537 32.6678V32.6918C89.2537 32.6918 89.2783 32.6438 89.3028 32.5717C89.7687 31.8995 90.2345 30.771 90.2345 30.771C90.823 29.6186 91.4606 28.3701 91.4606 28.3701L91.7303 28.9943C92.1471 29.8587 92.5149 30.747 92.8582 31.6594L93.177 32.4277C93.177 32.4277 93.177 32.4517 93.1525 32.4757C94.4275 36.1972 95.1386 40.1588 95.1386 44.3124C95.1386 61.4313 83.2217 75.813 67.0629 79.9667C67.0629 79.9907 67.0384 79.9907 67.0384 79.9907L63.0171 80.9511L63.8017 79.4145C65.9595 75.813 64.7335 72.0675 64.7335 72.0675Z" fill="white" fill-opacity="0.5"/>
</svg>
