<svg width="31" height="30" viewBox="0 0 31 30" fill="none" xmlns="http://www.w3.org/2000/svg">
<path d="M23.7716 10.8791C23.3945 10.2503 23.0957 10.0082 23.0737 9.98614C23.7055 9.08342 24.5013 8.92685 25.6962 8.92196C27.1042 8.91707 28.113 7.51284 26.8299 6.30188C27.1115 6.81562 26.9867 7.12632 26.8618 7.32203C26.5655 7.78684 25.8872 7.69877 25.0326 7.57645C24.014 7.43211 22.4566 7.22662 21.4331 8.61372C21.1491 8.47427 20.9752 8.41311 20.5736 8.35195C20.2994 7.06271 23.7128 6.65661 22.2705 3.86039C22.1163 6.43888 19.222 4.97105 18.4017 8.2859C16.1832 7.76482 14.1532 8.8608 13.1248 9.78798C18.2547 7.93607 21.9302 10.3262 23.1325 13.323C23.9062 12.775 24.9077 12.8973 26.0366 13.871C28.0469 15.6055 30.4784 14.2159 31 11.8283C27.5915 15.0648 27.3613 9.90541 23.7716 10.8791Z" fill="white"/>
<path d="M28.5464 15.2899C26.2325 16.447 26.0586 13.208 22.7774 14.1548C22.1187 11.975 20.1524 10.7641 18.8375 10.3384C23.0051 13.8514 22.7725 18.228 20.7769 20.7649C21.6388 21.1588 22.0355 22.0884 21.7539 23.5513C21.2543 26.1592 23.6761 27.5658 26.0072 26.8246C21.4919 25.4913 25.848 22.7122 23.2108 20.0946C23.5659 19.4536 23.6271 19.0745 23.6369 19.0451C24.7339 19.1405 25.2677 19.7497 25.8701 20.782C26.5802 21.9979 28.2991 22.1691 28.7081 20.4542C28.4044 20.9557 28.0714 21.0022 27.8412 20.9924C27.2878 20.968 27.0283 20.3368 26.7051 19.5368C26.3206 18.5827 25.7182 17.132 24.0066 16.9412C23.9846 16.6256 23.9503 16.4446 23.8034 16.0678C24.7853 15.1847 26.8446 17.9369 28.5464 15.2899Z" fill="white"/>
<path d="M13.1419 22.4456C13.2301 23.3874 12.6228 24.1947 11.2148 24.684C8.70498 25.5574 8.69518 28.3536 10.5023 30C9.40039 25.4277 13.9892 27.8056 14.9368 24.2143C15.6714 24.2021 16.0314 24.0651 16.0607 24.0577C16.526 25.0559 16.2664 25.8216 15.6714 26.8588C14.9711 28.0796 15.6836 29.6551 17.3757 29.1511C16.7904 29.1389 16.5823 28.8747 16.477 28.6692C16.2224 28.1799 16.6386 27.6368 17.17 26.9591C17.8042 26.1494 18.7616 24.9042 18.0711 23.3263C18.3331 23.1501 18.4727 23.0303 18.7273 22.7147C19.9835 23.1208 18.6269 26.2791 21.7735 26.4283C19.6137 25.0045 22.3342 23.2333 19.8733 20.8677C21.4331 19.209 21.4992 16.9021 21.2103 15.5517C20.2504 20.919 16.3399 22.903 13.1419 22.4456Z" fill="white"/>
<path d="M7.23333 19.1234C7.61043 19.7521 7.90916 19.9943 7.9312 20.0163C7.29945 20.919 6.50363 21.0756 5.30869 21.0805C3.90071 21.0854 2.89186 22.4896 4.17496 23.7006C3.89336 23.1868 4.01825 22.8761 4.14313 22.6804C4.43942 22.2156 5.11769 22.3037 5.97227 22.426C6.99092 22.5703 8.54826 22.7758 9.5718 21.3887C9.85585 21.5282 10.0297 21.5893 10.4313 21.6505C10.7055 22.9397 7.2921 23.3458 8.73436 26.1421C8.88863 23.5636 11.7829 25.0314 12.6032 21.7165C14.8217 22.2376 16.8517 21.1416 17.8801 20.2145C12.7502 22.0664 9.07472 19.6763 7.87243 16.6794C7.09866 17.2274 6.09716 17.1051 4.96833 16.1315C2.95308 14.3994 0.524013 15.7914 0 18.1766C3.41343 14.9376 3.6436 20.097 7.23333 19.1234Z" fill="white"/>
<path d="M2.45845 14.7126C4.77243 13.5554 4.94629 16.7944 8.22749 15.8477C8.88373 18.0274 10.85 19.2359 12.1674 19.664C7.99731 16.151 8.23239 11.7744 10.228 9.23754C9.36611 8.84368 8.96943 7.91405 9.25103 6.45111C9.75055 3.84327 7.32883 2.4366 4.99771 3.17785C9.51303 4.51113 5.15687 7.29022 7.79408 9.90785C7.43902 10.5488 7.3778 10.928 7.36801 10.9574C6.27101 10.8619 5.7372 10.2528 5.13483 9.22042C4.42472 8.00457 2.70577 7.83332 2.29684 9.54823C2.60047 9.04673 2.93349 9.00025 3.16367 9.01003C3.71706 9.03449 3.97662 9.66566 4.29984 10.4656C4.68428 11.4197 5.28665 12.8704 6.99826 13.0612C7.0203 13.3768 7.05458 13.5579 7.2015 13.9346C6.21959 14.8153 4.16027 12.0656 2.45845 14.7126Z" fill="white"/>
<path d="M19.7876 5.31599C22.2975 4.44508 22.3073 1.64642 20.5002 0C21.6021 4.57229 17.0133 2.19441 16.0656 5.7857C15.331 5.79793 14.9711 5.93493 14.9417 5.94227C14.4765 4.94414 14.736 4.17842 15.331 3.14116C16.0314 1.92041 15.3188 0.34494 13.6268 0.848895C14.212 0.861127 14.4201 1.12534 14.5254 1.33083C14.7801 1.82011 14.3638 2.36321 13.8325 3.04085C13.1983 3.85061 12.2408 5.09582 12.9314 6.67373C12.6694 6.84987 12.5298 6.96975 12.2751 7.28533C11.019 6.87923 12.3755 3.72095 9.22899 3.57172C11.3887 4.99552 8.66825 6.7667 11.1291 9.13235C9.56935 10.791 9.50324 13.0979 9.79218 14.4483C10.7521 9.08587 14.6626 7.0994 17.8605 7.55688C17.7724 6.61257 18.3796 5.80771 19.7876 5.31599Z" fill="white"/>
</svg>
