<svg width="34" height="26" viewBox="0 0 34 26" fill="none" xmlns="http://www.w3.org/2000/svg">
<path d="M0.278693 14.8994C0.184112 14.9842 0.0928557 15.0729 0.00012207 15.1596L0.00751121 15.2153C0.198151 15.2727 0.391377 15.3049 0.582755 15.2026C1.13362 14.9082 1.55775 14.4499 1.96859 13.9868C2.33841 13.5708 2.66021 13.1105 2.97166 12.6407C3.16082 12.3549 3.31304 12.0544 3.45196 11.7477C3.53102 11.5736 3.60602 11.3975 3.68102 11.2211L3.70097 11.1745C3.81255 10.9113 3.88496 10.6296 3.97215 10.3555L3.99321 10.2899C4.03533 10.1575 4.07819 10.0239 4.107 9.88764C4.31168 8.91672 4.33791 7.92335 4.42252 6.9388C4.44136 6.71867 4.44949 6.49739 4.45245 6.27591C4.45503 6.08649 4.45392 5.89687 4.45245 5.70764C4.4506 5.45028 4.44025 5.18793 4.39149 4.93747C4.34383 4.6899 4.37819 4.4452 4.48126 4.23639C4.56698 4.0629 4.70035 3.91397 4.87363 3.8086L4.92905 3.77444C4.95639 3.75736 4.98372 3.74009 5.01143 3.72378C5.04949 3.70171 5.08791 3.68136 5.12818 3.66524C5.60958 3.47217 6.09838 3.45854 6.51475 3.79191C6.76709 3.99265 6.97066 4.26614 7.16832 4.53252L7.21487 4.59528C7.25958 4.65554 7.29948 4.71926 7.33716 4.7847C7.35859 4.82232 7.37928 4.86051 7.39997 4.8989L7.44578 4.9866L7.448 4.99063C7.49529 5.08141 7.54258 5.17238 7.59578 5.25913C7.84628 5.66561 7.85293 6.10626 7.76093 6.55381C7.7299 6.70389 7.76832 6.78776 7.86216 6.88315C8.0528 7.07814 8.23384 7.28291 8.41893 7.48366C8.43888 7.50535 8.45773 7.52857 8.47657 7.55179C8.51352 7.59747 8.55046 7.64334 8.59627 7.67769C8.76807 7.808 8.94061 7.93812 9.11499 8.06498C9.17743 8.11047 9.24061 8.15538 9.30378 8.1999L9.41351 8.27629C10.0131 8.68872 10.6819 8.83189 11.3868 8.75685C11.6269 8.73152 11.8822 8.6536 12.0876 8.52482C12.4231 8.31486 12.7146 8.05097 12.9392 7.72855C13.0431 7.57962 13.1325 7.41822 13.2052 7.24395C13.3102 6.99331 13.3807 6.71464 13.4022 6.4425C13.4269 6.12142 13.4077 5.80149 13.3604 5.48463C13.3323 5.29655 13.2947 5.10943 13.2503 4.92385C13.2348 4.85859 13.2112 4.78989 13.1779 4.72982C13.1687 4.71293 13.1587 4.69681 13.148 4.68145C13.1391 4.66898 13.1299 4.65708 13.1199 4.64595C13.0327 4.54788 12.9407 4.45403 12.8461 4.36344C12.7804 4.30068 12.7135 4.23927 12.6459 4.17901C12.4479 4.00264 12.2332 3.84469 12.037 3.6662C11.9299 3.56909 11.8268 3.46718 11.7234 3.36508L11.7112 3.35299C11.6181 3.26106 11.525 3.16913 11.4296 3.08046C11.3654 3.02078 11.3 2.96263 11.2327 2.90678C10.6652 2.436 10.0822 1.98557 9.50329 1.52938C9.24652 1.32748 8.99381 1.1179 8.72558 0.934619C8.42521 0.730033 8.11672 0.537922 7.79862 0.366347L7.71475 0.320478C7.50416 0.204751 7.28359 0.0832661 7.05896 0.0592762C6.44086 -0.0059762 5.81685 -0.0401378 5.19653 0.0798116C4.99776 0.117812 4.79124 0.122609 4.59506 0.171357C4.22264 0.264054 3.84432 0.349842 3.48706 0.491094C3.33299 0.552316 3.19408 0.653265 3.05479 0.754599C2.9809 0.808336 2.90664 0.862265 2.83016 0.910245C2.59186 1.05956 2.42487 1.27988 2.29038 1.52055C2.02401 1.99919 1.8777 2.52083 1.81009 3.06952L1.79383 3.20022C1.7713 3.38274 1.74876 3.56525 1.72955 3.74796L1.70849 3.95984C1.67856 4.28552 1.66157 4.61198 1.67413 4.94035C1.67819 5.05493 1.70849 5.16854 1.73879 5.28177C1.75061 5.32572 1.76243 5.36948 1.77278 5.41324C1.78053 5.44759 1.79236 5.48099 1.80418 5.51438L1.81822 5.55603C1.82524 5.57771 1.83152 5.5994 1.83632 5.62185C1.85406 5.70687 1.86994 5.79247 1.88583 5.87807L1.88915 5.89419C1.91723 6.04638 1.94531 6.19838 1.98263 6.34808C2.12154 6.9008 2.20319 7.45737 2.19765 8.03063C2.19543 8.29337 2.20504 8.5561 2.21465 8.81884C2.22425 9.08733 2.23423 9.35602 2.23127 9.62452C2.22758 10.0124 2.22388 10.4122 2.1378 10.7854C2.058 11.1292 1.96711 11.4702 1.87068 11.8099C1.77647 12.1423 1.67672 12.4732 1.57733 12.8037L1.5729 12.818L1.54187 12.9194C1.45357 13.2126 1.33866 13.4882 1.1979 13.7466C0.962557 14.1791 0.6548 14.5632 0.278693 14.8994Z" fill="#DBB56D"/>
<path d="M34.0001 15.1589C33.8941 15.2719 33.5911 15.3061 33.44 15.2143L33.4193 15.2017C33.2475 15.0977 33.0728 14.9917 32.9209 14.8595C32.7026 14.6706 32.495 14.4726 32.2969 14.2657C31.8447 13.7934 31.442 13.2754 31.0755 12.7169C30.7197 12.1747 30.4467 11.5986 30.2254 10.9992L30.1644 10.8296L30.1186 10.6983L30.0879 10.6083C30.054 10.5052 30.0211 10.4014 29.9908 10.297C29.9686 10.2212 29.9479 10.145 29.928 10.0684C29.9136 10.0122 29.8999 9.95558 29.887 9.89877C29.8338 9.6652 29.7942 9.4278 29.7746 9.18598C29.7318 8.64592 29.6812 8.10682 29.6368 7.56676L29.6191 7.36697L29.6102 7.26967C29.5836 6.98659 29.557 6.70313 29.5544 6.41928L29.5508 6.17746C29.5456 5.88267 29.5404 5.58788 29.5596 5.2931L29.5644 5.2313L29.5729 5.13227L29.5799 5.06491L29.5895 4.98775L29.5951 4.9486L29.6062 4.87606L29.6173 4.81272C29.6623 4.56131 29.6058 4.29896 29.4285 4.09245C29.0428 3.64394 28.5654 3.48503 27.9909 3.56794C27.5077 3.63703 27.2206 3.98114 26.9579 4.33696C26.8249 4.51755 26.7041 4.70909 26.591 4.906C26.4935 5.07604 26.4022 5.25011 26.3143 5.42495C26.1333 5.7846 26.1577 6.18053 26.2338 6.56936C26.2515 6.66014 26.2722 6.73614 26.1979 6.81501C26.0841 6.93516 25.9722 7.05722 25.8602 7.17928C25.779 7.26794 25.6977 7.35661 25.6157 7.44451C25.5119 7.55582 25.4066 7.66598 25.299 7.77346C24.9248 8.1477 24.4622 8.3924 23.9882 8.58835C23.5282 8.77854 23.031 8.82728 22.5355 8.75704C22.0814 8.69275 21.7183 8.43539 21.3928 8.11565C20.7182 7.45161 20.4695 6.6396 20.6121 5.6921C20.6243 5.60919 20.6432 5.52532 20.6439 5.44164C20.6561 4.71715 21.129 4.33024 21.6322 3.95581C21.7046 3.90188 21.7741 3.84353 21.8417 3.78231C21.8779 3.74969 21.9133 3.71629 21.9484 3.68232L22.0257 3.60671C22.0755 3.557 22.1247 3.50672 22.1734 3.45682C22.4912 3.13228 22.8451 2.85515 23.1994 2.57783C23.3199 2.4836 23.4403 2.38917 23.5593 2.29283C23.7244 2.15906 23.8862 2.02069 24.0477 1.88231C24.1689 1.77849 24.2901 1.67466 24.4123 1.57313C24.4696 1.52573 24.5269 1.47871 24.5849 1.43226C24.6477 1.38198 24.7112 1.33247 24.7755 1.28391C24.893 1.19505 25.0138 1.11099 25.1369 1.02981C25.1912 0.993921 25.2458 0.958608 25.3009 0.923679C25.4291 0.842114 25.5591 0.762851 25.6888 0.68378L25.6921 0.681477L25.8403 0.5907C26.1096 0.425074 26.3838 0.264054 26.6679 0.13163C26.7059 0.113589 26.7458 0.0988115 26.7872 0.0867206C26.8201 0.0769328 26.8541 0.0686803 26.8881 0.0617712C26.9147 0.0563975 26.9417 0.0517914 26.9686 0.0477611C27.0307 0.0383571 27.0931 0.0322157 27.1541 0.0272258C27.3765 0.00976115 27.6008 0.029145 27.8232 0.0164783C28.2724 -0.00885498 28.7136 0.0515995 29.1517 0.142377L29.2083 0.153892C29.5471 0.224135 29.8847 0.294185 30.2206 0.375367C30.3517 0.407417 30.4851 0.457124 30.6004 0.528326C31.1017 0.834437 31.5698 1.16684 31.8214 1.75565C31.9308 2.01263 32.0202 2.27306 32.0863 2.53906C32.1392 2.75247 32.1772 2.96934 32.1987 3.19063C32.2245 3.45355 32.2456 3.71706 32.2637 3.98095C32.2855 4.30433 32.3028 4.6281 32.3195 4.95129L32.3202 4.9749C32.3202 4.99524 32.3187 5.01558 32.3165 5.03593C32.3128 5.06759 32.3069 5.09926 32.2995 5.13112L32.2873 5.1814L32.27 5.24531L32.2688 5.24896C32.2596 5.28235 32.2504 5.31574 32.2426 5.34895C32.216 5.46256 32.1876 5.57579 32.1591 5.68903C32.1174 5.85465 32.076 6.02047 32.0398 6.18725C31.9648 6.53539 31.8909 6.8843 31.8355 7.23628C31.8026 7.44777 31.7989 7.66617 31.7941 7.88151L31.7915 8.05654L31.7904 8.15326L31.7878 8.46552C31.786 8.78679 31.7845 9.10787 31.7686 9.42761C31.7368 10.0819 31.7978 10.7185 31.9836 11.3453C32.1225 11.8122 32.2437 12.2849 32.3804 12.7518C32.5954 13.4821 32.9671 14.1196 33.4663 14.6762C33.593 14.8176 33.7459 14.9336 33.8874 15.0604C33.927 15.0915 33.9635 15.1247 34.0001 15.1589Z" fill="#DBB56D"/>
<path fill-rule="evenodd" clip-rule="evenodd" d="M18.1534 16.5422L18.173 16.4927L18.2047 16.4133C18.2203 16.3758 18.2361 16.3388 18.2528 16.3023L18.2853 16.234L18.3052 16.1949C18.3248 16.1569 18.3459 16.1198 18.3684 16.0837C18.5513 15.7914 18.773 15.5193 19.0083 15.2708C19.213 15.0554 19.5026 15.0203 19.786 15.0222C19.82 15.0222 19.8677 15.0739 19.8847 15.1128C20.0169 15.4141 20.1399 15.7193 20.2741 16.0194C20.2911 16.0573 20.3162 16.0912 20.3432 16.1246C20.3709 16.159 20.4 16.1929 20.4233 16.23C20.4292 16.2396 20.4359 16.2509 20.4414 16.2628L20.4518 16.2889C20.4592 16.3115 20.4625 16.3338 20.4562 16.3499L20.4451 16.3776C20.331 16.6718 20.2175 16.9635 19.8566 17.0391C19.8085 17.0489 19.765 17.0969 19.7262 17.1527C19.7066 17.1815 19.6877 17.2122 19.6707 17.2408L19.6663 17.2483L19.653 17.2702C19.6216 17.3228 19.5932 17.3775 19.5666 17.4331C19.5414 17.4849 19.5174 17.5375 19.4938 17.5899L19.4539 17.6767C19.4114 17.769 19.3914 17.8624 19.3863 17.9561C19.3774 18.1108 19.4084 18.2662 19.4446 18.4186C19.5122 18.7061 19.6622 18.946 19.8773 19.1458C19.9493 19.213 19.9833 19.254 19.9803 19.2919C19.9796 19.299 19.9778 19.3059 19.9744 19.3128C19.9685 19.3262 19.9578 19.3396 19.9423 19.3542C19.9201 19.3748 19.8887 19.3976 19.8481 19.4256C19.5514 19.6302 19.3593 19.9267 19.1941 20.2415C18.981 20.648 18.8343 21.0725 18.7412 21.5114C18.6632 21.8776 18.6226 22.2537 18.6115 22.6378C18.6089 22.7211 18.6082 22.8038 18.6093 22.8863C18.61 22.9594 18.6126 23.0324 18.6167 23.1049C18.6219 23.2011 18.6296 23.2966 18.6407 23.3918C18.6736 23.6732 18.7331 23.9507 18.8262 24.2238C18.835 24.2497 18.8472 24.2743 18.859 24.2988C18.872 24.3249 18.8849 24.351 18.8938 24.3789L18.8971 24.3906C18.9111 24.4347 18.9281 24.4888 18.9115 24.5201C18.8919 24.5562 18.8206 24.5952 18.7888 24.5834L18.7526 24.5698L18.6983 24.5483C18.6525 24.5297 18.6071 24.5096 18.5635 24.4869C18.521 24.465 18.4796 24.4408 18.4404 24.4138C18.3411 24.3457 18.2605 24.2462 18.1467 24.137L18.0957 24.3052C18.0577 24.4282 18.0222 24.5439 17.993 24.6616C17.9886 24.6798 17.9916 24.6999 17.9975 24.7209C18.006 24.75 18.0204 24.7807 18.0285 24.8097C18.0466 24.8723 18.0551 24.9331 18.0525 24.9924C18.0488 25.0799 18.0215 25.1638 17.9668 25.2444L17.8471 25.4217L17.536 25.8908C17.5135 25.924 17.4873 25.9541 17.4544 25.9981C17.4462 25.9864 17.4385 25.9766 17.4315 25.9679C17.4196 25.9534 17.41 25.9417 17.4067 25.9288C17.3276 25.5974 17.2519 25.2649 17.1728 24.9325C17.1621 24.8871 17.1514 24.8412 17.1377 24.7967C17.127 24.761 17.1148 24.726 17.0997 24.6926C17.0941 24.68 17.0831 24.6675 17.0694 24.6568L17.0554 24.6472L17.0435 24.6403C17.0354 24.636 17.0269 24.6328 17.0188 24.6305C17.0118 24.6285 17.0047 24.6274 16.9985 24.6274C16.9637 24.6274 16.9113 24.6616 16.898 24.6946C16.8614 24.7863 16.8381 24.8838 16.8156 24.9803C16.7376 25.302 16.6634 25.6236 16.5865 25.9443C16.5847 25.9522 16.5784 25.9591 16.568 25.971L16.5433 26C16.3445 25.6899 16.1472 25.3916 15.9614 25.0845C15.9307 25.0339 15.9267 24.9383 15.9522 24.8848C16.0486 24.6827 15.9828 24.5109 15.9123 24.3269L15.91 24.3222C15.8875 24.2627 15.8646 24.2017 15.8461 24.138C15.8136 24.1697 15.7833 24.2013 15.7541 24.232C15.6924 24.2969 15.6352 24.3576 15.5683 24.4032C15.4586 24.4792 15.3355 24.5483 15.2092 24.5815C15.1449 24.5988 15.0961 24.5679 15.0769 24.5193C15.0636 24.4856 15.0644 24.4435 15.0843 24.4032C15.255 24.0561 15.3396 23.6828 15.3684 23.2997C15.4445 22.3219 15.3196 21.3713 14.9217 20.4764C14.7304 20.0465 14.4921 19.6371 14.0838 19.3788C14.0687 19.3692 14.0561 19.3592 14.0465 19.349C14.0347 19.3366 14.0269 19.3237 14.0236 19.3103C14.0158 19.2803 14.0284 19.2481 14.0594 19.212L14.086 19.1815L14.1278 19.1345C14.1529 19.1059 14.1788 19.0779 14.2061 19.0512C14.5323 18.7267 14.6169 18.3123 14.6011 17.8669C14.5974 17.7792 14.5382 17.6922 14.5006 17.6076C14.4529 17.4974 14.4012 17.3892 14.3506 17.2809C14.3169 17.2084 14.2815 17.142 14.2294 17.0915C14.188 17.0518 14.1366 17.022 14.0672 17.0071C13.8392 16.9593 13.537 16.5576 13.5315 16.3167C13.5304 16.291 13.5514 16.262 13.5699 16.2369L13.5773 16.2271L13.5991 16.1987L13.6253 16.1686L13.6364 16.1559C13.663 16.1248 13.6889 16.0931 13.7048 16.0565C13.8429 15.7465 13.977 15.4345 14.1038 15.1197C14.1374 15.0368 14.1758 15.0203 14.2604 15.0182C14.8748 15.0027 15.2221 15.418 15.5121 15.8849C15.6348 16.0811 15.7246 16.2987 15.8144 16.5169L15.8155 16.5204L15.8177 16.525L15.8934 16.7071L15.9418 16.8178C15.9503 16.8364 15.9577 16.8549 15.9954 16.8725L15.9987 16.8292C16.0017 16.791 16.0043 16.7528 16.0057 16.7146C16.0105 16.5196 16.0327 16.3236 16.0124 16.1315C15.9935 15.963 15.9492 15.7865 15.876 15.6354C15.6736 15.2211 15.4371 14.8292 15.0673 14.5436C14.9594 14.4607 14.8563 14.4373 14.7278 14.4803L14.7089 14.4864C14.6047 14.5209 14.4913 14.5584 14.3879 14.5445C14.0635 14.5016 13.7949 14.6158 13.5426 14.8086C13.4775 14.8585 13.4339 14.88 13.4033 14.8706L13.3959 14.8675L13.3892 14.8637C13.3822 14.8587 13.3763 14.8518 13.3708 14.843C13.363 14.8307 13.3564 14.8144 13.3504 14.794C13.3449 14.7739 13.3401 14.7499 13.3353 14.7219C13.3153 14.6079 13.2958 14.4939 13.2817 14.3787C13.2762 14.3331 13.2751 14.2803 13.2928 14.2404C13.3427 14.1235 13.7247 14.026 13.8296 14.097C14.0118 14.2198 14.0624 14.2024 14.1411 13.9947C14.1632 13.9364 14.1806 13.8778 14.1932 13.8195C14.2087 13.7462 14.2172 13.6729 14.2194 13.5997C14.2242 13.4264 14.1924 13.2539 14.1337 13.0833C14.0868 12.9459 13.9874 12.856 13.8455 12.8015L13.8252 12.7931L13.7964 12.7804L13.7653 12.7645C13.7461 12.7543 13.7273 12.7434 13.7084 12.7319C13.6774 12.7131 13.6471 12.6931 13.6168 12.6731L13.612 12.6697L13.5743 12.6451L13.5289 12.6163L13.4798 12.5879C13.2995 12.4895 13.2854 12.5021 13.2403 12.7021C13.2197 12.7918 13.1831 12.8823 13.1362 12.9614C13.0649 13.0804 13.0076 13.0608 12.913 12.9633C12.5657 12.6066 12.6259 12.122 12.5254 11.6882C12.5103 11.6222 12.5044 11.5541 12.4981 11.4865L12.4937 11.4378C12.4774 11.2856 12.4815 11.1295 12.6193 11.0409C12.7589 10.9513 12.9215 10.9747 13.0575 11.0516C13.3013 11.19 13.5584 11.2514 13.8315 11.2378C13.9922 11.2301 14.1263 11.2934 14.2312 11.3977C14.5371 11.7028 14.7832 12.0548 14.9284 12.473C14.9602 12.5641 14.9834 12.6582 15.0067 12.7522L15.0374 12.8722L15.0607 12.9545C15.0843 13.0305 15.1227 13.1017 15.1556 13.1758C15.3112 13.1203 15.3189 13.0169 15.3152 12.8902C15.303 12.4843 15.1545 12.1252 15.0052 11.7644L15.0041 11.7615C14.9701 11.6788 14.9358 11.5961 14.9033 11.5128C14.7647 11.1583 14.471 11.0534 14.1717 10.9465L14.1684 10.9453C14.0775 10.9133 14.0192 10.8753 14.0221 10.7787C14.0369 10.3371 14.0099 9.88572 14.0916 9.45678C14.1592 9.10192 14.4001 8.80272 14.7097 8.60869C14.8157 8.54248 14.9605 8.52981 15.0887 8.52098C15.2258 8.51215 15.1826 8.62231 15.1479 8.68565C15.0233 8.91288 15.0241 9.16046 15.0307 9.40803C15.0392 9.7151 15.3008 9.97151 15.5938 9.94425C15.6736 9.93677 15.7331 9.90126 15.7818 9.85156C15.8487 9.78381 15.8949 9.68958 15.9437 9.60398L15.981 9.53508C16.0079 9.48307 16.0323 9.43049 16.0545 9.37713C16.07 9.3399 16.0841 9.30248 16.097 9.26486C16.1107 9.22532 16.1228 9.1856 16.1339 9.14568C16.2241 8.82575 16.2418 8.4897 16.2411 8.14559C16.2392 7.13955 16.155 6.14714 15.8978 5.17334C15.7449 4.59125 15.4988 4.0629 15.1545 3.58041C15.1382 3.55757 15.1209 3.53512 15.102 3.51363L15.0876 3.49674L15.0544 3.46238C14.8992 3.30942 14.8863 3.2246 14.9849 3.01406C15.1667 2.62408 15.4804 2.37555 15.8413 2.19514L15.8646 2.18363C16.2163 2.00821 16.5717 1.83069 16.9815 1.84124C17.6025 1.85698 18.1264 2.12989 18.6115 2.50125C18.8469 2.6807 19.015 2.91561 19.0704 3.2198C19.0748 3.24475 19.0737 3.27603 19.0674 3.30578C19.0637 3.32382 19.0582 3.34128 19.0508 3.35625L19.0404 3.37333L19.0308 3.38542C18.6592 3.77252 18.402 4.23255 18.2343 4.7444C17.9003 5.76695 17.751 6.82077 17.764 7.90089C17.7655 7.99071 17.7636 8.08072 17.7618 8.17054C17.7592 8.28089 17.7566 8.39124 17.7603 8.50141C17.7773 8.97813 17.9029 9.41974 18.1863 9.80377C18.2254 9.85712 18.2679 9.89531 18.3163 9.91719C18.3359 9.92602 18.3562 9.93216 18.3776 9.93581C18.3972 9.93907 18.4179 9.94003 18.4393 9.93869C18.4678 9.93696 18.4981 9.93139 18.5306 9.9218C18.668 9.88188 18.7693 9.83025 18.8398 9.75636C18.9307 9.66098 18.971 9.52894 18.9725 9.33779C18.9747 9.10979 18.9643 8.88563 18.8498 8.67989C18.8299 8.64381 18.8195 8.56474 18.8365 8.55111C18.8705 8.52482 18.9303 8.51906 18.9747 8.52674C19.5001 8.62519 19.9249 9.14587 19.9467 9.70934C19.9589 10.0358 19.9755 10.3615 19.9859 10.6879C19.9881 10.7549 19.9792 10.806 19.953 10.8472C19.9231 10.8946 19.8702 10.9288 19.7853 10.9591C19.5122 11.0566 19.2315 11.1647 19.1021 11.5021C18.9248 11.9611 18.6932 12.3979 18.6865 12.9107C18.6847 13.0666 18.681 13.0745 18.8347 13.1817C18.8446 13.1616 18.8561 13.142 18.8675 13.1224L18.8731 13.1138C18.9019 13.066 18.9307 13.0186 18.937 12.9681C19.012 12.3901 19.3068 11.932 19.6622 11.5059C19.8104 11.3286 19.9888 11.2437 20.2319 11.233C20.2999 11.2299 20.3675 11.2188 20.4348 11.2032C20.5234 11.1827 20.6121 11.1543 20.7008 11.1257C20.7776 11.1009 20.8545 11.0762 20.9317 11.0566L20.9823 11.043C21.068 11.0196 21.1552 10.9958 21.2406 10.999C21.4227 11.0048 21.5239 11.1238 21.5062 11.3276C21.4807 11.621 21.4282 11.9114 21.388 12.2029L21.3776 12.268L21.3684 12.3279L21.3647 12.3567L21.3617 12.3901C21.354 12.5401 21.3374 12.6826 21.2058 12.782C21.1774 12.8038 21.1578 12.839 21.1382 12.8737L21.1175 12.9088C21.0481 13.0201 20.9938 13.0643 20.9398 13.0391C20.9051 13.023 20.8707 12.9781 20.8323 12.9038C20.822 12.8835 20.8124 12.8626 20.8031 12.8413L20.7917 12.8127C20.7854 12.7964 20.7799 12.7799 20.7747 12.7632L20.7717 12.7543C20.7632 12.7261 20.7562 12.6975 20.7507 12.6689C20.7366 12.5918 20.717 12.5419 20.6757 12.5309C20.6638 12.5279 20.6498 12.5279 20.6339 12.5315C20.6129 12.5361 20.5885 12.5471 20.5593 12.5645C20.3952 12.6641 20.2205 12.744 20.0565 12.8434C19.8632 12.9595 19.8285 13.171 19.7956 13.3727C19.759 13.5999 19.7842 13.8241 19.8773 14.0377C19.9146 14.1235 19.9508 14.1667 19.9999 14.172C20.0258 14.1749 20.0553 14.1672 20.0904 14.1498C20.1041 14.1429 20.1189 14.1344 20.1344 14.1244L20.1677 14.1026C20.2153 14.0703 20.2682 14.0344 20.3058 14.0454C20.4392 14.0843 20.5678 14.1488 20.6908 14.2189C20.7178 14.2346 20.7237 14.3154 20.7189 14.3641C20.7122 14.4252 20.7026 14.4858 20.6927 14.5463L20.6727 14.6643L20.6587 14.7541C20.6531 14.794 20.6435 14.8221 20.6302 14.8403C20.6191 14.8553 20.6058 14.8635 20.5903 14.8664C20.5608 14.8718 20.5231 14.8568 20.4787 14.8292C20.3406 14.7434 20.2028 14.6557 20.0583 14.5845C20.038 14.5743 20.0158 14.5676 19.9929 14.5626C19.96 14.5557 19.9253 14.5526 19.8913 14.5497L19.8388 14.5445C19.6397 14.5192 19.4409 14.4879 19.2411 14.4743C19.2063 14.472 19.1679 14.471 19.1302 14.4735C19.0696 14.4774 19.0105 14.49 18.9706 14.5211C18.4829 14.9052 18.1393 15.4072 18.0004 16.0254C17.9764 16.1323 17.9701 16.2436 17.9709 16.3566C17.9712 16.4071 17.9735 16.458 17.976 16.5088L17.9805 16.6004L17.9849 16.6844C17.9879 16.7453 17.9901 16.8057 17.9901 16.8656C18.0015 16.8675 18.0137 16.8675 18.0259 16.8675C18.0455 16.8211 18.0643 16.7741 18.0824 16.7269L18.1534 16.5422ZM17.1429 7.79476L17.1418 7.00405C17.1418 6.95761 17.1311 6.92287 17.1111 6.89831C17.0853 6.86587 17.0439 6.8509 16.99 6.84918C16.9519 6.84802 16.9242 6.85666 16.9042 6.87278C16.8898 6.88449 16.8795 6.90003 16.8728 6.91865C16.864 6.94264 16.8607 6.97143 16.8607 7.0031V12.3327C16.8607 14.1722 16.8607 16.0116 16.8584 17.8523C16.8584 17.9156 16.8462 17.9857 16.8182 18.0394C16.7993 18.0747 16.7727 18.1062 16.7465 18.1375C16.7132 18.1766 16.68 18.2156 16.6634 18.2616C16.5281 18.633 16.3988 19.0074 16.2836 19.3867C16.2636 19.451 16.3098 19.5456 16.3434 19.6166C16.3637 19.6598 16.3911 19.7005 16.418 19.7409C16.4591 19.8029 16.5001 19.8642 16.5159 19.9325L16.5455 20.058L16.5998 20.2964C16.6445 20.4988 16.6863 20.7019 16.7251 20.9053L16.7395 20.9809L16.776 21.1813L16.7871 21.2464L16.8097 21.3803L16.8244 21.4765C16.8477 21.6315 16.8666 21.787 16.8776 21.943C16.8928 22.1534 16.8939 22.3647 16.8717 22.5773C16.8632 22.66 16.8547 22.7499 16.8747 22.8278C16.8895 22.8882 16.9504 22.936 16.9911 22.9896L17.0243 22.951C17.0594 22.9107 17.0949 22.8706 17.1259 22.8268C17.1381 22.8093 17.1296 22.7761 17.1289 22.7499C17.1119 22.2975 17.093 21.8471 17.1935 21.3978C17.3044 20.9015 17.3849 20.3975 17.4854 19.8983C17.4946 19.8513 17.5102 19.802 17.532 19.7571C17.5471 19.7258 17.5652 19.6966 17.5859 19.6722C17.7492 19.482 17.751 19.4675 17.6639 19.2326C17.5756 18.9938 17.5068 18.746 17.4215 18.5054L17.3941 18.4248C17.3561 18.3104 17.3166 18.192 17.2423 18.1125C17.1437 18.0079 17.1437 17.9033 17.144 17.7868L17.1429 7.79476Z" fill="#DBB56D"/>
<path d="M27.8646 12.7624C27.6617 12.9217 27.4596 13.0817 27.2575 13.2418C26.7931 13.6093 26.3291 13.9765 25.8584 14.3338C25.3722 14.7023 24.8657 15.0416 24.3721 15.3974C23.9328 15.7145 23.4806 16.0095 23.0158 16.2806C22.7232 16.4515 22.4254 16.6127 22.1228 16.7641C21.7497 16.9508 21.3669 17.1166 20.9849 17.2821C20.8404 17.3446 20.696 17.4072 20.5523 17.4709C20.5157 17.4865 20.4688 17.4767 20.4274 17.4788C20.4348 17.431 20.4322 17.3782 20.4507 17.3354C20.4932 17.2377 20.5408 17.1414 20.5885 17.0451C20.6879 16.8447 20.7872 16.6445 20.8382 16.4317C21.0167 15.6966 21.4194 15.1098 21.8967 14.5697C22.3537 14.0521 22.8096 13.5316 23.3014 13.0499L23.3919 12.9629C23.4385 12.9192 23.4854 12.876 23.533 12.8336C23.6886 12.6946 23.85 12.5634 24.0178 12.4403C24.2886 12.2417 24.5749 12.0651 24.8768 11.9143C25.1479 11.7788 25.4354 11.732 25.7309 11.7145C25.7919 11.7111 25.8433 11.7249 25.8887 11.7489C25.9245 11.7677 25.9567 11.7928 25.9866 11.8208C26.0162 11.8485 26.0439 11.879 26.0712 11.9091C26.0941 11.9345 26.1167 11.9594 26.1399 11.9824C26.611 12.4388 27.1748 12.6668 27.8036 12.7478L27.8646 12.7624Z" fill="#DBB56D"/>
<path d="M6.4198 12.7138L6.41537 12.7156C6.32781 12.7419 6.24209 12.7676 6.15897 12.7935C6.31007 12.9027 6.4948 13.0255 6.66956 13.1639C6.83138 13.294 6.99135 13.427 7.15133 13.5598C7.39849 13.7656 7.64566 13.9713 7.90059 14.1661C7.98815 14.2329 8.07829 14.2962 8.16992 14.3578C8.25785 14.4173 8.34689 14.4751 8.43593 14.5328C8.56783 14.6181 8.69972 14.7035 8.82755 14.7939C8.87891 14.8299 8.92952 14.8668 8.98014 14.904L9.0762 14.9748L9.24061 15.0988L9.24836 15.1046C9.43679 15.247 9.62484 15.3892 9.82139 15.5182C10.1092 15.7074 10.3989 15.8937 10.6907 16.0761L10.8289 16.1618L11.0099 16.2735C11.1843 16.3801 11.3594 16.4852 11.5357 16.5887C11.5918 16.6217 11.6498 16.6512 11.7093 16.6785L11.7969 16.7169L11.9107 16.7631L12.0115 16.8025C12.1142 16.842 12.2173 16.8817 12.3171 16.9278C12.5136 17.0188 12.7083 17.113 12.903 17.2072L12.9274 17.2193L12.9607 17.2354C13.114 17.3097 13.2669 17.3838 13.4206 17.4562C13.452 17.4711 13.4886 17.4734 13.5252 17.4755C13.5411 17.4765 13.557 17.4775 13.5725 17.4796L13.5618 17.4262L13.5607 17.4216C13.5536 17.3836 13.5466 17.3456 13.5322 17.3109C13.3933 16.9727 13.2481 16.6393 13.1147 16.2991C13.097 16.2542 13.0918 16.2025 13.0867 16.1513C13.0804 16.0891 13.0741 16.0275 13.0453 15.9793C12.8125 15.5865 12.5816 15.1877 12.3134 14.8211C12.0854 14.5102 11.7984 14.245 11.5516 13.9477C11.4008 13.7661 11.2449 13.5915 11.0831 13.4239C10.997 13.3347 10.9094 13.2476 10.82 13.1623C10.6915 13.0395 10.5592 12.9207 10.4236 12.8061C10.3848 12.7731 10.3453 12.7405 10.3057 12.7083C10.2308 12.647 10.155 12.5872 10.0782 12.5286C9.90304 12.3951 9.72238 12.2678 9.53617 12.1471C9.16524 11.9064 8.77398 11.727 8.33026 11.7251C8.22977 11.7251 8.106 11.7631 8.03359 11.8314C7.96894 11.8922 7.90391 11.9525 7.83778 12.0108C7.73618 12.1008 7.63162 12.1866 7.52189 12.2634L7.45945 12.3056L7.40367 12.3411C7.36931 12.3622 7.33458 12.3824 7.29911 12.4014C7.2762 12.4139 7.25256 12.426 7.22891 12.4375C7.17386 12.464 7.11734 12.4879 7.05896 12.5089C6.84505 12.5854 6.62818 12.6509 6.4198 12.7138Z" fill="#DBB56D"/>
<path d="M20.1108 2.4074C20.246 3.01675 20.4289 3.58118 20.7529 4.08612C20.7684 4.1103 20.781 4.1316 20.7898 4.15156C20.8186 4.21682 20.8087 4.26691 20.7433 4.35116L20.6901 4.42313L20.6679 4.4546C20.6306 4.50911 20.5951 4.56534 20.5611 4.62273C20.4932 4.73768 20.4311 4.85744 20.3716 4.97701C20.123 5.48214 20.0021 6.02508 19.9936 6.58855C19.9863 7.07602 20.1167 7.53413 20.355 7.95712C20.3941 8.02679 20.4311 8.09838 20.468 8.16996C20.546 8.32196 20.6239 8.47377 20.7255 8.60639C20.9095 8.84628 21.1197 9.07141 21.3459 9.26831C21.6023 9.49267 21.9211 9.48345 22.2388 9.47424L22.2887 9.47309C22.5023 9.46772 22.6874 9.39172 22.8765 9.31437L22.9098 9.30056C22.9404 9.28789 22.9722 9.27849 23.0073 9.2733L23.0287 9.27043L23.0568 9.2687C23.0805 9.26793 23.1056 9.26908 23.1322 9.27234C23.062 9.36197 23.0036 9.46618 22.9194 9.5393C22.6087 9.80837 22.2983 10.0765 21.9706 10.3221C21.8646 10.4022 21.7098 10.4285 21.5738 10.4459C21.3832 10.4703 21.2398 10.3592 21.112 10.2189C21.0093 10.1051 20.904 9.99358 20.7987 9.88226L20.7532 9.83448C20.5948 9.66693 20.4374 9.49842 20.2911 9.32013C19.8078 8.73228 19.3574 8.12006 19.1539 7.35373C19.1236 7.24069 19.0778 7.13206 19.029 7.01672C19.0065 6.96298 18.9832 6.90771 18.9606 6.84975L18.9189 6.87182C18.8916 6.88583 18.8664 6.8985 18.8461 6.91712C18.7512 7.00482 18.6669 7.1052 18.5675 7.18407C18.4593 7.2689 18.4556 7.35277 18.5166 7.46888C18.6219 7.66925 18.7198 7.87364 18.8177 8.07784L18.848 8.14137C18.8524 8.15019 18.855 8.1596 18.8572 8.17054C18.8598 8.1832 18.8616 8.19779 18.8635 8.21487C18.8657 8.23234 18.8683 8.25268 18.8723 8.27686C18.8095 8.25153 18.773 8.23022 18.7334 8.22236L18.6898 8.21218C18.6352 8.19856 18.576 8.18378 18.5487 8.20681C18.4999 8.24769 18.4556 8.3471 18.4696 8.40468L18.4822 8.4494L18.4944 8.48471C18.5354 8.59948 18.5971 8.70829 18.6292 8.82575C18.678 9.00615 18.7072 9.19231 18.7305 9.37752C18.7467 9.49747 18.6743 9.594 18.5675 9.60571C18.5121 9.61147 18.4379 9.53355 18.3872 9.47789C18.0296 9.08599 18.0636 8.57625 18.0699 8.10644C18.0813 7.29328 18.0954 6.47455 18.2539 5.67022C18.405 4.90293 18.7249 4.22161 19.2307 3.6376C19.261 3.60248 19.2961 3.57178 19.3312 3.54107C19.3541 3.52073 19.3774 3.50038 19.3996 3.4787C19.4901 3.38926 19.5751 3.2958 19.653 3.19734C19.8089 3.00063 19.9386 2.78433 20.0332 2.54194L20.0487 2.51162L20.0698 2.47592C20.0831 2.45404 20.0975 2.43178 20.1108 2.4074Z" fill="#DBB56D"/>
<path d="M10.9885 9.26812C10.9541 9.25929 10.9198 9.25047 10.8865 9.23953L10.8703 9.27081C10.8658 9.2781 10.861 9.2852 10.8555 9.29211C11.2601 9.72988 11.6738 10.1588 12.2133 10.42C12.2775 10.4511 12.3455 10.4667 12.4135 10.4674C12.5273 10.469 12.6403 10.429 12.7331 10.3507C12.9481 10.1705 13.1524 9.97362 13.3383 9.76097C13.4498 9.63334 13.5577 9.50207 13.663 9.36888L13.7794 9.22034L13.8492 9.13071L13.99 8.94723L14.0347 8.88851C14.181 8.69793 14.3173 8.50102 14.4378 8.29433C14.5697 8.06748 14.6827 7.82892 14.7692 7.57444C14.8242 7.41188 14.8807 7.25029 14.9421 7.07756L14.9557 7.03841L15.0337 6.81789C15.1926 6.96913 15.32 7.10078 15.4578 7.21766C15.4752 7.23225 15.4881 7.24664 15.4981 7.26123C15.5092 7.27811 15.5158 7.295 15.5188 7.31228C15.5247 7.34817 15.5147 7.38521 15.4955 7.42532L15.3499 7.72183C15.286 7.85176 15.2221 7.98188 15.1597 8.11258C15.1545 8.12294 15.1508 8.13388 15.1475 8.14597C15.1423 8.16382 15.1386 8.18397 15.1338 8.20815C15.129 8.23272 15.1231 8.2617 15.1146 8.29682L15.2003 8.24865L15.2834 8.20125C15.3858 8.14079 15.4974 8.17879 15.5169 8.29874C15.5302 8.37781 15.5169 8.4684 15.49 8.54344C15.4438 8.67126 15.3566 8.7843 15.3248 8.91288C15.3038 8.99732 15.2886 9.08426 15.279 9.17197L15.2735 9.23166C15.2683 9.29614 15.2664 9.36082 15.2676 9.42473C15.2679 9.46215 15.2964 9.50246 15.3322 9.53892L15.3573 9.5631L15.3828 9.58517L15.4102 9.60705C15.4345 9.62643 15.5217 9.60513 15.5424 9.57385C15.6237 9.4539 15.7238 9.34451 15.787 9.21323C15.8173 9.15048 15.8391 9.08273 15.8465 9.00654C15.8531 8.93745 15.8613 8.86835 15.8698 8.79907L15.8779 8.73344C15.889 8.64554 15.9001 8.55764 15.9093 8.46955C15.9196 8.37148 15.9274 8.27321 15.9289 8.17495C15.9348 7.83967 15.9104 7.50228 15.886 7.16699C15.855 6.73115 15.824 6.29453 15.7678 5.86271C15.7582 5.79036 15.7423 5.71916 15.7235 5.64834C15.7083 5.59153 15.6913 5.53492 15.6743 5.4783C15.6448 5.37908 15.6152 5.27966 15.5967 5.17833C15.4759 4.51352 15.0725 4.02701 14.6576 3.55028C14.4259 3.28409 14.1706 3.04246 14.0391 2.69835C14.0007 2.59683 13.936 2.50528 13.8629 2.37171C13.8599 2.40971 13.8592 2.44349 13.8584 2.47419V2.49799C13.8577 2.52467 13.857 2.54866 13.8551 2.57073C13.8525 2.59702 13.8485 2.62063 13.8411 2.6427C13.6678 3.14572 13.5429 3.67215 13.2237 4.10992C13.1639 4.19379 13.1517 4.26192 13.2437 4.33888C13.3083 4.39357 13.36 4.47053 13.404 4.54653C13.7831 5.20462 14.0007 5.91338 14.0062 6.68451C14.0073 6.76819 13.997 6.85206 13.983 6.93496C13.8555 7.68556 13.51 8.3281 13.0408 8.89829C12.855 9.12341 12.6507 9.35544 12.3522 9.41686C12.2953 9.42837 12.2373 9.43701 12.1789 9.44354L12.0991 9.45121C11.979 9.46081 11.8575 9.46311 11.7374 9.46522L11.7208 9.46561C11.5394 9.46964 11.362 9.45102 11.1969 9.3447C11.1363 9.30555 11.0624 9.28693 10.9885 9.26812Z" fill="#DBB56D"/>
<path d="M21.4545 14.0189C21.4401 13.9461 21.426 13.8734 21.4397 13.8066C21.5409 13.2959 21.6736 12.7975 21.8601 12.3198C21.927 12.1484 22.0009 11.9797 22.0829 11.8141C22.155 11.6685 22.2333 11.5251 22.3186 11.3842C22.7786 10.6258 23.3509 9.96863 23.9797 9.36235C24.1035 9.2424 24.2649 9.16545 24.4064 9.06411C24.4785 9.01268 24.549 8.95913 24.6196 8.90559C24.7083 8.83842 24.7966 8.77124 24.8878 8.70829C24.9669 8.6536 25.0585 8.61944 25.1627 8.56685C25.1627 8.62884 25.1638 8.68622 25.1646 8.74054C25.1657 8.80329 25.1664 8.86183 25.1657 8.91845C25.1653 8.96259 25.1638 9.00558 25.1609 9.04838C25.1243 9.58268 25.3094 10.0135 25.7014 10.3576C25.861 10.497 25.8639 10.577 25.769 10.7691C25.7103 10.8877 25.6389 10.9825 25.5495 11.0549C25.527 11.0731 25.503 11.09 25.4779 11.1054C25.4553 11.1192 25.4321 11.1318 25.4077 11.1434L25.374 11.1583L25.329 11.1756C25.2935 11.1879 25.2558 11.1983 25.2163 11.2067C24.7567 11.3052 24.3436 11.5255 23.9542 11.7965C23.7355 11.9487 23.5087 12.088 23.2892 12.2381C22.9042 12.5014 22.6105 12.863 22.3112 13.2178C22.0888 13.4811 21.8664 13.7452 21.647 14.0104C21.6229 14.039 21.6041 14.0722 21.5853 14.1052C21.576 14.1216 21.5668 14.1379 21.5568 14.1536C21.5287 14.1431 21.5007 14.1313 21.4715 14.1187C21.4678 14.0859 21.4611 14.0523 21.4545 14.0189Z" fill="#DBB56D"/>
<path d="M12.1157 13.7274C12.2339 13.86 12.3444 13.9993 12.4619 14.1398C12.582 14.011 12.5868 13.8882 12.5484 13.7527L12.4649 13.4594L12.4626 13.4531C12.3958 13.2203 12.3293 12.9879 12.2731 12.7526C12.0932 11.9932 11.6783 11.3604 11.2534 10.7405C11.0956 10.5104 10.9102 10.2995 10.7195 10.0932L10.6039 9.96882L10.4136 9.76462C10.2437 9.58037 10.053 9.41264 9.85797 9.2568C9.61413 9.06181 9.35809 8.88237 9.1028 8.70407C9.02484 8.65034 8.93174 8.61924 8.83901 8.57338L8.82571 8.62308L8.8246 8.62846L8.81943 8.64726L8.81832 8.65916C8.81832 8.68181 8.81979 8.70465 8.82127 8.72729L8.82386 8.78487L8.82792 8.90002C8.84085 9.26217 8.85378 9.62567 8.63063 9.9431L8.59406 9.993C8.57115 10.0229 8.54714 10.0519 8.52275 10.0805L8.40489 10.2172L8.37534 10.2519C8.34911 10.2836 8.32361 10.316 8.2996 10.3496L8.29627 10.3542C8.27485 10.3845 8.24972 10.4194 8.22793 10.4551C8.21278 10.4803 8.19874 10.5056 8.18839 10.5302C8.18396 10.5407 8.18026 10.5511 8.17731 10.5613L8.17325 10.5784C8.1714 10.5876 8.17029 10.5966 8.17066 10.6052C8.17066 10.6133 8.17177 10.6212 8.17361 10.6284C8.24233 10.8741 8.37275 11.0904 8.63544 11.1654C8.72152 11.1904 8.81351 11.2002 8.90071 11.219C8.9225 11.2238 8.94393 11.229 8.96462 11.2351C8.98679 11.2416 9.00859 11.2493 9.02965 11.2585L9.06142 11.2737C9.17521 11.3341 9.29307 11.3873 9.41092 11.4405L9.41757 11.4433C9.53137 11.495 9.64553 11.5468 9.756 11.6051C9.83765 11.6483 9.91745 11.6953 9.99393 11.7487C10.0549 11.7913 10.1136 11.8377 10.1694 11.8897C10.2071 11.9239 10.257 11.9425 10.2991 11.9717C10.3667 12.0189 10.4365 12.0636 10.5064 12.1081L10.6006 12.1688C10.6301 12.188 10.6597 12.2074 10.6885 12.2273C10.7809 12.2907 10.8688 12.3586 10.9464 12.4377C11.2224 12.7177 11.4843 13.0123 11.7452 13.3082L11.8327 13.4072L11.8937 13.4765L12.1157 13.7274Z" fill="#DBB56D"/>
<path d="M9.73568 18.9435C9.71166 18.8224 9.68765 18.7038 9.67878 18.5841C9.67139 18.4848 9.65551 18.3919 9.63223 18.3044C9.61228 18.2282 9.58642 18.1563 9.55538 18.0879C9.40797 17.7625 9.1475 17.5187 8.8427 17.303C8.63174 17.1539 8.40083 17.1082 8.15219 17.113C8.01068 17.1159 7.99738 17.0691 8.05465 16.9414C8.17916 16.666 8.2996 16.3887 8.42004 16.111L8.60071 15.6964L8.64578 15.6049C8.69824 15.6517 8.74886 15.6838 8.78285 15.7296C8.97312 15.9851 9.20329 16.1751 9.50144 16.2883C9.68432 16.3574 9.84208 16.4939 10.0168 16.5894C10.2936 16.7403 10.5707 16.8904 10.8481 17.0403L11.9037 17.6101C11.9321 17.6252 11.9576 17.6473 11.9831 17.6694L12.0189 17.6999L11.9831 17.7342C11.9668 17.7502 11.9506 17.7661 11.9332 17.7801C11.9232 17.7884 11.9129 17.7958 11.9018 17.8022C11.7344 17.8978 11.5649 17.9895 11.3953 18.0812C10.8448 18.3787 10.2947 18.6762 9.82065 19.1045C9.814 19.1086 9.80181 19.1086 9.76893 19.1172C9.75858 19.0585 9.74713 19.0007 9.73568 18.9435Z" fill="#DBB56D"/>
<path d="M23.5124 18.6144C23.7547 18.7625 23.9771 18.9429 24.2258 19.1214L24.2561 18.9458L24.2594 18.9253C24.286 18.7712 24.3115 18.6217 24.3403 18.4731C24.4024 18.1538 24.5321 17.8795 24.7153 17.6627C24.9883 17.3391 25.3803 17.1431 25.8462 17.1151C25.987 17.1063 25.9992 17.0673 25.9401 16.9397C25.8285 16.6986 25.7199 16.4559 25.6112 16.2129L25.5857 16.1548L25.4147 15.7709C25.3929 15.7222 25.3648 15.6763 25.3393 15.6295L25.2931 15.6634L25.2588 15.6886C25.2421 15.7012 25.2259 15.7145 25.2107 15.7289C25.1594 15.7769 25.1099 15.8279 25.0604 15.879C24.9588 15.9834 24.8572 16.088 24.7397 16.1666C24.6617 16.2189 24.5816 16.2676 24.5003 16.3144C24.3776 16.3851 24.252 16.4509 24.1264 16.5167L24.0555 16.5541L23.9132 16.6297C23.6143 16.7915 23.3154 16.9524 23.0162 17.1132L22.5972 17.3385L22.1191 17.5966C22.0859 17.6147 22.0563 17.6389 22.0264 17.6632L22.0231 17.6655L21.9784 17.701C22.0216 17.7381 22.0637 17.779 22.1106 17.8102C22.1697 17.8492 22.2344 17.8793 22.2965 17.9145C22.4583 18.007 22.6209 18.0981 22.7834 18.1897C23.0284 18.3278 23.2726 18.4672 23.5124 18.6144Z" fill="#DBB56D"/>
<path d="M13.8366 10.8925L13.7325 10.842C13.636 10.7958 13.5433 10.7513 13.4554 10.6995C13.4302 10.6849 13.4096 10.5981 13.4254 10.5787C13.5123 10.4755 13.6039 10.3778 13.6963 10.2799L13.7905 10.179L13.8366 10.2091V10.8925Z" fill="#DBB56D"/>
<path d="M20.154 10.1809V10.8935C20.2892 10.8282 20.4167 10.7735 20.5367 10.7035C20.5641 10.6887 20.5874 10.6069 20.5726 10.5835C20.471 10.4246 20.3424 10.293 20.154 10.1809Z" fill="#DBB56D"/>
</svg>
